<svg xmlns="http://www.w3.org/2000/svg" width="32" height="32" viewBox="0 0 32 32">
    <g fill="none" fill-rule="evenodd">
        <g fill="#4B6866">
            <g>
                <g>
                    <path d="M16-3.212c1.886 0 3.415 1.53 3.415 3.416v31.592c0 1.887-1.529 3.416-3.415 3.416-1.886 0-3.415-1.53-3.415-3.416V.204c0-1.887 1.529-3.416 3.415-3.416z" transform="translate(-1112.000000, -581.000000) translate(424.000000, 549.000000) translate(688.000000, 32.000000) translate(16.000000, 16.000000) scale(-1, 1) rotate(45.000000) translate(-16.000000, -16.000000)"/>
                    <path d="M16-3.212c1.886 0 3.415 1.53 3.415 3.416v31.592c0 1.887-1.529 3.416-3.415 3.416-1.886 0-3.415-1.53-3.415-3.416V.204c0-1.887 1.529-3.416 3.415-3.416z" transform="translate(-1112.000000, -581.000000) translate(424.000000, 549.000000) translate(688.000000, 32.000000) translate(16.000000, 16.000000) rotate(45.000000) translate(-16.000000, -16.000000)"/>
                </g>
            </g>
        </g>
    </g>
</svg>
