<?xml version="1.0" encoding="UTF-8"?>
<svg width="136px" height="30px" viewBox="0 0 136 30" version="1.1" xmlns="http://www.w3.org/2000/svg" xmlns:xlink="http://www.w3.org/1999/xlink">
    <title>DFBA885C-67C0-4475-9FF9-796220E57316</title>
    <defs>
        <polygon id="path-1" points="0.00018406015 0.120885906 28.7614232 0.120885906 28.7614232 29.7986577 0.00018406015 29.7986577"></polygon>
        <polygon id="path-3" points="0.0684294737 0.188355705 5.61027609 0.188355705 5.61027609 6.44295302 0.0684294737 6.44295302"></polygon>
        <polygon id="path-5" points="0.202609323 0.188395973 7.47462135 0.188395973 7.47462135 6.44295302 0.202609323 6.44295302"></polygon>
        <polygon id="path-7" points="0.00807819549 0.0448389262 7.45576541 0.0448389262 7.45576541 9.86577181 0.00807819549 9.86577181"></polygon>
        <polygon id="path-9" points="0.160807218 0.18833557 5.62160602 0.18833557 5.62160602 6.44295302 0.160807218 6.44295302"></polygon>
    </defs>
    <g id="Home-&amp;-Menu" stroke="none" stroke-width="1" fill="none" fill-rule="evenodd">
        <g id="DBatch1-R4-1A1-Homepage" transform="translate(-121.000000, -120.000000)">
            <g id="Group" transform="translate(120.000000, 58.000000)">
                <g id="Group-48" transform="translate(1.000000, 62.000000)">
                    <g id="Group-3" transform="translate(0.000000, 0.080537)">
                        <mask id="mask-2" fill="white">
                            <use xlink:href="#path-1"></use>
                        </mask>
                        <g id="Clip-2"></g>
                        <path d="M21.614572,14.9312215 C21.614572,11.1860537 19.020551,7.15739597 14.8706081,7.15739597 C10.7204608,7.15739597 8.18431639,11.1860537 8.18431639,14.9312215 C8.18431639,18.6763893 10.7204608,22.7622282 14.8706081,22.7622282 C19.020551,22.7622282 21.614572,18.6763893 21.614572,14.9312215 L21.614572,14.9312215 Z M28.7614232,28.8906846 L20.8075705,28.8906846 L20.8075705,26.3368591 L20.6920217,26.3368591 C18.9628788,28.5502148 15.9655615,29.7987383 13.0263254,29.7987383 C4.7264397,29.7987383 0.00018406015,22.3647785 0.00018406015,14.8178658 C0.00018406015,7.44088591 4.78411188,0.120885906 12.9109811,0.120885906 C15.8506262,0.120885906 18.8475344,1.36920805 20.8075705,3.6389396 L20.8075705,1.02873826 L28.7614232,1.02873826 L28.7614232,28.8906846 Z" id="Fill-1" fill="#FFFFFF" mask="url(#mask-2)"></path>
                    </g>
                    <path d="M49.1075549,7.69167785 C47.9543158,6.61369128 46.4560662,5.76241611 44.8422677,5.76241611 C43.5164211,5.76241611 42.1905744,6.7838255 42.1905744,8.1457047 C42.1905744,10.1883221 45.1302195,10.755906 48.0121925,12.0044295 C50.9518376,13.2527517 53.833606,15.1820134 53.833606,20.0053691 C53.833606,26.1908054 48.7615218,29.8791946 42.8247639,29.8791946 C39.0206496,29.8791946 35.3318797,28.1766443 32.853203,25.2259732 L36.5421774,20.5161745 C38.0983038,22.2185235 40.1732752,23.7507383 42.536812,23.7507383 C44.323218,23.7507383 45.764409,22.5589933 45.764409,20.7428859 C45.764409,18.3028188 42.9403128,17.7356376 40.115603,16.544094 C37.2915068,15.3525503 34.467206,13.7067785 34.467206,9.22369128 C34.467206,4.00348993 38.1559759,0.201543624 43.4587489,0.201543624 C46.4560662,0.201543624 50.260385,1.10939597 52.5656361,3.0952349 L49.1075549,7.69167785 Z" id="Fill-4" fill="#FFFFFF"></path>
                    <path d="M66.2829029,4.0034094 L66.3982472,4.0034094 C68.0122502,1.56334228 70.4328457,0.201463087 73.430163,0.201463087 C74.5829931,0.201463087 75.7356186,0.48495302 76.7733089,0.882201342 L75.7932908,8.25938255 C74.8132728,7.57824161 73.6606472,7.23777181 72.450145,7.23777181 C66.8594202,7.23777181 66.2829029,12.117906 66.2829029,16.4304564 L66.2829029,28.9712617 L58.2137059,28.9712617 L58.2137059,1.10931544 L66.2829029,1.10931544 L66.2829029,4.0034094 Z" id="Fill-6" fill="#FFFFFF"></path>
                    <polygon id="Fill-8" fill="#FFFFFF" points="83.8015639 13.9028054 79.7232 13.856698 78.5081985 10.0221342 77.202394 13.827302 73.1242346 13.7803893 76.3958015 16.1785772 75.090815 19.9831409 78.4176 17.6610604 81.6891669 20.058443 80.4739609 16.2254899"></polygon>
                    <path d="M89.5007206,2.27746309 C88.1489011,2.27746309 87.1216409,4.75256376 87.1216409,6.42934228 C87.1216409,7.46726174 87.513689,7.70685906 88.0814123,7.70685906 C89.7303868,7.70685906 90.8116379,4.85907383 90.8116379,3.82095302 C90.8116379,2.75645638 90.2441191,2.27746309 89.5007206,2.27746309 L89.5007206,2.27746309 Z M90.2441191,6.37598658 C89.9330574,6.92162416 89.1219657,8.21263087 87.6486665,8.21263087 C86.4727266,8.21263087 85.9050033,7.41410738 85.9050033,6.25638926 C85.9050033,3.66148993 88.0814123,1.95813423 89.4602274,1.95813423 C90.6629582,1.95813423 90.9468198,2.90283221 91.0552108,3.30209396 C92.1769552,2.29055034 92.3526304,2.06444295 92.5418033,2.06444295 C92.636492,2.06444295 92.7041853,2.13108725 92.7041853,2.23759732 C92.7041853,2.43712752 92.2444439,3.15571812 92.055271,4.03397315 C91.5822364,6.28296644 91.4605522,6.64236242 91.4605522,7.04142282 C91.4605522,7.29430872 91.6362274,7.44068456 91.8795958,7.44068456 C92.2716439,7.44068456 92.5148078,7.1346443 92.771674,6.38947651 C92.9473492,5.8837047 92.9743447,5.79068456 93.0690334,5.79068456 C93.1365221,5.79068456 93.1772198,5.83055034 93.1772198,5.92357047 C93.1772198,6.12330201 92.7581762,8.21263087 91.3795657,8.21263087 C90.5954695,8.21263087 90.2441191,7.81316779 90.2441191,7.08128859 C90.2441191,6.8684698 90.2441191,6.69551678 90.2711146,6.4027651 L90.2441191,6.37598658 Z" id="Fill-10" fill="#FFFFFF"></path>
                    <path d="M98.6398183,3.87442953 C98.0313973,3.87442953 97.9234153,3.4485906 97.8424289,2.96939597 C97.7612379,2.47711409 97.6395537,2.19765101 96.8286665,2.19765101 C96.0582725,2.19765101 95.5445402,2.68993289 95.5445402,3.23557047 C95.5445402,4.6461745 98.92368,4.19375839 98.92368,6.21644295 C98.92368,7.17463087 98.1262905,8.21255034 96.0987657,8.21255034 C94.5710665,8.21255034 93.7466815,7.54711409 93.7466815,6.69563758 C93.7466815,6.18986577 93.9630544,5.87033557 94.382098,5.87033557 C94.8551326,5.87033557 94.9768168,6.32275168 95.0310123,6.85530201 C95.1119988,7.54711409 95.2471808,7.97295302 96.2069522,7.97295302 C97.2342123,7.97295302 97.8964198,7.44060403 97.8964198,6.70872483 C97.8964198,5.39134228 94.51728,5.72416107 94.51728,3.90100671 C94.51728,2.67684564 95.7202153,1.95805369 96.8826574,1.95805369 C98.5046364,1.95805369 99.2075417,2.68993289 99.2075417,3.23557047 C99.2075417,3.60825503 99.0318665,3.87442953 98.6398183,3.87442953" id="Fill-12" fill="#FFFFFF"></path>
                    <path d="M103.137676,7.44058389 C104.624677,7.44058389 105.124707,6.3096443 105.340876,6.3096443 C105.395071,6.3096443 105.435565,6.33622148 105.435565,6.40286577 C105.435565,6.64226174 104.435504,8.2125302 102.515962,8.2125302 C100.920774,8.2125302 99.8395224,7.21447651 99.8395224,5.49783221 C99.8395224,3.67467785 101.461706,1.9582349 103.61071,1.9582349 C104.975823,1.9582349 105.894897,2.68991275 105.894897,3.72803356 C105.894897,4.23360403 105.638235,4.69951007 105.111005,4.69951007 C104.718957,4.69951007 104.529989,4.45971141 104.529989,4.15387248 C104.529989,3.78098658 104.678464,3.42179195 104.678464,3.16890604 C104.678464,2.70340268 104.327113,2.19763087 103.543017,2.19763087 C102.096918,2.19763087 101.055955,3.91427517 101.055955,5.40481208 C101.055955,6.61548322 101.867047,7.44058389 103.137676,7.44058389" id="Fill-14" fill="#FFFFFF"></path>
                    <path d="M107.668071,6.21640268 C107.668071,7.41398658 108.168101,7.97311409 109.046682,7.97311409 C110.655163,7.97311409 111.358068,5.60432215 111.358068,3.95432215 C111.358068,2.75633557 110.858242,2.19761074 109.979457,2.19761074 C108.370976,2.19761074 107.668071,4.56640268 107.668071,6.21640268 M112.574501,4.67271141 C112.574501,6.58908725 111.168895,8.21251007 109.073882,8.21251007 C107.505894,8.21251007 106.451433,7.1745906 106.451433,5.49781208 C106.451433,3.58163758 107.857244,1.95821477 109.952462,1.95821477 C111.520245,1.95821477 112.574501,2.99613423 112.574501,4.67271141" id="Fill-16" fill="#FFFFFF"></path>
                    <path d="M113.290536,2.72987919 C114.425983,2.25088591 115.182674,1.69195973 116.156148,0.201422819 L115.750398,2.06444295 L117.223901,2.06444295 L117.021231,2.72987919 L115.601718,2.72987919 C114.885519,6.01679195 114.696346,6.64236242 114.696346,6.90833557 C114.696346,7.30759732 115.006999,7.54719463 115.453243,7.54719463 C116.196437,7.54719463 116.778067,6.82840268 116.926746,6.82840268 C116.980737,6.82840268 117.021231,6.8684698 117.021231,6.93511409 C117.021231,7.08128859 116.047757,8.21242953 114.763835,8.21242953 C114.006939,8.21242953 113.479709,7.80008054 113.479709,7.16122148 C113.479709,6.58900671 113.723077,5.73732886 114.43948,2.72987919 L113.290536,2.72987919 Z" id="Fill-18" fill="#FFFFFF"></path>
                    <path d="M117.727674,2.72987919 C118.863121,2.25088591 119.619812,1.69195973 120.593286,0.201422819 L120.187536,2.06444295 L121.660835,2.06444295 L121.458369,2.72987919 L120.03906,2.72987919 C119.322657,6.01679195 119.133485,6.64236242 119.133485,6.90833557 C119.133485,7.30759732 119.444342,7.54719463 119.890381,7.54719463 C120.633779,7.54719463 121.215,6.82840268 121.36368,6.82840268 C121.417671,6.82840268 121.458369,6.8684698 121.458369,6.93511409 C121.458369,7.08128859 120.484895,8.21242953 119.200973,8.21242953 C118.444077,8.21242953 117.917051,7.80008054 117.917051,7.16122148 C117.917051,6.58900671 118.160215,5.73732886 118.876618,2.72987919 L117.727674,2.72987919 Z" id="Fill-20" fill="#FFFFFF"></path>
                    <path d="M90.7983038,14.453557 C90.1898827,14.453557 90.0819008,14.0277181 90.0007098,13.5485235 C89.9195188,13.0562416 89.7978346,12.7767785 88.9871519,12.7767785 C88.2165534,12.7767785 87.7028211,13.2690604 87.7028211,13.814698 C87.7028211,15.225302 91.0821654,14.7728859 91.0821654,16.7955705 C91.0821654,17.7537584 90.2845714,18.7916779 88.2570466,18.7916779 C86.7295519,18.7916779 85.9049624,18.1262416 85.9049624,17.2747651 C85.9049624,16.7689933 86.1213353,16.4494631 86.5403789,16.4494631 C87.0134135,16.4494631 87.1350977,16.9020805 87.1892932,17.4344295 C87.2702797,18.1262416 87.4054617,18.5520805 88.3652331,18.5520805 C89.3924932,18.5520805 90.0547008,18.0197315 90.0547008,17.2878523 C90.0547008,15.9704698 86.6755609,16.3032886 86.6755609,14.4801342 C86.6755609,13.2559732 87.8787008,12.5371812 89.0409383,12.5371812 C90.6629173,12.5371812 91.3658226,13.2690604 91.3658226,13.814698 C91.3658226,14.1873826 91.1903519,14.453557 90.7983038,14.453557" id="Fill-22" fill="#FFFFFF"></path>
                    <path d="M92.1114502,13.3090067 C93.2468968,12.8300134 94.0037931,12.2710872 94.9770623,10.7805503 L94.5715164,12.6435705 L96.0448156,12.6435705 L95.8419405,13.3090067 L94.4230412,13.3090067 C93.7064337,16.5959195 93.5172608,17.2214899 93.5172608,17.4876644 C93.5172608,17.8867248 93.8281179,18.1263221 94.274157,18.1263221 C95.0175555,18.1263221 95.5989811,17.4075302 95.7474562,17.4075302 C95.8014472,17.4075302 95.8419405,17.4477987 95.8419405,17.5142416 C95.8419405,17.6604161 94.8688758,18.791557 93.5847495,18.791557 C92.8278532,18.791557 92.3008277,18.3792081 92.3008277,17.7405503 C92.3008277,17.1681342 92.5439916,16.3164564 93.2603946,13.3090067 L92.1114502,13.3090067 Z" id="Fill-24" fill="#FFFFFF"></path>
                    <path d="M99.9955032,12.8565705 C98.6436836,12.8565705 97.6164235,15.3316711 97.6164235,17.0084497 C97.6164235,18.0463691 98.0084716,18.2861678 98.5761949,18.2861678 C100.225169,18.2861678 101.30642,15.4381812 101.30642,14.4002617 C101.30642,13.3355638 100.738902,12.8565705 99.9955032,12.8565705 L99.9955032,12.8565705 Z M100.738902,16.955094 C100.42784,17.5007315 99.6167483,18.7917383 98.143449,18.7917383 C96.9675092,18.7917383 96.3997859,17.9934161 96.3997859,16.835698 C96.3997859,14.2405973 98.5761949,12.5372416 99.9550099,12.5372416 C101.157741,12.5372416 101.441602,13.4819396 101.549993,13.8812013 C102.671738,12.8696577 102.847413,12.6435503 103.036586,12.6435503 C103.131275,12.6435503 103.198968,12.7101946 103.198968,12.8167047 C103.198968,13.0162349 102.739226,13.7348255 102.550054,14.6130805 C102.077019,16.8620738 101.955335,17.2214698 101.955335,17.6205302 C101.955335,17.8734161 102.13101,18.0197919 102.374378,18.0197919 C102.766426,18.0197919 103.00959,17.7137517 103.266457,16.9685839 C103.442132,16.4628121 103.469127,16.3697919 103.563816,16.3697919 C103.631305,16.3697919 103.672002,16.4096577 103.672002,16.5026779 C103.672002,16.7024094 103.252959,18.7917383 101.874348,18.7917383 C101.090252,18.7917383 100.738902,18.3924765 100.738902,17.660396 C100.738902,17.4477785 100.738902,17.2746242 100.765897,16.9818725 L100.738902,16.955094 Z" id="Fill-26" fill="#FFFFFF"></path>
                    <path d="M106.917924,14.3202483 C107.228781,13.7349463 107.999175,12.5373624 109.256306,12.5373624 C109.70214,12.5373624 109.9995,12.7767584 109.9995,13.1625302 C109.9995,13.6282349 109.70214,13.8680336 109.256306,13.8680336 C108.70208,13.8680336 108.593894,13.495349 108.188348,13.495349 C107.431451,13.495349 106.769039,15.078906 106.376991,16.6091074 L105.836468,18.738302 C105.606802,18.6984362 105.403927,18.6585705 105.214754,18.6585705 C105.012083,18.6585705 104.79571,18.7119262 104.633533,18.738302 C105.647295,14.3738054 105.728486,13.8811208 105.728486,13.6417248 C105.728486,13.3755503 105.606802,13.202396 105.349936,13.202396 C104.849701,13.202396 104.552342,13.8281678 104.363169,14.3470268 C104.214285,14.7595772 104.200991,14.8527987 104.106303,14.8527987 C104.052312,14.8527987 104.011818,14.8127315 104.011818,14.7460872 C104.011818,14.546557 104.41716,12.5373624 105.863668,12.5373624 C106.485382,12.5373624 106.944919,12.9364228 106.944919,13.6950805 C106.944919,13.9078993 106.931217,14.1340067 106.890724,14.3202483 L106.917924,14.3202483 Z" id="Fill-28" fill="#FFFFFF"></path>
                    <path d="M88.8111086,25.4078255 C89.1221702,24.8223221 89.8925642,23.6247383 91.149695,23.6247383 C91.5955296,23.6247383 91.892889,23.8641342 91.892889,24.2501074 C91.892889,24.7158121 91.5955296,24.9554094 91.149695,24.9554094 C90.5954695,24.9554094 90.487283,24.5827248 90.0817371,24.5827248 C89.3248409,24.5827248 88.6624289,26.1664832 88.2703808,27.6966846 L87.7298574,29.8258792 C87.5001913,29.7858121 87.2973161,29.7459463 87.1081432,29.7459463 C86.905268,29.7459463 86.6890995,29.7995034 86.5267176,29.8258792 C87.5406845,25.4611812 87.621671,24.9684966 87.621671,24.729302 C87.621671,24.4631275 87.5001913,24.2899732 87.2433251,24.2899732 C86.7430905,24.2899732 86.4457311,24.9155436 86.2565582,25.4344027 C86.1078785,25.8471544 86.0941762,25.9401745 85.999692,25.9401745 C85.9454965,25.9401745 85.9050033,25.9001074 85.9050033,25.8334631 C85.9050033,25.6341342 86.3103447,23.6247383 87.7568529,23.6247383 C88.3785672,23.6247383 88.8383086,24.0237987 88.8383086,24.7824564 C88.8383086,24.9952752 88.8246063,25.2213826 88.7841131,25.4078255 L88.8111086,25.4078255 Z" id="Fill-30" fill="#FFFFFF"></path>
                    <g id="Group-34" transform="translate(91.621053, 23.436242)">
                        <mask id="mask-4" fill="white">
                            <use xlink:href="#path-3"></use>
                        </mask>
                        <g id="Clip-33"></g>
                        <path d="M1.28506707,3.39553691 C2.27162947,3.2092953 3.66394226,2.96969799 4.17767459,2.37090604 C4.47503398,2.02479866 4.58322045,1.59895973 4.58322045,1.25305369 C4.58322045,0.667550336 4.2721588,0.42795302 3.81262195,0.42795302 C2.88005053,0.42795302 1.43374677,1.26634228 1.28506707,3.39553691 M3.8533197,0.188355705 C4.88057985,0.188355705 5.61027609,0.627483221 5.61027609,1.4392953 C5.61027609,2.01151007 5.1644415,2.6235906 3.79912421,3.07600671 C3.27189414,3.24895973 2.29882947,3.47526846 1.28506707,3.66151007 C1.25786707,4.73969799 1.96077233,5.67110738 3.36678737,5.67110738 C3.90710617,5.67110738 4.39384301,5.43151007 4.69120241,5.21869128 C5.23193023,4.83271812 5.33991218,4.67305369 5.42110316,4.67305369 C5.47509414,4.67305369 5.51579188,4.71291946 5.51579188,4.77936242 C5.51579188,4.95231544 4.4208385,6.44305369 2.59618887,6.44305369 C1.04169865,6.44305369 0.0684294737,5.24526846 0.0684294737,3.8745302 C0.0684294737,1.42600671 2.50150015,0.188355705 3.8533197,0.188355705" id="Fill-32" fill="#FFFFFF" mask="url(#mask-4)"></path>
                    </g>
                    <path d="M103.574451,26.4857114 C103.574451,27.0579262 103.72313,27.4970537 103.925801,27.8032953 C104.696195,26.9514161 105.236923,25.9400738 105.236923,25.0885973 C105.236923,24.662557 105.04775,24.4497383 104.682697,24.4497383 C104.074276,24.4497383 103.574451,25.3944362 103.574451,26.4857114 M107.494114,23.7309463 C108.210721,23.7309463 108.643058,24.5828255 108.643058,25.4077248 C108.643058,27.6035638 106.994288,29.8791342 105.007257,29.8791342 C104.236658,29.8791342 103.641939,29.4532953 103.317584,28.8943691 C102.614884,29.4532953 101.898276,29.8791342 101.073687,29.8791342 C100.154613,29.8791342 99.4247122,29.2138993 99.4247122,27.976047 C99.4247122,26.9248389 99.9384445,26.3127584 100.938505,24.8487987 C100.141115,24.7823557 99.6138851,24.2367181 99.0461618,24.2367181 C98.5056385,24.2367181 98.2215723,24.6357785 98.2215723,25.0086644 C98.2215723,25.2482617 98.3295543,25.3678591 98.5189317,25.3678591 C98.6541137,25.3678591 98.7895002,25.3412819 98.9246821,25.3412819 C99.2353347,25.3412819 99.4922009,25.554302 99.4922009,25.9269866 C99.4922009,26.326047 99.2220415,26.5920201 98.8299934,26.5920201 C98.2352746,26.5920201 97.816231,26.2594027 97.816231,25.4077248 C97.816231,24.489604 98.4244475,23.6246376 99.7490671,23.6246376 C100.276297,23.6246376 101.127678,23.8108792 101.546926,23.8108792 C101.817085,23.8108792 101.992965,23.7309463 102.101151,23.7309463 C102.141645,23.7309463 102.182138,23.7577248 102.182138,23.8108792 C102.182138,23.9838322 100.451972,25.6074564 100.451972,27.0712148 C100.451972,28.3753087 101.005993,29.0008792 101.992965,29.0008792 C102.492995,29.0008792 102.925536,28.7612819 103.182402,28.5216846 C103.074216,28.2289329 103.006727,27.7231611 103.006727,27.3108121 C103.006727,25.4876577 104.02049,23.6246376 105.101741,23.6246376 C105.69646,23.6246376 105.939623,24.0504765 105.939623,24.7026242 C105.939623,25.3678591 105.4263,26.6455772 104.128676,28.082557 C104.507022,28.5216846 104.953061,28.8677919 105.763948,28.8677919 C107.669789,28.8677919 108.156526,26.7120201 108.156526,26.3528255 C108.156526,25.2214832 106.750715,25.3279933 106.750715,24.4497383 C106.750715,24.0504765 107.075275,23.7309463 107.494114,23.7309463" id="Fill-35" fill="#FFFFFF"></path>
                    <g id="Group-39" transform="translate(109.004511, 23.436242)">
                        <mask id="mask-6" fill="white">
                            <use xlink:href="#path-5"></use>
                        </mask>
                        <g id="Clip-38"></g>
                        <path d="M3.79791759,0.507724832 C2.44650707,0.507724832 1.41904241,2.98302685 1.41904241,4.65980537 C1.41904241,5.69752349 1.81088602,5.93732215 2.37881383,5.93732215 C4.02778827,5.93732215 5.10883489,3.08933557 5.10883489,2.05141611 C5.10883489,0.986919463 4.5415206,0.507724832 3.79791759,0.507724832 L3.79791759,0.507724832 Z M4.5415206,4.60624832 C4.23025444,5.15188591 3.41936722,6.44309396 1.94606797,6.44309396 C0.77012812,6.44309396 0.202609323,5.64457047 0.202609323,4.48685235 C0.202609323,1.89175168 2.37881383,0.188395973 3.75742436,0.188395973 C4.96056421,0.188395973 5.24422135,1.13309396 5.35240782,1.5323557 C6.47415218,0.521013423 6.64982737,0.294704698 6.8390003,0.294704698 C6.93389353,0.294704698 7.00138226,0.361348993 7.00138226,0.46785906 C7.00138226,0.667590604 6.54184541,1.38597987 6.35267248,2.26443624 C5.87943338,4.51342953 5.75795368,4.87262416 5.75795368,5.27188591 C5.75795368,5.52477181 5.93342436,5.67114765 6.17699729,5.67114765 C6.5688409,5.67114765 6.81200481,5.36490604 7.06887098,4.6199396 C7.24475068,4.11416779 7.27154165,4.02094631 7.36643489,4.02094631 C7.4337191,4.02094631 7.47462135,4.06081208 7.47462135,4.15403356 C7.47462135,4.35356376 7.05557774,6.44309396 5.67676271,6.44309396 C4.89287098,6.44309396 4.5415206,6.04363087 4.5415206,5.31175168 C4.5415206,5.09893289 4.5415206,4.92577852 4.56851609,4.63302685 L4.5415206,4.60624832 Z" id="Fill-37" fill="#FFFFFF" mask="url(#mask-6)"></path>
                    </g>
                    <path d="M119.725258,25.4078255 C120.036115,24.8223221 120.806509,23.6247383 122.063845,23.6247383 C122.509679,23.6247383 122.806834,23.8641342 122.806834,24.2501074 C122.806834,24.7158121 122.509679,24.9554094 122.063845,24.9554094 C121.509415,24.9554094 121.401228,24.5827248 120.995682,24.5827248 C120.238786,24.5827248 119.576374,26.1664832 119.184326,27.6966846 L118.643803,29.8258792 C118.413932,29.7858121 118.211466,29.7459463 118.022088,29.7459463 C117.819213,29.7459463 117.603045,29.7995034 117.440867,29.8258792 C118.45463,25.4611812 118.535821,24.9684966 118.535821,24.729302 C118.535821,24.4631275 118.413932,24.2899732 118.157066,24.2899732 C117.65724,24.2899732 117.359676,24.9155436 117.170503,25.4344027 C117.021619,25.8471544 117.008326,25.9401745 116.913637,25.9401745 C116.859442,25.9401745 116.819153,25.9001074 116.819153,25.8334631 C116.819153,25.6341342 117.224494,23.6247383 118.670798,23.6247383 C119.292512,23.6247383 119.752254,24.0237987 119.752254,24.7824564 C119.752254,24.9952752 119.738756,25.2213826 119.698058,25.4078255 L119.725258,25.4078255 Z" id="Fill-40" fill="#FFFFFF"></path>
                    <g id="Group-44" transform="translate(122.502256, 20.013423)">
                        <mask id="mask-8" fill="white">
                            <use xlink:href="#path-7"></use>
                        </mask>
                        <g id="Clip-43"></g>
                        <path d="M3.60338647,3.93054362 C2.25197594,3.93054362 1.22451128,6.51215436 1.22451128,8.02906711 C1.22451128,8.96067785 1.65705263,9.36014094 2.30576241,9.36014094 C3.7925594,9.36014094 4.91450827,6.68530872 4.91450827,5.51410067 C4.91450827,4.83537584 4.63064662,3.93054362 3.60338647,3.93054362 L3.60338647,3.93054362 Z M4.49566917,7.78987248 C3.76556391,9.10725503 2.85998797,9.86591275 1.79223459,9.86591275 C0.65678797,9.86591275 0.00807819549,9.06738926 0.00807819549,7.73651678 C0.00807819549,5.70054362 1.87322105,3.61121477 3.57639098,3.61121477 C4.60385564,3.61121477 4.94170827,4.2899396 5.1308812,4.87524161 L5.15787669,4.87524161 C5.79329323,1.98779195 5.86057744,1.72141611 5.86057744,1.37571141 C5.86057744,0.710073826 4.99569925,0.856449664 4.99569925,0.630342282 C4.99569925,0.390946309 5.60371128,0.483966443 7.45576541,0.0448389262 C5.60371128,8.02906711 5.49572932,8.4285302 5.49572932,8.77463758 C5.49572932,9.02732215 5.61761805,9.20047651 5.91477293,9.20047651 C6.37430977,9.20047651 6.67187368,8.73457047 6.87454436,8.1756443 C7.0367218,7.73651678 7.0367218,7.60342953 7.14470376,7.60342953 C7.22589474,7.60342953 7.25289023,7.63000671 7.25289023,7.72322819 C7.25289023,7.86960403 6.83405113,9.86591275 5.42803609,9.86591275 C4.71183759,9.86591275 4.3872782,9.40000671 4.3872782,8.77463758 C4.3872782,8.48168456 4.44147368,8.14906711 4.52266466,7.81624832 L4.49566917,7.78987248 Z" id="Fill-42" fill="#FFFFFF" mask="url(#mask-8)"></path>
                    </g>
                    <g id="Group-47" transform="translate(130.273684, 23.436242)">
                        <mask id="mask-10" fill="white">
                            <use xlink:href="#path-9"></use>
                        </mask>
                        <g id="Clip-46"></g>
                        <path d="M5.05373955,2.10471141 C4.44552301,2.10471141 4.33754105,1.67887248 4.25655459,1.19967785 C4.17536361,0.707597315 4.0536794,0.427932886 3.24258767,0.427932886 C2.47198917,0.427932886 1.95846135,0.920214765 1.95846135,1.46585235 C1.95846135,2.87645638 5.33801023,2.42404027 5.33801023,4.44692617 C5.33801023,5.40491275 4.54021173,6.44303356 2.51268692,6.44303356 C0.98519218,6.44303356 0.160807218,5.77759732 0.160807218,4.92591946 C0.160807218,4.42014765 0.376975639,4.10061745 0.796223759,4.10061745 C1.26905383,4.10061745 1.39094256,4.5532349 1.44493353,5.08558389 C1.52592,5.77759732 1.66110195,6.2032349 2.62087338,6.2032349 C3.64813353,6.2032349 4.31054556,5.67108725 4.31054556,4.93900671 C4.31054556,3.62162416 0.931405714,3.95444295 0.931405714,2.13128859 C0.931405714,0.907127517 2.13413654,0.18833557 3.29678316,0.18833557 C4.91876211,0.18833557 5.62166737,0.920214765 5.62166737,1.46585235 C5.62166737,1.83853691 5.44599218,2.10471141 5.05373955,2.10471141" id="Fill-45" fill="#FFFFFF" mask="url(#mask-10)"></path>
                    </g>
                </g>
            </g>
        </g>
    </g>
</svg>