<svg xmlns="http://www.w3.org/2000/svg" width="136" height="30" viewBox="0 0 136 30">
    <g fill="none" fill-rule="evenodd">
        <g>
            <g>
                <path fill="#787A79" d="M21.615 15.012c0-3.745-2.594-7.774-6.744-7.774s-6.687 4.029-6.687 7.774 2.536 7.83 6.687 7.83c4.15 0 6.744-4.085 6.744-7.83zm7.146 13.96h-7.953v-2.555h-.116c-1.73 2.214-4.726 3.462-7.666 3.462C4.726 29.88 0 22.445 0 14.9 0 7.52 4.784.2 12.911.2c2.94 0 5.937 1.249 7.897 3.518V1.11h7.953v27.862zM49.108 7.692c-1.154-1.078-2.652-1.93-4.266-1.93-1.326 0-2.651 1.022-2.651 2.384 0 2.042 2.94 2.61 5.821 3.858 2.94 1.249 5.822 3.178 5.822 8.001 0 6.186-5.072 9.874-11.01 9.874-3.803 0-7.492-1.702-9.97-4.653l3.688-4.71c1.556 1.703 3.631 3.235 5.995 3.235 1.786 0 3.227-1.192 3.227-3.008 0-2.44-2.824-3.007-5.648-4.199-2.824-1.191-5.649-2.837-5.649-7.32 0-5.22 3.689-9.022 8.992-9.022 2.997 0 6.801.907 9.107 2.893l-3.458 4.597zM66.283 4.003h.115C68.012 1.563 70.433.201 73.43.201c1.153 0 2.306.284 3.343.681l-.98 7.377c-.98-.68-2.132-1.021-3.343-1.021-5.59 0-6.167 4.88-6.167 9.192v12.541h-8.07V1.11h8.07v2.894z" transform="translate(-70 -50) translate(70 50)"/>
                <path fill="#040101" d="M83.802 13.903L79.723 13.857 78.508 10.022 77.202 13.827 73.124 13.78 76.396 16.179 75.091 19.983 78.418 17.661 81.689 20.058 80.474 16.225z" transform="translate(-70 -50) translate(70 50)"/>
                <path fill="#787A79" d="M89.5 2.277c-1.351 0-2.378 2.476-2.378 4.152 0 1.038.392 1.278.96 1.278 1.648 0 2.73-2.848 2.73-3.886 0-1.065-.568-1.544-1.311-1.544zm.744 4.099c-.31.546-1.122 1.837-2.595 1.837-1.176 0-1.744-.799-1.744-1.957 0-2.595 2.176-4.298 3.555-4.298 1.203 0 1.487.945 1.595 1.344 1.122-1.011 1.298-1.238 1.487-1.238.094 0 .162.067.162.174 0 .2-.46.918-.649 1.796-.473 2.249-.594 2.608-.594 3.007 0 .253.175.4.419.4.392 0 .635-.306.892-1.052.175-.505.202-.598.297-.598.068 0 .108.04.108.133 0 .2-.419 2.289-1.797 2.289-.785 0-1.136-.4-1.136-1.132 0-.213 0-.385.027-.678l-.027-.027zM98.64 3.874c-.609 0-.717-.425-.798-.905-.08-.492-.202-.771-1.013-.771-.77 0-1.284.492-1.284 1.038 0 1.41 3.379.958 3.379 2.98 0 .959-.798 1.997-2.825 1.997-1.528 0-2.352-.666-2.352-1.517 0-.506.216-.826.635-.826.473 0 .595.453.649.985.081.692.216 1.118 1.176 1.118 1.027 0 1.69-.532 1.69-1.264 0-1.318-3.38-.985-3.38-2.808 0-1.224 1.203-1.943 2.366-1.943 1.622 0 2.325.732 2.325 1.278 0 .372-.176.638-.568.638M103.138 7.44c1.487 0 1.987-1.13 2.203-1.13.054 0 .095.026.095.093 0 .24-1 1.81-2.92 1.81-1.595 0-2.676-.999-2.676-2.715 0-1.823 1.622-3.54 3.77-3.54 1.366 0 2.285.732 2.285 1.77 0 .506-.257.972-.784.972-.392 0-.581-.24-.581-.546 0-.373.148-.732.148-.985 0-.466-.35-.971-1.135-.971-1.446 0-2.487 1.716-2.487 3.207 0 1.21.811 2.036 2.082 2.036M107.668 6.216c0 1.198.5 1.757 1.379 1.757 1.608 0 2.311-2.369 2.311-4.019 0-1.198-.5-1.756-1.379-1.756-1.608 0-2.31 2.368-2.31 4.018m4.906-1.543c0 1.916-1.406 3.54-3.501 3.54-1.568 0-2.623-1.038-2.623-2.715 0-1.916 1.406-3.54 3.501-3.54 1.568 0 2.623 1.038 2.623 2.715M113.29 2.73c1.136-.48 1.893-1.038 2.866-2.529l-.406 1.863h1.474l-.203.666h-1.42c-.715 3.287-.905 3.912-.905 4.178 0 .4.311.64.757.64.743 0 1.325-.72 1.474-.72.054 0 .094.04.094.107 0 .146-.973 1.277-2.257 1.277-.757 0-1.284-.412-1.284-1.05 0-.573.243-1.425.96-4.432h-1.15zM117.728 2.73c1.135-.48 1.892-1.038 2.865-2.529l-.405 1.863h1.473l-.203.666h-1.419c-.716 3.287-.906 3.912-.906 4.178 0 .4.311.64.757.64.744 0 1.325-.72 1.474-.72.054 0 .094.04.094.107 0 .146-.973 1.277-2.257 1.277-.757 0-1.284-.412-1.284-1.05 0-.573.243-1.425.96-4.432h-1.15zM90.798 14.454c-.608 0-.716-.426-.797-.905-.081-.493-.203-.772-1.014-.772-.77 0-1.284.492-1.284 1.038 0 1.41 3.38.958 3.38 2.98 0 .959-.798 1.997-2.826 1.997-1.527 0-2.352-.666-2.352-1.517 0-.506.216-.826.635-.826.473 0 .595.453.65.985.08.692.215 1.118 1.175 1.118 1.027 0 1.69-.532 1.69-1.264 0-1.318-3.38-.985-3.38-2.808 0-1.224 1.204-1.943 2.366-1.943 1.622 0 2.325.732 2.325 1.278 0 .372-.176.639-.568.639M92.111 13.309c1.136-.479 1.893-1.038 2.866-2.528l-.405 1.863h1.473l-.203.665h-1.419c-.717 3.287-.906 3.912-.906 4.179 0 .399.311.638.757.638.744 0 1.325-.718 1.473-.718.054 0 .095.04.095.106 0 .146-.973 1.278-2.257 1.278-.757 0-1.284-.413-1.284-1.051 0-.573.243-1.425.96-4.432h-1.15zM99.996 12.857c-1.352 0-2.38 2.475-2.38 4.151 0 1.038.392 1.278.96 1.278 1.65 0 2.73-2.848 2.73-3.886 0-1.064-.567-1.543-1.31-1.543zm.743 4.098c-.311.546-1.122 1.837-2.596 1.837-1.175 0-1.743-.799-1.743-1.956 0-2.595 2.176-4.299 3.555-4.299 1.203 0 1.487.945 1.595 1.344 1.122-1.011 1.297-1.237 1.487-1.237.094 0 .162.066.162.173 0 .2-.46.918-.649 1.796-.473 2.25-.595 2.608-.595 3.008 0 .252.176.399.42.399.391 0 .635-.306.891-1.051.176-.506.203-.6.298-.6.067 0 .108.04.108.134 0 .2-.419 2.289-1.798 2.289-.784 0-1.135-.4-1.135-1.132 0-.212 0-.385.027-.678l-.027-.027zM106.918 14.32c.31-.585 1.081-1.783 2.338-1.783.446 0 .743.24.743.626 0 .465-.297.705-.743.705-.554 0-.662-.373-1.068-.373-.757 0-1.419 1.584-1.811 3.114l-.54 2.13c-.23-.04-.433-.08-.622-.08-.203 0-.42.053-.581.08 1.013-4.365 1.094-4.858 1.094-5.097 0-.266-.121-.44-.378-.44-.5 0-.798.626-.987 1.145-.149.413-.162.506-.257.506-.054 0-.094-.04-.094-.107 0-.2.405-2.209 1.852-2.209.621 0 1.08.4 1.08 1.158 0 .213-.013.439-.053.625h.027zM88.811 25.408c.311-.586 1.082-1.783 2.339-1.783.446 0 .743.24.743.625 0 .466-.297.705-.743.705-.555 0-.663-.372-1.068-.372-.757 0-1.42 1.583-1.812 3.114l-.54 2.129c-.23-.04-.433-.08-.622-.08-.203 0-.419.054-.581.08 1.014-4.365 1.095-4.858 1.095-5.097 0-.266-.122-.439-.379-.439-.5 0-.797.626-.986 1.144-.15.413-.163.506-.257.506-.055 0-.095-.04-.095-.107 0-.199.405-2.208 1.852-2.208.622 0 1.081.399 1.081 1.157 0 .213-.013.44-.054.626h.027zM92.906 26.832c.987-.186 2.379-.426 2.893-1.025.297-.346.405-.772.405-1.118 0-.585-.31-.825-.77-.825-.933 0-2.38.839-2.528 2.968m2.568-3.207c1.028 0 1.757.439 1.757 1.25 0 .573-.446 1.185-1.81 1.637-.528.173-1.501.4-2.515.586-.027 1.078.676 2.01 2.082 2.01.54 0 1.027-.24 1.324-.453.541-.386.649-.546.73-.546.054 0 .095.04.095.107 0 .173-1.095 1.663-2.92 1.663-1.554 0-2.528-1.197-2.528-2.568 0-2.449 2.434-3.686 3.785-3.686M103.574 26.486c0 .572.15 1.011.352 1.317.77-.852 1.31-1.863 1.31-2.714 0-.426-.188-.64-.553-.64-.609 0-1.109.945-1.109 2.037m3.92-2.755c.717 0 1.15.852 1.15 1.677 0 2.196-1.65 4.471-3.637 4.471-.77 0-1.365-.426-1.69-.985-.702.56-1.419.985-2.243.985-.92 0-1.65-.665-1.65-1.903 0-1.051.514-1.663 1.515-3.127-.798-.067-1.325-.612-1.893-.612-.54 0-.824.399-.824.772 0 .24.108.359.297.359.135 0 .27-.027.406-.027.31 0 .567.213.567.586 0 .399-.27.665-.662.665-.595 0-1.014-.333-1.014-1.184 0-.918.608-1.783 1.933-1.783.527 0 1.379.186 1.798.186.27 0 .446-.08.554-.08.04 0 .081.027.081.08 0 .173-1.73 1.796-1.73 3.26 0 1.304.554 1.93 1.541 1.93.5 0 .933-.24 1.19-.48-.109-.292-.176-.798-.176-1.21 0-1.823 1.013-3.686 2.095-3.686.594 0 .838.425.838 1.078 0 .665-.514 1.943-1.811 3.38.378.439.824.785 1.635.785 1.906 0 2.393-2.156 2.393-2.515 0-1.132-1.406-1.025-1.406-1.903 0-.4.324-.72.743-.72M112.802 23.944c-1.351 0-2.378 2.475-2.378 4.152 0 1.038.391 1.278.96 1.278 1.648 0 2.73-2.848 2.73-3.886 0-1.065-.568-1.544-1.312-1.544zm.744 4.098c-.311.546-1.122 1.837-2.595 1.837-1.176 0-1.744-.798-1.744-1.956 0-2.595 2.176-4.298 3.555-4.298 1.203 0 1.487.944 1.595 1.344 1.122-1.012 1.297-1.238 1.487-1.238.094 0 .162.067.162.173 0 .2-.46.918-.649 1.797-.473 2.249-.595 2.608-.595 3.007 0 .253.176.4.42.4.391 0 .635-.307.891-1.052.176-.506.203-.599.298-.599.067 0 .108.04.108.133 0 .2-.419 2.29-1.798 2.29-.784 0-1.135-.4-1.135-1.132 0-.213 0-.386.027-.679l-.027-.027zM119.725 25.408c.311-.586 1.082-1.783 2.339-1.783.446 0 .743.24.743.625 0 .466-.297.705-.743.705-.555 0-.663-.372-1.068-.372-.757 0-1.42 1.583-1.812 3.114l-.54 2.129c-.23-.04-.433-.08-.622-.08-.203 0-.419.054-.581.08 1.014-4.365 1.095-4.858 1.095-5.097 0-.266-.122-.439-.379-.439-.5 0-.797.626-.986 1.144-.15.413-.163.506-.257.506-.055 0-.095-.04-.095-.107 0-.199.405-2.208 1.852-2.208.622 0 1.081.399 1.081 1.157 0 .213-.013.44-.054.626h.027zM126.106 23.944c-1.352 0-2.38 2.582-2.38 4.098 0 .932.433 1.332 1.082 1.332 1.487 0 2.609-2.675 2.609-3.846 0-.68-.284-1.584-1.311-1.584zm.892 3.86c-.73 1.317-1.636 2.075-2.704 2.075-1.135 0-1.784-.798-1.784-2.13 0-2.035 1.865-4.124 3.569-4.124 1.027 0 1.365.678 1.554 1.264h.027c.636-2.888.703-3.154.703-3.5 0-.666-.865-.52-.865-.745 0-.24.608-.147 2.46-.586-1.852 7.984-1.96 8.384-1.96 8.73 0 .253.122.426.419.426.46 0 .757-.466.96-1.025.162-.44.162-.572.27-.572.081 0 .108.026.108.12 0 .146-.419 2.142-1.825 2.142-.716 0-1.04-.466-1.04-1.09 0-.294.054-.627.135-.96l-.027-.026zM135.327 25.541c-.608 0-.716-.426-.797-.905-.081-.492-.203-.772-1.014-.772-.77 0-1.284.492-1.284 1.038 0 1.41 3.38.958 3.38 2.981 0 .958-.798 1.996-2.826 1.996-1.527 0-2.352-.665-2.352-1.517 0-.506.217-.825.636-.825.473 0 .595.452.649.985.08.692.216 1.117 1.176 1.117 1.027 0 1.69-.532 1.69-1.264 0-1.317-3.38-.984-3.38-2.807 0-1.225 1.203-1.943 2.365-1.943 1.622 0 2.325.731 2.325 1.277 0 .373-.175.639-.568.639" transform="translate(-70 -50) translate(70 50)"/>
            </g>
        </g>
    </g>
</svg>
