<svg xmlns="http://www.w3.org/2000/svg" xmlns:xlink="http://www.w3.org/1999/xlink" width="60px" height="60px" >
    <defs>
        <path id="1x32rbnvwa" d="M0 0L16.44 0 16.44 25.325 0 25.325z"/>
        <path id="kkst6n87vc" d="M0 0L25.324 0 25.324 16.441 0 16.441z"/>
        <path id="baesgpotfe" d="M0 0L2.922 0 2.922 1285.51 0 1285.51z"/>
    </defs>
    <g fill="none" fill-rule="evenodd">
        <g>
            <g>
                <g transform="translate(-48.000000, -190.000000) translate(48.000000, 190.000000) translate(0.000000, 28.209104)">
                    <mask id="727ogl9ltb" fill="#fff">
                        <use xlink:href="#1x32rbnvwa"/>
                    </mask>
                    <path fill="#FFF1B6" d="M5.61.293C4.366 2.516 3.269 4.8 2.524 7.18c-.744 2.373-1.14 4.843-.95 7.265.18 2.412.946 4.778 2.386 6.7.714.96 1.624 1.775 2.658 2.374 1.033.592 2.216.954 3.415.93 1.195.003 2.391-.395 3.316-1.132.926-.75 1.579-1.845 1.781-2.993.229-1.148.003-2.312-.572-3.201-.558-.9-1.519-1.543-2.523-2.005-.487-.194-1.019-.294-1.57-.217-.544.085-1.092.324-1.532.705-.463.383-.754.833-.834 1.402-.088.553.025 1.139.256 1.606.115.231.258.44.416.586.153.14.337.244.529.315.386.144.832.13 1.133-.017.288-.122.49-.447.403-.528-.009-.007-.017-.017-.032-.01-.018.02-.029.028-.043.03-.024.006-.052.004-.066.054-.012.044-.014.17.125.36.131.193.458.366.66.393-.964-.076-1.685-.921-1.608-1.886.075-.966.92-1.685 1.885-1.61.523.049 1.158.366 1.505.795.36.424.496.85.557 1.204.057.36.046.682-.01 1.006-.029.16-.072.325-.133.499-.06.161-.127.299-.207.436-.655 1.08-1.658 1.5-2.613 1.604-.96.085-1.848-.206-2.546-.736-.35-.264-.645-.6-.859-.983-.21-.377-.326-.762-.387-1.143-.113-.762-.032-1.494.178-2.183.108-.346.26-.679.46-.989.218-.313.445-.565.706-.799.514-.47 1.12-.855 1.81-1.091.692-.236 1.477-.288 2.215-.118.733.185 1.355.477 1.961.909.585.438 1.105 1.001 1.455 1.662.729 1.326.727 2.902.303 4.215-.446 1.324-1.252 2.479-2.312 3.335-1.067.876-2.424 1.322-3.778 1.392-1.359.066-2.73-.229-3.952-.831s-2.31-1.462-3.188-2.498C1.12 19.932.196 17.22.028 14.553c-.161-2.686.367-5.35 1.329-7.784C2.3 4.318 3.695 2.092 5.287.075c.067-.085.189-.1.275-.034.075.061.094.17.048.252" mask="url(#727ogl9ltb)"/>
                </g>
                <g transform="translate(-48.000000, -190.000000) translate(48.000000, 190.000000) translate(28.208966, 0.000000)">
                    <mask id="r31j4fkbrd" fill="#fff">
                        <use xlink:href="#kkst6n87vc"/>
                    </mask>
                    <path fill="#FFF1B6" d="M.073 5.287c2.02-1.593 4.244-2.985 6.696-3.93C9.203.395 11.866-.133 14.552.03c2.669.168 5.38 1.09 7.435 2.894 1.036.877 1.895 1.967 2.497 3.187.602 1.223.898 2.594.83 3.953-.07 1.353-.514 2.71-1.391 3.777-.855 1.062-2.01 1.866-3.333 2.31-1.314.427-2.892.43-4.217-.301-.66-.35-1.223-.87-1.661-1.454-.433-.606-.724-1.228-.91-1.961-.168-.739-.118-1.523.119-2.214.237-.692.622-1.298 1.09-1.811.236-.261.486-.489.8-.707.31-.201.644-.352.989-.458.688-.212 1.421-.294 2.183-.18.38.061.766.179 1.142.387.384.214.72.51.985.86.529.698.819 1.586.734 2.545-.105.956-.523 1.959-1.604 2.615-.136.078-.275.146-.436.204-.174.062-.338.106-.5.134-.323.056-.644.068-1.005.01-.353-.06-.78-.197-1.204-.557-.427-.345-.745-.982-.794-1.504-.077-.965.645-1.81 1.61-1.886.965-.077 1.81.644 1.885 1.61-.025-.203-.199-.53-.393-.66-.19-.14-.317-.138-.359-.127-.05.015-.048.042-.054.066-.003.015-.01.025-.03.044-.007.014.002.022.009.032.082.086.407-.115.529-.404.146-.3.161-.746.016-1.133-.072-.193-.173-.375-.314-.529-.147-.157-.353-.3-.586-.415-.468-.23-1.053-.343-1.606-.257-.57.08-1.02.372-1.402.834-.382.44-.621.988-.705 1.533-.077.55.023 1.083.217 1.57.462 1.004 1.104 1.964 2.003 2.523.891.574 2.055.8 3.203.571 1.148-.202 2.244-.856 2.991-1.78.739-.924 1.137-2.122 1.134-3.317.023-1.198-.34-2.381-.93-3.416-.6-1.03-1.414-1.941-2.374-2.657-1.922-1.44-4.288-2.206-6.7-2.384-2.423-.194-4.894.206-7.266.948C4.8 3.27 2.516 4.366.293 5.61c-.094.054-.213.022-.267-.071-.05-.085-.025-.192.047-.252" mask="url(#r31j4fkbrd)"/>
                </g>
                <path fill="#FFF1B6" d="M17.706 7.955c.124-1.011.405-2.042.9-2.985.493-.945 1.185-1.787 1.987-2.45.798-.672 1.695-1.173 2.615-1.55.46-.188.929-.344 1.406-.473.24-.062.48-.12.725-.168.258-.049.465-.09.794-.124h.199c.786 0 1.425.638 1.425 1.426 0 .324-.109.625-.293.866-1.05 1.376-1.988 2.858-2.721 4.438-.735 1.577-1.308 3.236-1.624 4.947-.32 1.707-.411 3.46-.221 5.192.205 1.727.69 3.434 1.505 4.982.21.434.029.957-.405 1.169-.224.108-.473.112-.688.031l-.035-.012c-1.54-.583-3.153-.914-4.77-.946-1.617-.035-3.233.228-4.8.698-3.146.947-6.089 2.657-8.982 4.48-.669.422-1.554.22-1.977-.449-.084-.133-.142-.273-.178-.419l-.004-.016c-.051-.214-.067-.313-.09-.459-.02-.135-.037-.266-.049-.397-.023-.26-.035-.519-.031-.777.004-.517.063-1.033.173-1.541.218-1.02.672-2.004 1.302-2.836.633-.83 1.417-1.504 2.25-2.019.836-.523 1.714-.905 2.597-1.195.766-.253 1.592.164 1.846.93.251.768-.164 1.593-.932 1.846l-.001.002c-.71.231-1.375.526-1.958.894-.59.364-1.088.805-1.472 1.306-.378.505-.643 1.074-.777 1.692-.067.31-.104.629-.107.95-.002.16.007.32.019.475l.028.227.027.157-2.158-.884c1.538-.854 3.107-1.687 4.744-2.424 1.635-.734 3.341-1.377 5.127-1.803 1.784-.426 3.652-.628 5.508-.48 1.853.14 3.667.627 5.335 1.368l-1.126 1.188c-.757-1.761-1.355-3.595-1.652-5.497-.315-1.896-.338-3.842-.095-5.752.246-1.908.725-3.785 1.41-5.581.693-1.794 1.546-3.528 2.585-5.158l1.33 2.292c-.101.01-.32.045-.489.08-.18.034-.36.079-.54.126-.36.097-.715.215-1.058.355-.68.28-1.315.639-1.842 1.085-1.076.881-1.692 2.106-1.86 3.529v.01c-.093.801-.82 1.375-1.62 1.281-.802-.094-1.376-.819-1.282-1.62v-.007z" transform="translate(-48.000000, -190.000000) translate(48.000000, 190.000000)"/>
                <path fill="#FFF1B6" d="M14.12 18.88l9.205 2.466-.872.922-3.031-9.107.1.222c-1.042-1.57-2.832-2.515-4.77-3.094-1.955-.584-4.06-.85-6.213-1.105l1.681-1.56c.09 2.247.176 4.342.8 6.283.307.967.737 1.886 1.296 2.739.127.22.288.42.44.627.148.21.307.412.481.602.364.44.624.671.883 1.005zm-.893 1.732c-.278-.216-.556-.444-.829-.68-.297-.248-.456-.436-.682-.654-.217-.207-.422-.429-.614-.662-.199-.229-.4-.454-.575-.704-.737-.963-1.345-2.043-1.797-3.175-.918-2.275-1.172-4.691-1.422-6.88-.09-.779.471-1.484 1.25-1.573.11-.013.219-.012.325-.001l.107.014c2.15.421 4.376.859 6.555 1.691 1.086.418 2.165.944 3.155 1.658.985.712 1.874 1.634 2.486 2.725l.03.053c.03.054.053.113.07.17l2.565 9.248c.125.377-.078.786-.455.91-.129.043-.26.048-.38.022l-.037-.008-9.752-2.154zM498.54 " transform="translate(-48.000000, -190.000000) translate(48.000000, 190.000000)"/>
            </g>
        </g>
    </g>
</svg>
