<svg xmlns="http://www.w3.org/2000/svg" xmlns:xlink="http://www.w3.org/1999/xlink" width="344" height="622" viewBox="0 0 344 622">
    <defs>
        <path id="z51aau67fa" d="M0 0L9.864 0 9.864 15.195 0 15.195z"/>
        <path id="81r3nixauc" d="M0 0L15.195 0 15.195 9.864 0 9.864z"/>
        <path id="obr9jhc56e" d="M0 0L1.753 0 1.753 500 0 500z"/>
        <path id="gwkihytnqg" d="M0 0L9.864 0 9.864 15.195 0 15.195z"/>
        <path id="tgrsy5qnvi" d="M0 0L15.195 0 15.195 9.864 0 9.864z"/>
        <path id="f2ttgv3hik" d="M0 0L1.753 0 1.753 500 0 500z"/>
        <path id="oclks7g08m" d="M0 0L9.864 0 9.864 15.195 0 15.195z"/>
        <path id="xwpiq1q4lo" d="M0 0L15.195 0 15.195 9.864 0 9.864z"/>
        <path id="vjoqjs1pgq" d="M0 0L1.753 0 1.753 500 0 500z"/>
        <path id="lcm43tjwjs" d="M0 0L9.864 0 9.864 15.195 0 15.195z"/>
        <path id="7eyadus2ju" d="M0 0L15.195 0 15.195 9.864 0 9.864z"/>
        <path id="pvd4690r2w" d="M0 0L1.753 0 1.753 500 0 500z"/>
    </defs>
    <g fill="none" fill-rule="evenodd">
        <g>
            <g>
                <g>
                    <g transform="translate(-16.000000, -117.000000) translate(16.000000, 117.000000) translate(0.000000, 16.925463)">
                        <mask id="wsvlve7atb" fill="#fff">
                            <use xlink:href="#z51aau67fa"/>
                        </mask>
                        <path fill="#FFF1B6" d="M3.366.176C2.619 1.509 1.96 2.88 1.514 4.308 1.068 5.732.83 7.214.944 8.667c.108 1.447.568 2.867 1.432 4.02.428.577.975 1.065 1.595 1.424.62.355 1.33.573 2.049.559.717.001 1.434-.238 1.99-.68.555-.45.947-1.107 1.068-1.796.137-.688.002-1.387-.343-1.92-.335-.54-.911-.926-1.514-1.203-.292-.117-.611-.176-.942-.13-.327.05-.655.194-.919.423-.278.23-.452.5-.5.84-.053.332.014.684.153.964.07.14.155.264.25.352.092.084.202.146.317.189.232.087.5.078.68-.01.173-.073.293-.269.242-.317-.006-.004-.01-.01-.02-.006-.01.012-.017.017-.026.018-.014.004-.03.002-.04.032-.006.027-.007.102.076.216.079.116.275.22.396.236-.578-.045-1.011-.552-.965-1.131.045-.58.553-1.012 1.131-.966.314.029.695.22.903.477.216.254.298.51.334.722.034.216.028.41-.006.604-.017.096-.043.195-.08.299-.035.097-.076.18-.123.262-.393.648-.995.9-1.568.962-.576.05-1.11-.124-1.528-.441-.21-.16-.387-.36-.515-.59-.126-.226-.196-.457-.233-.686-.067-.457-.019-.896.107-1.31.065-.207.156-.407.276-.593.13-.188.267-.34.424-.48.308-.282.672-.513 1.086-.655.415-.141.886-.172 1.329-.07.44.11.813.286 1.177.545.35.263.663.601.872.997.438.796.437 1.741.182 2.53-.268.794-.751 1.487-1.387 2-.64.526-1.455.793-2.267.836-.815.04-1.638-.138-2.371-.499-.733-.361-1.386-.877-1.913-1.499C.671 11.96.118 10.332.017 8.732c-.097-1.612.22-3.21.797-4.67C1.38 2.59 2.217 1.254 3.172.044c.04-.051.114-.06.165-.02.045.036.057.101.029.15" mask="url(#wsvlve7atb)"/>
                    </g>
                    <g transform="translate(-16.000000, -117.000000) translate(16.000000, 117.000000) translate(16.925379, 0.000000)">
                        <mask id="jzbsc28zud" fill="#fff">
                            <use xlink:href="#81r3nixauc"/>
                        </mask>
                        <path fill="#FFF1B6" d="M.044 3.172C1.256 2.216 2.59 1.382 4.061.814 5.522.237 7.12-.08 8.731.017c1.601.101 3.228.654 4.461 1.737.622.526 1.137 1.18 1.498 1.912.362.734.54 1.556.499 2.372-.042.812-.309 1.626-.835 2.266-.513.637-1.206 1.12-2 1.386-.789.256-1.735.258-2.53-.18-.397-.21-.734-.522-.997-.873-.26-.364-.434-.737-.545-1.177-.102-.443-.072-.914.07-1.328.143-.415.374-.779.655-1.087.14-.156.291-.293.48-.424.186-.12.386-.211.593-.275.413-.127.853-.176 1.31-.107.228.036.46.107.685.231.23.129.432.307.59.516.318.42.492.952.441 1.528-.062.573-.313 1.175-.962 1.569-.082.047-.165.087-.262.122-.104.037-.202.063-.3.08-.194.034-.386.041-.603.006-.211-.036-.467-.118-.722-.334-.256-.207-.447-.589-.476-.902-.046-.58.386-1.087.965-1.132.58-.046 1.086.387 1.131.966-.015-.122-.119-.318-.235-.396-.114-.084-.19-.082-.216-.076-.03.009-.028.025-.032.04-.002.008-.006.015-.018.026-.004.009.001.013.005.019.05.052.245-.07.318-.242.087-.18.097-.448.01-.68-.044-.116-.105-.225-.189-.317-.088-.095-.212-.18-.352-.25-.28-.138-.632-.205-.963-.154-.342.049-.612.223-.841.5-.23.265-.373.594-.423.92-.046.331.013.65.13.943.277.602.662 1.178 1.202 1.513.534.345 1.233.48 1.921.343.69-.121 1.347-.513 1.795-1.068.443-.555.682-1.273.68-1.99.014-.72-.203-1.429-.557-2.05-.36-.618-.85-1.165-1.425-1.594-1.153-.864-2.573-1.323-4.02-1.43-1.454-.117-2.936.123-4.36.569C2.881 1.962 1.51 2.62.176 3.366c-.057.033-.128.013-.16-.043-.03-.05-.016-.115.028-.15" mask="url(#jzbsc28zud)"/>
                    </g>
                    <path fill="#FFF1B6" d="M10.623 4.773c.075-.607.243-1.225.541-1.791.295-.567.71-1.072 1.192-1.47.479-.403 1.017-.704 1.569-.93.276-.113.557-.207.844-.284.143-.037.287-.072.435-.1.154-.03.278-.054.476-.075h.12c.47 0 .854.383.854.856 0 .194-.065.374-.175.519-.63.826-1.194 1.715-1.633 2.663-.441.946-.785 1.942-.975 2.968-.192 1.024-.246 2.076-.132 3.116.123 1.036.413 2.06.903 2.989.126.26.017.574-.243.7-.135.066-.284.068-.413.02l-.02-.007c-.925-.35-1.893-.549-2.863-.568-.97-.021-1.94.137-2.88.418-1.887.569-3.653 1.595-5.39 2.689-.4.253-.932.132-1.186-.27-.05-.08-.085-.164-.106-.251l-.002-.01c-.031-.128-.04-.188-.055-.275-.012-.081-.022-.16-.029-.238-.014-.157-.021-.312-.019-.466.003-.31.038-.62.104-.925.131-.612.404-1.202.781-1.702.38-.497.85-.902 1.35-1.211.502-.314 1.029-.543 1.559-.717.46-.152.955.098 1.107.558.15.46-.098.956-.559 1.108-.426.14-.826.316-1.176.537-.353.218-.652.483-.882.784-.228.303-.386.644-.467 1.015-.04.186-.062.377-.064.57-.001.095.004.191.011.285l.017.136.017.094-1.295-.53c.922-.513 1.864-1.012 2.846-1.454.981-.441 2.005-.827 3.076-1.083 1.07-.255 2.192-.376 3.305-.288 1.112.084 2.2.377 3.2.821l-.675.713c-.454-1.057-.813-2.157-.99-3.298-.19-1.138-.204-2.305-.058-3.451.148-1.145.435-2.271.847-3.349.415-1.076.927-2.116 1.55-3.095l.799 1.376c-.061.006-.193.027-.294.047-.108.02-.216.048-.325.076-.216.058-.428.129-.634.213-.408.168-.79.384-1.105.651-.646.529-1.016 1.264-1.116 2.118v.005c-.056.481-.492.826-.972.77-.481-.057-.826-.492-.77-.973v-.004z" transform="translate(-16.000000, -117.000000) translate(16.000000, 117.000000)"/>
                    <path fill="#FFF1B6" d="M8.472 11.328l5.523 1.48-.523.553-1.819-5.465.06.134c-.625-.942-1.7-1.51-2.862-1.856-1.173-.351-2.436-.51-3.728-.663l1.01-.937c.052 1.349.105 2.606.479 3.77.184.58.442 1.132.778 1.644.076.131.172.252.263.376.09.125.185.247.29.361.218.264.373.403.529.603zm-.536 1.039c-.167-.13-.333-.266-.497-.407-.179-.15-.274-.262-.41-.393-.13-.124-.253-.257-.368-.397-.12-.138-.24-.273-.345-.423-.442-.578-.807-1.225-1.078-1.905-.55-1.365-.703-2.814-.853-4.128-.054-.467.282-.89.75-.944.066-.008.131-.007.195 0l.064.008c1.29.253 2.625.516 3.933 1.015.652.25 1.299.566 1.893.995.591.427 1.125.98 1.491 1.634l.019.032c.018.033.032.068.042.102l1.538 5.55c.076.226-.046.47-.273.546-.077.025-.155.028-.228.012l-.022-.004-5.851-1.293zM299.124 4.645H31.996c-.483 0-.876-.392-.876-.876 0-.485.393-.877.876-.877h267.128c.484 0 .876.392.876.877 0 .484-.392.876-.876.876" transform="translate(-16.000000, -117.000000) translate(16.000000, 117.000000)"/>
                    <g transform="translate(-16.000000, -117.000000) translate(16.000000, 117.000000) translate(2.394629, 31.618038)">
                        <mask id="h55akly7tf" fill="#fff">
                            <use xlink:href="#obr9jhc56e"/>
                        </mask>
                        <path fill="#FFF1B6" d="M.876 500c-.484 0-.876-.37-.876-.825V.825C0 .369.392 0 .876 0s.877.37.877.825v498.35c0 .455-.393.825-.877.825" mask="url(#h55akly7tf)"/>
                    </g>
                </g>
                <g>
                    <g transform="translate(-16.000000, -117.000000) translate(16.000000, 117.000000) translate(194.000000, 265.809019) scale(-1, 1) translate(-194.000000, -265.809019) translate(44.000000, 0.000000) translate(0.000000, 16.925463)">
                        <mask id="cmrk7ngs4h" fill="#fff">
                            <use xlink:href="#gwkihytnqg"/>
                        </mask>
                        <path fill="#FFF1B6" d="M3.366.176C2.619 1.509 1.96 2.88 1.514 4.308 1.068 5.732.83 7.214.944 8.667c.108 1.447.568 2.867 1.432 4.02.428.577.975 1.065 1.595 1.424.62.355 1.33.573 2.049.559.717.001 1.434-.238 1.99-.68.555-.45.947-1.107 1.068-1.796.137-.688.002-1.387-.343-1.92-.335-.54-.911-.926-1.514-1.203-.292-.117-.611-.176-.942-.13-.327.05-.655.194-.919.423-.278.23-.452.5-.5.84-.053.332.014.684.153.964.07.14.155.264.25.352.092.084.202.146.317.189.232.087.5.078.68-.01.173-.073.293-.269.242-.317-.006-.004-.01-.01-.02-.006-.01.012-.017.017-.026.018-.014.004-.03.002-.04.032-.006.027-.007.102.076.216.079.116.275.22.396.236-.578-.045-1.011-.552-.965-1.131.045-.58.553-1.012 1.131-.966.314.029.695.22.903.477.216.254.298.51.334.722.034.216.028.41-.006.604-.017.096-.043.195-.08.299-.035.097-.076.18-.123.262-.393.648-.995.9-1.568.962-.576.05-1.11-.124-1.528-.441-.21-.16-.387-.36-.515-.59-.126-.226-.196-.457-.233-.686-.067-.457-.019-.896.107-1.31.065-.207.156-.407.276-.593.13-.188.267-.34.424-.48.308-.282.672-.513 1.086-.655.415-.141.886-.172 1.329-.07.44.11.813.286 1.177.545.35.263.663.601.872.997.438.796.437 1.741.182 2.53-.268.794-.751 1.487-1.387 2-.64.526-1.455.793-2.267.836-.815.04-1.638-.138-2.371-.499-.733-.361-1.386-.877-1.913-1.499C.671 11.96.118 10.332.017 8.732c-.097-1.612.22-3.21.797-4.67C1.38 2.59 2.217 1.254 3.172.044c.04-.051.114-.06.165-.02.045.036.057.101.029.15" mask="url(#cmrk7ngs4h)"/>
                    </g>
                    <g transform="translate(-16.000000, -117.000000) translate(16.000000, 117.000000) translate(194.000000, 265.809019) scale(-1, 1) translate(-194.000000, -265.809019) translate(44.000000, 0.000000) translate(16.925379, 0.000000)">
                        <mask id="qdptvatzlj" fill="#fff">
                            <use xlink:href="#tgrsy5qnvi"/>
                        </mask>
                        <path fill="#FFF1B6" d="M.044 3.172C1.256 2.216 2.59 1.382 4.061.814 5.522.237 7.12-.08 8.731.017c1.601.101 3.228.654 4.461 1.737.622.526 1.137 1.18 1.498 1.912.362.734.54 1.556.499 2.372-.042.812-.309 1.626-.835 2.266-.513.637-1.206 1.12-2 1.386-.789.256-1.735.258-2.53-.18-.397-.21-.734-.522-.997-.873-.26-.364-.434-.737-.545-1.177-.102-.443-.072-.914.07-1.328.143-.415.374-.779.655-1.087.14-.156.291-.293.48-.424.186-.12.386-.211.593-.275.413-.127.853-.176 1.31-.107.228.036.46.107.685.231.23.129.432.307.59.516.318.42.492.952.441 1.528-.062.573-.313 1.175-.962 1.569-.082.047-.165.087-.262.122-.104.037-.202.063-.3.08-.194.034-.386.041-.603.006-.211-.036-.467-.118-.722-.334-.256-.207-.447-.589-.476-.902-.046-.58.386-1.087.965-1.132.58-.046 1.086.387 1.131.966-.015-.122-.119-.318-.235-.396-.114-.084-.19-.082-.216-.076-.03.009-.028.025-.032.04-.002.008-.006.015-.018.026-.004.009.001.013.005.019.05.052.245-.07.318-.242.087-.18.097-.448.01-.68-.044-.116-.105-.225-.189-.317-.088-.095-.212-.18-.352-.25-.28-.138-.632-.205-.963-.154-.342.049-.612.223-.841.5-.23.265-.373.594-.423.92-.046.331.013.65.13.943.277.602.662 1.178 1.202 1.513.534.345 1.233.48 1.921.343.69-.121 1.347-.513 1.795-1.068.443-.555.682-1.273.68-1.99.014-.72-.203-1.429-.557-2.05-.36-.618-.85-1.165-1.425-1.594-1.153-.864-2.573-1.323-4.02-1.43-1.454-.117-2.936.123-4.36.569C2.881 1.962 1.51 2.62.176 3.366c-.057.033-.128.013-.16-.043-.03-.05-.016-.115.028-.15" mask="url(#qdptvatzlj)"/>
                    </g>
                    <path fill="#FFF1B6" d="M10.623 4.773c.075-.607.243-1.225.541-1.791.295-.567.71-1.072 1.192-1.47.479-.403 1.017-.704 1.569-.93.276-.113.557-.207.844-.284.143-.037.287-.072.435-.1.154-.03.278-.054.476-.075h.12c.47 0 .854.383.854.856 0 .194-.065.374-.175.519-.63.826-1.194 1.715-1.633 2.663-.441.946-.785 1.942-.975 2.968-.192 1.024-.246 2.076-.132 3.116.123 1.036.413 2.06.903 2.989.126.26.017.574-.243.7-.135.066-.284.068-.413.02l-.02-.007c-.925-.35-1.893-.549-2.863-.568-.97-.021-1.94.137-2.88.418-1.887.569-3.653 1.595-5.39 2.689-.4.253-.932.132-1.186-.27-.05-.08-.085-.164-.106-.251l-.002-.01c-.031-.128-.04-.188-.055-.275-.012-.081-.022-.16-.029-.238-.014-.157-.021-.312-.019-.466.003-.31.038-.62.104-.925.131-.612.404-1.202.781-1.702.38-.497.85-.902 1.35-1.211.502-.314 1.029-.543 1.559-.717.46-.152.955.098 1.107.558.15.46-.098.956-.559 1.108-.426.14-.826.316-1.176.537-.353.218-.652.483-.882.784-.228.303-.386.644-.467 1.015-.04.186-.062.377-.064.57-.001.095.004.191.011.285l.017.136.017.094-1.295-.53c.922-.513 1.864-1.012 2.846-1.454.981-.441 2.005-.827 3.076-1.083 1.07-.255 2.192-.376 3.305-.288 1.112.084 2.2.377 3.2.821l-.675.713c-.454-1.057-.813-2.157-.99-3.298-.19-1.138-.204-2.305-.058-3.451.148-1.145.435-2.271.847-3.349.415-1.076.927-2.116 1.55-3.095l.799 1.376c-.061.006-.193.027-.294.047-.108.02-.216.048-.325.076-.216.058-.428.129-.634.213-.408.168-.79.384-1.105.651-.646.529-1.016 1.264-1.116 2.118v.005c-.056.481-.492.826-.972.77-.481-.057-.826-.492-.77-.973v-.004z" transform="translate(-16.000000, -117.000000) translate(16.000000, 117.000000) translate(194.000000, 265.809019) scale(-1, 1) translate(-194.000000, -265.809019) translate(44.000000, 0.000000)"/>
                    <path fill="#FFF1B6" d="M8.472 11.328l5.523 1.48-.523.553-1.819-5.465.06.134c-.625-.942-1.7-1.51-2.862-1.856-1.173-.351-2.436-.51-3.728-.663l1.01-.937c.052 1.349.105 2.606.479 3.77.184.58.442 1.132.778 1.644.076.131.172.252.263.376.09.125.185.247.29.361.218.264.373.403.529.603zm-.536 1.039c-.167-.13-.333-.266-.497-.407-.179-.15-.274-.262-.41-.393-.13-.124-.253-.257-.368-.397-.12-.138-.24-.273-.345-.423-.442-.578-.807-1.225-1.078-1.905-.55-1.365-.703-2.814-.853-4.128-.054-.467.282-.89.75-.944.066-.008.131-.007.195 0l.064.008c1.29.253 2.625.516 3.933 1.015.652.25 1.299.566 1.893.995.591.427 1.125.98 1.491 1.634l.019.032c.018.033.032.068.042.102l1.538 5.55c.076.226-.046.47-.273.546-.077.025-.155.028-.228.012l-.022-.004-5.851-1.293zM299.124 4.645H31.996c-.483 0-.876-.392-.876-.876 0-.485.393-.877.876-.877h267.128c.484 0 .876.392.876.877 0 .484-.392.876-.876.876" transform="translate(-16.000000, -117.000000) translate(16.000000, 117.000000) translate(194.000000, 265.809019) scale(-1, 1) translate(-194.000000, -265.809019) translate(44.000000, 0.000000)"/>
                    <g transform="translate(-16.000000, -117.000000) translate(16.000000, 117.000000) translate(194.000000, 265.809019) scale(-1, 1) translate(-194.000000, -265.809019) translate(44.000000, 0.000000) translate(2.394629, 31.618038)">
                        <mask id="xab7gakk1l" fill="#fff">
                            <use xlink:href="#f2ttgv3hik"/>
                        </mask>
                        <path fill="#FFF1B6" d="M.876 500c-.484 0-.876-.37-.876-.825V.825C0 .369.392 0 .876 0s.877.37.877.825v498.35c0 .455-.393.825-.877.825" mask="url(#xab7gakk1l)"/>
                    </g>
                </g>
                <g>
                    <g transform="translate(-16.000000, -117.000000) translate(16.000000, 117.000000) translate(150.000000, 355.809019) scale(1, -1) translate(-150.000000, -355.809019) translate(0.000000, 90.000000) translate(0.000000, 16.925463)">
                        <mask id="pz60jz845n" fill="#fff">
                            <use xlink:href="#oclks7g08m"/>
                        </mask>
                        <path fill="#FFF1B6" d="M3.366.176C2.619 1.509 1.96 2.88 1.514 4.308 1.068 5.732.83 7.214.944 8.667c.108 1.447.568 2.867 1.432 4.02.428.577.975 1.065 1.595 1.424.62.355 1.33.573 2.049.559.717.001 1.434-.238 1.99-.68.555-.45.947-1.107 1.068-1.796.137-.688.002-1.387-.343-1.92-.335-.54-.911-.926-1.514-1.203-.292-.117-.611-.176-.942-.13-.327.05-.655.194-.919.423-.278.23-.452.5-.5.84-.053.332.014.684.153.964.07.14.155.264.25.352.092.084.202.146.317.189.232.087.5.078.68-.01.173-.073.293-.269.242-.317-.006-.004-.01-.01-.02-.006-.01.012-.017.017-.026.018-.014.004-.03.002-.04.032-.006.027-.007.102.076.216.079.116.275.22.396.236-.578-.045-1.011-.552-.965-1.131.045-.58.553-1.012 1.131-.966.314.029.695.22.903.477.216.254.298.51.334.722.034.216.028.41-.006.604-.017.096-.043.195-.08.299-.035.097-.076.18-.123.262-.393.648-.995.9-1.568.962-.576.05-1.11-.124-1.528-.441-.21-.16-.387-.36-.515-.59-.126-.226-.196-.457-.233-.686-.067-.457-.019-.896.107-1.31.065-.207.156-.407.276-.593.13-.188.267-.34.424-.48.308-.282.672-.513 1.086-.655.415-.141.886-.172 1.329-.07.44.11.813.286 1.177.545.35.263.663.601.872.997.438.796.437 1.741.182 2.53-.268.794-.751 1.487-1.387 2-.64.526-1.455.793-2.267.836-.815.04-1.638-.138-2.371-.499-.733-.361-1.386-.877-1.913-1.499C.671 11.96.118 10.332.017 8.732c-.097-1.612.22-3.21.797-4.67C1.38 2.59 2.217 1.254 3.172.044c.04-.051.114-.06.165-.02.045.036.057.101.029.15" mask="url(#pz60jz845n)"/>
                    </g>
                    <g transform="translate(-16.000000, -117.000000) translate(16.000000, 117.000000) translate(150.000000, 355.809019) scale(1, -1) translate(-150.000000, -355.809019) translate(0.000000, 90.000000) translate(16.925379, 0.000000)">
                        <mask id="hf9fbqbtlp" fill="#fff">
                            <use xlink:href="#xwpiq1q4lo"/>
                        </mask>
                        <path fill="#FFF1B6" d="M.044 3.172C1.256 2.216 2.59 1.382 4.061.814 5.522.237 7.12-.08 8.731.017c1.601.101 3.228.654 4.461 1.737.622.526 1.137 1.18 1.498 1.912.362.734.54 1.556.499 2.372-.042.812-.309 1.626-.835 2.266-.513.637-1.206 1.12-2 1.386-.789.256-1.735.258-2.53-.18-.397-.21-.734-.522-.997-.873-.26-.364-.434-.737-.545-1.177-.102-.443-.072-.914.07-1.328.143-.415.374-.779.655-1.087.14-.156.291-.293.48-.424.186-.12.386-.211.593-.275.413-.127.853-.176 1.31-.107.228.036.46.107.685.231.23.129.432.307.59.516.318.42.492.952.441 1.528-.062.573-.313 1.175-.962 1.569-.082.047-.165.087-.262.122-.104.037-.202.063-.3.08-.194.034-.386.041-.603.006-.211-.036-.467-.118-.722-.334-.256-.207-.447-.589-.476-.902-.046-.58.386-1.087.965-1.132.58-.046 1.086.387 1.131.966-.015-.122-.119-.318-.235-.396-.114-.084-.19-.082-.216-.076-.03.009-.028.025-.032.04-.002.008-.006.015-.018.026-.004.009.001.013.005.019.05.052.245-.07.318-.242.087-.18.097-.448.01-.68-.044-.116-.105-.225-.189-.317-.088-.095-.212-.18-.352-.25-.28-.138-.632-.205-.963-.154-.342.049-.612.223-.841.5-.23.265-.373.594-.423.92-.046.331.013.65.13.943.277.602.662 1.178 1.202 1.513.534.345 1.233.48 1.921.343.69-.121 1.347-.513 1.795-1.068.443-.555.682-1.273.68-1.99.014-.72-.203-1.429-.557-2.05-.36-.618-.85-1.165-1.425-1.594-1.153-.864-2.573-1.323-4.02-1.43-1.454-.117-2.936.123-4.36.569C2.881 1.962 1.51 2.62.176 3.366c-.057.033-.128.013-.16-.043-.03-.05-.016-.115.028-.15" mask="url(#hf9fbqbtlp)"/>
                    </g>
                    <path fill="#FFF1B6" d="M10.623 4.773c.075-.607.243-1.225.541-1.791.295-.567.71-1.072 1.192-1.47.479-.403 1.017-.704 1.569-.93.276-.113.557-.207.844-.284.143-.037.287-.072.435-.1.154-.03.278-.054.476-.075h.12c.47 0 .854.383.854.856 0 .194-.065.374-.175.519-.63.826-1.194 1.715-1.633 2.663-.441.946-.785 1.942-.975 2.968-.192 1.024-.246 2.076-.132 3.116.123 1.036.413 2.06.903 2.989.126.26.017.574-.243.7-.135.066-.284.068-.413.02l-.02-.007c-.925-.35-1.893-.549-2.863-.568-.97-.021-1.94.137-2.88.418-1.887.569-3.653 1.595-5.39 2.689-.4.253-.932.132-1.186-.27-.05-.08-.085-.164-.106-.251l-.002-.01c-.031-.128-.04-.188-.055-.275-.012-.081-.022-.16-.029-.238-.014-.157-.021-.312-.019-.466.003-.31.038-.62.104-.925.131-.612.404-1.202.781-1.702.38-.497.85-.902 1.35-1.211.502-.314 1.029-.543 1.559-.717.46-.152.955.098 1.107.558.15.46-.098.956-.559 1.108-.426.14-.826.316-1.176.537-.353.218-.652.483-.882.784-.228.303-.386.644-.467 1.015-.04.186-.062.377-.064.57-.001.095.004.191.011.285l.017.136.017.094-1.295-.53c.922-.513 1.864-1.012 2.846-1.454.981-.441 2.005-.827 3.076-1.083 1.07-.255 2.192-.376 3.305-.288 1.112.084 2.2.377 3.2.821l-.675.713c-.454-1.057-.813-2.157-.99-3.298-.19-1.138-.204-2.305-.058-3.451.148-1.145.435-2.271.847-3.349.415-1.076.927-2.116 1.55-3.095l.799 1.376c-.061.006-.193.027-.294.047-.108.02-.216.048-.325.076-.216.058-.428.129-.634.213-.408.168-.79.384-1.105.651-.646.529-1.016 1.264-1.116 2.118v.005c-.056.481-.492.826-.972.77-.481-.057-.826-.492-.77-.973v-.004z" transform="translate(-16.000000, -117.000000) translate(16.000000, 117.000000) translate(150.000000, 355.809019) scale(1, -1) translate(-150.000000, -355.809019) translate(0.000000, 90.000000)"/>
                    <path fill="#FFF1B6" d="M8.472 11.328l5.523 1.48-.523.553-1.819-5.465.06.134c-.625-.942-1.7-1.51-2.862-1.856-1.173-.351-2.436-.51-3.728-.663l1.01-.937c.052 1.349.105 2.606.479 3.77.184.58.442 1.132.778 1.644.076.131.172.252.263.376.09.125.185.247.29.361.218.264.373.403.529.603zm-.536 1.039c-.167-.13-.333-.266-.497-.407-.179-.15-.274-.262-.41-.393-.13-.124-.253-.257-.368-.397-.12-.138-.24-.273-.345-.423-.442-.578-.807-1.225-1.078-1.905-.55-1.365-.703-2.814-.853-4.128-.054-.467.282-.89.75-.944.066-.008.131-.007.195 0l.064.008c1.29.253 2.625.516 3.933 1.015.652.25 1.299.566 1.893.995.591.427 1.125.98 1.491 1.634l.019.032c.018.033.032.068.042.102l1.538 5.55c.076.226-.046.47-.273.546-.077.025-.155.028-.228.012l-.022-.004-5.851-1.293zM299.124 4.645H31.996c-.483 0-.876-.392-.876-.876 0-.485.393-.877.876-.877h267.128c.484 0 .876.392.876.877 0 .484-.392.876-.876.876" transform="translate(-16.000000, -117.000000) translate(16.000000, 117.000000) translate(150.000000, 355.809019) scale(1, -1) translate(-150.000000, -355.809019) translate(0.000000, 90.000000)"/>
                    <g transform="translate(-16.000000, -117.000000) translate(16.000000, 117.000000) translate(150.000000, 355.809019) scale(1, -1) translate(-150.000000, -355.809019) translate(0.000000, 90.000000) translate(2.394629, 31.618038)">
                        <mask id="go486zgc3r" fill="#fff">
                            <use xlink:href="#vjoqjs1pgq"/>
                        </mask>
                        <path fill="#FFF1B6" d="M.876 500c-.484 0-.876-.37-.876-.825V.825C0 .369.392 0 .876 0s.877.37.877.825v498.35c0 .455-.393.825-.877.825" mask="url(#go486zgc3r)"/>
                    </g>
                </g>
                <g>
                    <g transform="translate(-16.000000, -117.000000) translate(16.000000, 117.000000) translate(194.000000, 355.809019) scale(-1, -1) translate(-194.000000, -355.809019) translate(44.000000, 90.000000) translate(0.000000, 16.925463)">
                        <mask id="hqt4afdect" fill="#fff">
                            <use xlink:href="#lcm43tjwjs"/>
                        </mask>
                        <path fill="#FFF1B6" d="M3.366.176C2.619 1.509 1.96 2.88 1.514 4.308 1.068 5.732.83 7.214.944 8.667c.108 1.447.568 2.867 1.432 4.02.428.577.975 1.065 1.595 1.424.62.355 1.33.573 2.049.559.717.001 1.434-.238 1.99-.68.555-.45.947-1.107 1.068-1.796.137-.688.002-1.387-.343-1.92-.335-.54-.911-.926-1.514-1.203-.292-.117-.611-.176-.942-.13-.327.05-.655.194-.919.423-.278.23-.452.5-.5.84-.053.332.014.684.153.964.07.14.155.264.25.352.092.084.202.146.317.189.232.087.5.078.68-.01.173-.073.293-.269.242-.317-.006-.004-.01-.01-.02-.006-.01.012-.017.017-.026.018-.014.004-.03.002-.04.032-.006.027-.007.102.076.216.079.116.275.22.396.236-.578-.045-1.011-.552-.965-1.131.045-.58.553-1.012 1.131-.966.314.029.695.22.903.477.216.254.298.51.334.722.034.216.028.41-.006.604-.017.096-.043.195-.08.299-.035.097-.076.18-.123.262-.393.648-.995.9-1.568.962-.576.05-1.11-.124-1.528-.441-.21-.16-.387-.36-.515-.59-.126-.226-.196-.457-.233-.686-.067-.457-.019-.896.107-1.31.065-.207.156-.407.276-.593.13-.188.267-.34.424-.48.308-.282.672-.513 1.086-.655.415-.141.886-.172 1.329-.07.44.11.813.286 1.177.545.35.263.663.601.872.997.438.796.437 1.741.182 2.53-.268.794-.751 1.487-1.387 2-.64.526-1.455.793-2.267.836-.815.04-1.638-.138-2.371-.499-.733-.361-1.386-.877-1.913-1.499C.671 11.96.118 10.332.017 8.732c-.097-1.612.22-3.21.797-4.67C1.38 2.59 2.217 1.254 3.172.044c.04-.051.114-.06.165-.02.045.036.057.101.029.15" mask="url(#hqt4afdect)"/>
                    </g>
                    <g transform="translate(-16.000000, -117.000000) translate(16.000000, 117.000000) translate(194.000000, 355.809019) scale(-1, -1) translate(-194.000000, -355.809019) translate(44.000000, 90.000000) translate(16.925379, 0.000000)">
                        <mask id="denfbkc6pv" fill="#fff">
                            <use xlink:href="#7eyadus2ju"/>
                        </mask>
                        <path fill="#FFF1B6" d="M.044 3.172C1.256 2.216 2.59 1.382 4.061.814 5.522.237 7.12-.08 8.731.017c1.601.101 3.228.654 4.461 1.737.622.526 1.137 1.18 1.498 1.912.362.734.54 1.556.499 2.372-.042.812-.309 1.626-.835 2.266-.513.637-1.206 1.12-2 1.386-.789.256-1.735.258-2.53-.18-.397-.21-.734-.522-.997-.873-.26-.364-.434-.737-.545-1.177-.102-.443-.072-.914.07-1.328.143-.415.374-.779.655-1.087.14-.156.291-.293.48-.424.186-.12.386-.211.593-.275.413-.127.853-.176 1.31-.107.228.036.46.107.685.231.23.129.432.307.59.516.318.42.492.952.441 1.528-.062.573-.313 1.175-.962 1.569-.082.047-.165.087-.262.122-.104.037-.202.063-.3.08-.194.034-.386.041-.603.006-.211-.036-.467-.118-.722-.334-.256-.207-.447-.589-.476-.902-.046-.58.386-1.087.965-1.132.58-.046 1.086.387 1.131.966-.015-.122-.119-.318-.235-.396-.114-.084-.19-.082-.216-.076-.03.009-.028.025-.032.04-.002.008-.006.015-.018.026-.004.009.001.013.005.019.05.052.245-.07.318-.242.087-.18.097-.448.01-.68-.044-.116-.105-.225-.189-.317-.088-.095-.212-.18-.352-.25-.28-.138-.632-.205-.963-.154-.342.049-.612.223-.841.5-.23.265-.373.594-.423.92-.046.331.013.65.13.943.277.602.662 1.178 1.202 1.513.534.345 1.233.48 1.921.343.69-.121 1.347-.513 1.795-1.068.443-.555.682-1.273.68-1.99.014-.72-.203-1.429-.557-2.05-.36-.618-.85-1.165-1.425-1.594-1.153-.864-2.573-1.323-4.02-1.43-1.454-.117-2.936.123-4.36.569C2.881 1.962 1.51 2.62.176 3.366c-.057.033-.128.013-.16-.043-.03-.05-.016-.115.028-.15" mask="url(#denfbkc6pv)"/>
                    </g>
                    <path fill="#FFF1B6" d="M10.623 4.773c.075-.607.243-1.225.541-1.791.295-.567.71-1.072 1.192-1.47.479-.403 1.017-.704 1.569-.93.276-.113.557-.207.844-.284.143-.037.287-.072.435-.1.154-.03.278-.054.476-.075h.12c.47 0 .854.383.854.856 0 .194-.065.374-.175.519-.63.826-1.194 1.715-1.633 2.663-.441.946-.785 1.942-.975 2.968-.192 1.024-.246 2.076-.132 3.116.123 1.036.413 2.06.903 2.989.126.26.017.574-.243.7-.135.066-.284.068-.413.02l-.02-.007c-.925-.35-1.893-.549-2.863-.568-.97-.021-1.94.137-2.88.418-1.887.569-3.653 1.595-5.39 2.689-.4.253-.932.132-1.186-.27-.05-.08-.085-.164-.106-.251l-.002-.01c-.031-.128-.04-.188-.055-.275-.012-.081-.022-.16-.029-.238-.014-.157-.021-.312-.019-.466.003-.31.038-.62.104-.925.131-.612.404-1.202.781-1.702.38-.497.85-.902 1.35-1.211.502-.314 1.029-.543 1.559-.717.46-.152.955.098 1.107.558.15.46-.098.956-.559 1.108-.426.14-.826.316-1.176.537-.353.218-.652.483-.882.784-.228.303-.386.644-.467 1.015-.04.186-.062.377-.064.57-.001.095.004.191.011.285l.017.136.017.094-1.295-.53c.922-.513 1.864-1.012 2.846-1.454.981-.441 2.005-.827 3.076-1.083 1.07-.255 2.192-.376 3.305-.288 1.112.084 2.2.377 3.2.821l-.675.713c-.454-1.057-.813-2.157-.99-3.298-.19-1.138-.204-2.305-.058-3.451.148-1.145.435-2.271.847-3.349.415-1.076.927-2.116 1.55-3.095l.799 1.376c-.061.006-.193.027-.294.047-.108.02-.216.048-.325.076-.216.058-.428.129-.634.213-.408.168-.79.384-1.105.651-.646.529-1.016 1.264-1.116 2.118v.005c-.056.481-.492.826-.972.77-.481-.057-.826-.492-.77-.973v-.004z" transform="translate(-16.000000, -117.000000) translate(16.000000, 117.000000) translate(194.000000, 355.809019) scale(-1, -1) translate(-194.000000, -355.809019) translate(44.000000, 90.000000)"/>
                    <path fill="#FFF1B6" d="M8.472 11.328l5.523 1.48-.523.553-1.819-5.465.06.134c-.625-.942-1.7-1.51-2.862-1.856-1.173-.351-2.436-.51-3.728-.663l1.01-.937c.052 1.349.105 2.606.479 3.77.184.58.442 1.132.778 1.644.076.131.172.252.263.376.09.125.185.247.29.361.218.264.373.403.529.603zm-.536 1.039c-.167-.13-.333-.266-.497-.407-.179-.15-.274-.262-.41-.393-.13-.124-.253-.257-.368-.397-.12-.138-.24-.273-.345-.423-.442-.578-.807-1.225-1.078-1.905-.55-1.365-.703-2.814-.853-4.128-.054-.467.282-.89.75-.944.066-.008.131-.007.195 0l.064.008c1.29.253 2.625.516 3.933 1.015.652.25 1.299.566 1.893.995.591.427 1.125.98 1.491 1.634l.019.032c.018.033.032.068.042.102l1.538 5.55c.076.226-.046.47-.273.546-.077.025-.155.028-.228.012l-.022-.004-5.851-1.293zM299.124 4.645H31.996c-.483 0-.876-.392-.876-.876 0-.485.393-.877.876-.877h267.128c.484 0 .876.392.876.877 0 .484-.392.876-.876.876" transform="translate(-16.000000, -117.000000) translate(16.000000, 117.000000) translate(194.000000, 355.809019) scale(-1, -1) translate(-194.000000, -355.809019) translate(44.000000, 90.000000)"/>
                    <g transform="translate(-16.000000, -117.000000) translate(16.000000, 117.000000) translate(194.000000, 355.809019) scale(-1, -1) translate(-194.000000, -355.809019) translate(44.000000, 90.000000) translate(2.394629, 31.618038)">
                        <mask id="0cztktdx1x" fill="#fff">
                            <use xlink:href="#pvd4690r2w"/>
                        </mask>
                        <path fill="#FFF1B6" d="M.876 500c-.484 0-.876-.37-.876-.825V.825C0 .369.392 0 .876 0s.877.37.877.825v498.35c0 .455-.393.825-.877.825" mask="url(#0cztktdx1x)"/>
                    </g>
                </g>
            </g>
        </g>
    </g>
</svg>
