<svg xmlns="http://www.w3.org/2000/svg" xmlns:xlink="http://www.w3.org/1999/xlink" width="110" height="47" viewBox="0 -22 110 47">
    <defs>
        <path id="uxwqlhdf2a" d="M0.154 0.463L23.265 0.463 23.265 24.686 0.154 24.686z"/>
        <path id="gmdsekn2qc" d="M0.051 0.463L16.91 0.463 16.91 24.687 0.051 24.687z"/>
        <path id="x56sjtbbte" d="M0.11 0.463L15.024 0.463 15.024 23.945 0.11 23.945z"/>
        <path id="y045cg873g" d="M0.197 0.463L3.358 0.463 3.358 7.002 0.197 7.002z"/>
        <path id="ewvj5mkb3i" d="M0.229 0.463L3.389 0.463 3.389 7.002 0.229 7.002z"/>
    </defs>
    <g fill="none" fill-rule="evenodd">
        <g>
            <g>
                <g transform="translate(-133 -25) translate(133 25)">
                    <mask id="0ao9wsc1lb" fill="#fff">
                        <use xlink:href="#uxwqlhdf2a"/>
                    </mask>
                    <path fill="#030000" d="M17.522 12.551c0-3.056-2.084-6.345-5.419-6.345-3.334 0-5.373 3.289-5.373 6.345 0 3.058 2.039 6.392 5.373 6.392 3.335 0 5.419-3.334 5.419-6.392zm5.743 11.394h-6.39v-2.084h-.094c-1.389 1.807-3.798 2.825-6.16 2.825C3.95 24.686.154 18.62.154 12.46.154 6.438 3.997.462 10.529.462c2.362 0 4.77 1.02 6.345 2.873V1.204h6.391v22.741z" mask="url(#0ao9wsc1lb)"/>
                </g>
                <g transform="translate(-133 -25) translate(133 25) translate(26.503)">
                    <mask id="pcdy7nri3d" fill="#fff">
                        <use xlink:href="#gmdsekn2qc"/>
                    </mask>
                    <path fill="#030000" d="M13.112 6.577c-.927-.88-2.131-1.574-3.428-1.574-1.065 0-2.13.833-2.13 1.944 0 1.668 2.362 2.131 4.678 3.15 2.362 1.02 4.678 2.593 4.678 6.53 0 5.05-4.076 8.06-8.847 8.06-3.057 0-6.02-1.39-8.012-3.798l2.963-3.844c1.251 1.39 2.919 2.64 4.817 2.64 1.436 0 2.594-.973 2.594-2.455 0-1.992-2.268-2.456-4.539-3.427-2.27-.973-4.538-2.316-4.538-5.976 0-4.26 2.964-7.364 7.225-7.364 2.408 0 5.465.741 7.318 2.362l-2.78 3.752z" mask="url(#pcdy7nri3d)"/>
                </g>
                <g transform="translate(-133 -25) translate(133 25) translate(46.822)">
                    <mask id="07oaw4haif" fill="#fff">
                        <use xlink:href="#x56sjtbbte"/>
                    </mask>
                    <path fill="#030000" d="M6.595 3.566h.092C7.983 1.575 9.929.463 12.337.463c.928 0 1.854.232 2.687.556l-.788 6.022c-.787-.556-1.713-.835-2.686-.835-4.492 0-4.955 3.984-4.955 7.504v10.235H.11V1.204h6.485v2.362z" mask="url(#07oaw4haif)"/>
                </g>
                <path fill="#030000" d="M67.494 11.646L64.217 11.608 63.241 8.479 62.192 11.585 58.914 11.547 61.543 13.504 60.495 16.61 63.168 14.715 65.797 16.67 64.821 13.542zM72.074 2.158c-1.086 0-1.911 2.02-1.911 3.389 0 .847.314 1.042.77 1.042 1.325 0 2.194-2.324 2.194-3.171 0-.87-.455-1.26-1.053-1.26zm.598 3.345c-.25.445-.902 1.499-2.086 1.499-.945 0-1.402-.652-1.402-1.596 0-2.119 1.749-3.51 2.858-3.51.966 0 1.193.772 1.28 1.098.903-.825 1.044-1.01 1.196-1.01.076 0 .13.054.13.141 0 .163-.37.75-.521 1.466-.38 1.836-.478 2.13-.478 2.455 0 .207.141.326.336.326.316 0 .51-.25.718-.858.141-.413.162-.49.238-.49.055 0 .088.034.088.11 0 .163-.337 1.868-1.446 1.868-.63 0-.911-.326-.911-.923 0-.174 0-.316.02-.554l-.02-.022zM79.418 3.46c-.49 0-.575-.346-.641-.738-.065-.402-.163-.63-.814-.63-.62 0-1.032.402-1.032.848 0 1.152 2.715.781 2.715 2.433 0 .782-.64 1.63-2.27 1.63-1.228 0-1.89-.544-1.89-1.24 0-.412.174-.672.51-.672.381 0 .478.369.522.804.065.564.174.911.945.911.826 0 1.357-.434 1.357-1.031 0-1.076-2.715-.804-2.715-2.293 0-.998.967-1.586 1.9-1.586 1.304 0 1.87.598 1.87 1.044 0 .303-.143.52-.457.52M83.032 6.372c1.195 0 1.597-.924 1.771-.924.044 0 .076.022.076.076 0 .197-.804 1.478-2.346 1.478-1.282 0-2.151-.815-2.151-2.216 0-1.488 1.304-2.889 3.03-2.889 1.098 0 1.836.597 1.836 1.444 0 .413-.207.794-.63.794-.316 0-.467-.196-.467-.445 0-.305.12-.599.12-.804 0-.381-.283-.794-.913-.794-1.162 0-2 1.401-2 2.618 0 .988.654 1.662 1.674 1.662M86.673 5.373c0 .977.402 1.433 1.108 1.433 1.292 0 1.857-1.933 1.857-3.28 0-.977-.402-1.434-1.107-1.434-1.293 0-1.858 1.934-1.858 3.28m3.942-1.26c0 1.565-1.129 2.89-2.813 2.89-1.26 0-2.106-.847-2.106-2.216 0-1.565 1.129-2.89 2.812-2.89 1.26 0 2.107.848 2.107 2.217" transform="translate(-133 -25) translate(133 25)"/>
                <g transform="translate(-133 -25) translate(133 25) translate(90.994)">
                    <mask id="etjg0dii3h" fill="#fff">
                        <use xlink:href="#y045cg873g"/>
                    </mask>
                    <path fill="#030000" d="M.197 2.527c.912-.391 1.52-.847 2.302-2.064l-.326 1.521h1.185l-.163.543h-1.14c-.576 2.682-.73 3.193-.73 3.41 0 .326.252.522.61.522.597 0 1.064-.587 1.184-.587.042 0 .076.033.076.088 0 .12-.783 1.042-1.815 1.042-.608 0-1.031-.337-1.031-.858 0-.467.196-1.162.77-3.617H.198z" mask="url(#etjg0dii3h)"/>
                </g>
                <g transform="translate(-133 -25) translate(133 25) translate(94.528)">
                    <mask id="zu6spc5qbj" fill="#fff">
                        <use xlink:href="#ewvj5mkb3i"/>
                    </mask>
                    <path fill="#030000" d="M.229 2.527C1.14 2.136 1.749 1.68 2.53.463l-.326 1.521h1.184l-.162.543h-1.14c-.577 2.682-.73 3.193-.73 3.41 0 .326.251.522.61.522.597 0 1.064-.587 1.184-.587.042 0 .076.033.076.088 0 .12-.783 1.042-1.815 1.042-.608 0-1.032-.337-1.032-.858 0-.467.197-1.162.772-3.617H.229z" mask="url(#zu6spc5qbj)"/>
                </g>
                <path fill="#030000" d="M73.117 12.096c-.49 0-.576-.348-.642-.739-.064-.402-.162-.63-.813-.63-.62 0-1.032.402-1.032.848 0 1.15 2.715.781 2.715 2.433 0 .781-.641 1.63-2.27 1.63-1.228 0-1.89-.544-1.89-1.24 0-.412.173-.672.51-.672.38 0 .478.37.521.803.066.565.174.912.946.912.826 0 1.357-.434 1.357-1.031 0-1.076-2.715-.804-2.715-2.293 0-.998.967-1.586 1.9-1.586 1.304 0 1.87.598 1.87 1.044 0 .304-.143.52-.457.52M74.172 11.162c.912-.39 1.52-.848 2.302-2.064l-.325 1.521h1.184l-.163.543h-1.14c-.576 2.683-.728 3.193-.728 3.41 0 .326.25.522.608.522.597 0 1.064-.587 1.184-.587.042 0 .076.033.076.088 0 .119-.782 1.042-1.815 1.042-.608 0-1.03-.337-1.03-.858 0-.468.195-1.162.77-3.617h-.923zM80.508 10.792c-1.087 0-1.912 2.02-1.912 3.39 0 .846.314 1.042.771 1.042 1.325 0 2.194-2.324 2.194-3.171 0-.87-.456-1.26-1.053-1.26zm.597 3.346c-.25.445-.902 1.499-2.086 1.499-.945 0-1.401-.652-1.401-1.596 0-2.119 1.75-3.51 2.857-3.51.966 0 1.194.772 1.28 1.098.903-.825 1.044-1.01 1.196-1.01.076 0 .13.054.13.141 0 .162-.37.75-.521 1.466-.38 1.836-.478 2.13-.478 2.455 0 .207.141.326.336.326.316 0 .511-.25.718-.858.141-.413.162-.49.238-.49.055 0 .088.034.088.11 0 .163-.337 1.868-1.445 1.868-.63 0-.912-.326-.912-.924 0-.173 0-.315.021-.553l-.021-.022zM86.07 11.987c.25-.478.868-1.455 1.879-1.455.358 0 .598.195.598.51 0 .38-.24.576-.598.576-.446 0-.533-.304-.858-.304-.608 0-1.14 1.292-1.455 2.542l-.435 1.737c-.184-.032-.348-.064-.5-.064-.162 0-.336.043-.466.064.814-3.562.879-3.964.879-4.16 0-.217-.097-.358-.304-.358-.402 0-.64.51-.793.933-.12.338-.13.414-.206.414-.044 0-.077-.033-.077-.087 0-.163.327-1.803 1.488-1.803.5 0 .869.326.869.945 0 .174-.01.358-.043.51h.022zM71.52 21.037c.25-.478.868-1.455 1.879-1.455.358 0 .598.195.598.51 0 .38-.24.576-.598.576-.446 0-.533-.305-.858-.305-.608 0-1.14 1.294-1.455 2.542l-.435 1.738c-.184-.032-.348-.065-.5-.065-.162 0-.336.044-.467.065.815-3.562.88-3.964.88-4.16 0-.217-.097-.358-.304-.358-.402 0-.64.51-.793.933-.12.337-.13.414-.207.414-.043 0-.076-.033-.076-.087 0-.163.327-1.803 1.488-1.803.5 0 .869.326.869.945 0 .174-.01.358-.043.51h.022zM74.81 22.2c.793-.153 1.912-.349 2.324-.836.239-.284.326-.631.326-.913 0-.479-.249-.674-.618-.674-.75 0-1.912.685-2.032 2.422m2.064-2.617c.826 0 1.412.358 1.412 1.02 0 .468-.358.968-1.455 1.337-.424.141-1.205.326-2.02.478-.022.88.542 1.64 1.672 1.64.435 0 .825-.196 1.065-.369.435-.315.52-.445.587-.445.043 0 .075.032.075.085 0 .142-.88 1.358-2.346 1.358-1.25 0-2.031-.977-2.031-2.096 0-1.998 1.954-3.008 3.04-3.008M83.383 21.917c0 .467.12.826.282 1.075.62-.695 1.055-1.52 1.055-2.215 0-.348-.153-.522-.446-.522-.489 0-.89.77-.89 1.662m3.149-2.248c.576 0 .923.694.923 1.368 0 1.792-1.325 3.65-2.92 3.65-.62 0-1.098-.348-1.359-.804-.565.456-1.14.804-1.803.804-.738 0-1.325-.543-1.325-1.553 0-.859.412-1.358 1.217-2.553-.642-.054-1.066-.5-1.522-.5-.434 0-.662.326-.662.63 0 .196.086.294.238.294.109 0 .217-.022.327-.022.25 0 .456.174.456.477 0 .327-.217.544-.532.544-.478 0-.814-.271-.814-.967 0-.75.487-1.456 1.553-1.456.423 0 1.107.152 1.444.152.216 0 .359-.064.445-.064.033 0 .065.021.065.064 0 .142-1.39 1.467-1.39 2.662 0 1.064.445 1.574 1.239 1.574.402 0 .749-.194.956-.39-.088-.24-.143-.651-.143-.989 0-1.488.816-3.009 1.685-3.009.478 0 .672.348.672.881 0 .543-.411 1.585-1.455 2.758.305.359.663.64 1.315.64 1.532 0 1.922-1.758 1.922-2.051 0-.924-1.129-.837-1.129-1.554 0-.326.26-.586.597-.586M90.798 19.842c-1.085 0-1.91 2.02-1.91 3.39 0 .846.314 1.043.77 1.043 1.325 0 2.193-2.325 2.193-3.173 0-.87-.455-1.26-1.053-1.26zm.598 3.346c-.25.445-.902 1.498-2.085 1.498-.946 0-1.402-.65-1.402-1.596 0-2.119 1.749-3.508 2.857-3.508.967 0 1.194.771 1.281 1.096.902-.824 1.044-1.009 1.196-1.009.076 0 .13.054.13.14 0 .163-.37.75-.522 1.467-.38 1.836-.478 2.13-.478 2.454 0 .207.142.327.337.327.315 0 .51-.25.717-.858.142-.413.163-.489.239-.489.055 0 .087.033.087.109 0 .162-.336 1.867-1.445 1.867-.63 0-.912-.326-.912-.923 0-.173 0-.314.022-.553l-.022-.022zM96.361 21.037c.25-.478.87-1.455 1.88-1.455.358 0 .597.195.597.51 0 .38-.24.576-.597.576-.446 0-.533-.305-.859-.305-.607 0-1.14 1.294-1.455 2.542l-.434 1.738c-.185-.032-.348-.065-.5-.065-.163 0-.337.044-.467.065.815-3.562.88-3.964.88-4.16 0-.217-.098-.358-.305-.358-.402 0-.64.51-.792.933-.12.337-.13.414-.207.414-.043 0-.076-.033-.076-.087 0-.163.326-1.803 1.488-1.803.5 0 .87.326.87.945 0 .174-.011.358-.044.51h.021zM101.488 19.842c-1.085 0-1.91 2.108-1.91 3.346 0 .76.346 1.087.868 1.087 1.194 0 2.095-2.184 2.095-3.14 0-.554-.227-1.293-1.053-1.293zm.718 3.15c-.588 1.076-1.315 1.694-2.173 1.694-.912 0-1.434-.65-1.434-1.737 0-1.661 1.5-3.367 2.868-3.367.825 0 1.097.554 1.25 1.032h.02c.511-2.357.566-2.575.566-2.857 0-.544-.695-.424-.695-.608 0-.196.488-.12 1.977-.478-1.489 6.517-1.575 6.842-1.575 7.126 0 .206.097.347.336.347.37 0 .608-.38.772-.837.13-.358.13-.466.217-.466.064 0 .086.021.086.097 0 .12-.337 1.748-1.466 1.748-.575 0-.837-.379-.837-.89 0-.239.044-.51.109-.782l-.021-.022zM108.9 21.146c-.49 0-.576-.348-.642-.739-.065-.402-.163-.63-.814-.63-.62 0-1.032.402-1.032.848 0 1.15 2.715.782 2.715 2.433 0 .782-.641 1.629-2.27 1.629-1.227 0-1.89-.543-1.89-1.239 0-.412.174-.673.51-.673.381 0 .479.37.522.804.065.565.174.913.945.913.826 0 1.358-.435 1.358-1.033 0-1.075-2.716-.803-2.716-2.292 0-.998.967-1.586 1.9-1.586 1.305 0 1.87.598 1.87 1.044 0 .304-.142.521-.457.521" transform="translate(-133 -25) translate(133 25)"/>
            </g>
        </g>
    </g>
</svg>
