<svg xmlns="http://www.w3.org/2000/svg" width="90" height="76" viewBox="0 0 56 48">
    <g fill="none" fill-rule="evenodd">
        <g fill="#030000">
            <g>
                <path d="M5.042 45.495c0 .303-.006.512.277.677l-1.058.016c.267-.117.236-.507.236-.747V43.06h-.471c-.23 0-.471.058-.635.214l.17-.637c.08.027.15.027.22.04h2.125c.091 0 .177-.008.246-.04l-.155.637c-.086-.187-.3-.214-.475-.214h-.48v2.436zM7.892 44.474v.965c0 .24-.032.633.235.734l-1.014.016c.267-.117.235-.51.235-.75v-2.017c0-.24.037-.628-.235-.733l1.014-.013c-.267.118-.235.506-.235.752v.662H9.82v-.662c0-.246.037-.634-.236-.739l1.02-.013c-.271.118-.24.506-.24.746v2.017c0 .24-.031.633.24.734l-1.02.016c.273-.117.236-.51.236-.75v-.965H7.892zM12.699 45.74l.677.064c.352.031.722-.079.989-.316l-.225.7h-2.226c.271-.112.24-.508.24-.747v-2.014c0-.245.031-.635-.24-.737l1.708-.014c.092 0 .182.01.252-.027l.015.623c-.182-.192-.4-.214-.646-.214-.187 0-.372.006-.544.04v.992h.635c.085 0 .171 0 .234-.033l.016.566c-.101-.154-.325-.15-.49-.15h-.395v1.266zM19.256 42.674c.716 0 1.106.376 1.106.86 0 .47-.413.838-.85.94l.77.965c.224.279.56.557.864.75h-.491c-.283 0-.459-.07-.62-.268l-.651-.805-.491-.753c.428-.064.924-.264.924-.764 0-.385-.332-.61-.69-.594-.122.006-.24.021-.362.045v2.39c0 .245-.033.636.24.732l-1.02.017c.272-.113.234-.51.234-.75v-2.012c0-.245.038-.635-.235-.738l1.272-.015zM22.577 45.74l.678.064c.353.031.721-.079.988-.316l-.224.7h-2.227c.272-.112.241-.508.241-.747v-2.014c0-.245.031-.635-.241-.737l1.71-.014c.09 0 .18.01.25-.027l.016.623c-.182-.192-.4-.214-.646-.214-.187 0-.373.006-.545.04v.992h.636c.085 0 .17 0 .234-.033l.017.566c-.102-.154-.326-.15-.492-.15h-.395v1.266zM27.538 43.31c-.208-.214-.54-.337-.837-.337-.306 0-.69.117-.69.486 0 .732 1.837.72 1.837 1.71 0 .57-.598 1.105-1.432 1.105-.325 0-.651-.048-.955-.16l-.156-.669c.316.273.753.443 1.17.443.305 0 .765-.18.765-.555 0-.833-1.838-.683-1.838-1.814 0-.674.689-.931 1.341-.931.267 0 .54.037.795.12v.602zM29.37 43.428c0-.248.037-.635-.235-.738l1.014-.015c-.267.118-.235.512-.235.753v2.012c0 .24-.032.63.235.732l-1.014.017c.267-.113.235-.509.235-.75v-2.011zM32.205 45.766c.128.027.257.04.39.04.796 0 1.506-.418 1.506-1.343 0-.933-.523-1.405-1.415-1.405-.16 0-.32.022-.481.06v2.648zm-.545-2.36c0-.244.04-.635-.235-.716l1.309-.014c1.218 0 1.976.66 1.976 1.723 0 1.053-.806 1.789-2.002 1.789h-1.283c.268-.196.235-.454.235-.77v-2.012zM36.782 45.74l.68.064c.351.031.719-.079.987-.316l-.225.7h-2.226c.271-.112.24-.508.24-.747v-2.014c0-.245.031-.635-.24-.737l1.708-.014c.09 0 .181.01.25-.027l.017.623c-.182-.192-.4-.214-.646-.214-.187 0-.373.006-.545.04v.992h.636c.086 0 .17 0 .234-.033l.016.566c-.1-.154-.325-.15-.49-.15h-.396v1.266zM40.302 45.495c0 .298-.005.512.276.677l-.944.016c.283-.181.283-.395.283-.693v-2.13c0-.301 0-.515-.278-.675l.78-.014c.022.067.043.096.08.138l.075.107 1.954 2.467v-2.024c0-.3.006-.514-.278-.674l.941-.014c-.278.174-.278.388-.278.688v2.995c-.379-.128-.545-.303-.78-.608l-1.831-2.323v2.067zM47.163 43.337c-.294-.186-.636-.305-.988-.305-.736 0-1.25.54-1.25 1.313 0 .785.535 1.487 1.356 1.487.401 0 .802-.147 1.139-.338l-.257.622c-.251.115-.528.158-.806.158-1.26 0-2.04-.704-2.04-1.846 0-1.107.78-1.84 1.875-1.84.325 0 .656.059.971.133v.616zM49.33 45.74l.679.064c.353.031.722-.079.988-.316l-.224.7h-2.227c.272-.112.24-.508.24-.747v-2.014c0-.245.032-.635-.24-.737l1.709-.014c.091 0 .182.01.251-.027l.016.623c-.181-.192-.4-.214-.647-.214-.187 0-.373.006-.544.04v.992h.635c.086 0 .172 0 .235-.033l.016.566c-.1-.154-.324-.15-.491-.15h-.395v1.266zM27.243 38.503c-8.116-.004-27.072-.16-27.072-.16v-.344s18.956-.141 27.072-.146c8.114.005 26.975.146 26.975.146v.344s-18.861.156-26.975.16M3.142 29.319h2.557l-1.272-3.27-1.285 3.27zm4.843 2.286c.298.742.531 1.465 1.273 1.844l-2.663.037c.635-.322.533-.465.182-1.374l-.701-1.832H2.804l-.675 1.832c-.273.726-.363 1.101.26 1.337L0 33.486c.753-.416.975-1.139 1.259-1.88l2.167-5.415c.184-.469.43-1.013-.193-1.209l2.05-.037 2.702 6.66zm16.559 1.024c.976 0 1.952-.352 2.77-.822l-.624 1.511c-.611.287-1.288.389-1.966.389-3.066 0-4.965-1.715-4.965-4.499 0-2.692 1.899-4.476 4.563-4.476.792 0 1.6.145 2.368.325v1.498c-.717-.455-1.547-.742-2.406-.742-1.796 0-3.043 1.314-3.043 3.2 0 1.912 1.3 3.616 3.303 3.616zm9.876.144c1.978 0 3.239-1.445 3.239-3.383 0-1.898-1.21-3.734-3.264-3.734-2.017 0-3.303 1.456-3.303 3.42 0 1.822 1.286 3.697 3.328 3.697zm.067-8.055c2.728-.01 4.653 2.07 4.653 4.41 0 2.654-2.196 4.579-4.785 4.579-2.576 0-4.746-1.847-4.746-4.513 0-2.472 2.144-4.54 4.878-4.476zM12.36 26.852c0 1.784 4.474 1.757 4.474 4.164 0 1.395-1.457 2.69-3.486 2.69-.793 0-1.585-.113-2.327-.388l-.377-1.627c.767.665 1.834 1.082 2.848 1.082.74 0 1.86-.444 1.86-1.354 0-2.029-4.476-1.664-4.476-4.422 0-1.64 1.68-2.265 3.265-2.265.65 0 1.316.092 1.94.286v1.472c-.508-.521-1.315-.822-2.042-.822-.742 0-1.68.287-1.68 1.184zm42.028-2.004l-.377 1.55c-.208-.453-.729-.521-1.156-.521h-1.173v5.93c0 .743-.011 1.251.677 1.654l-2.575.039c.65-.287.573-1.237.573-1.82v-5.803h-5.387v5.93c0 .743-.014 1.251.677 1.654l-2.576.039c.65-.287.573-1.237.573-1.82v-5.803h-1.146c-.56 0-1.145.145-1.547.52l.417-1.549c.194.068.364.068.532.094H53.79c.222 0 .43-.015.599-.094zM22.014 12.449c1.942.032 3.653 1.241 4.088 2.828l-.127.125c-.585-.994-1.787-1.676-3.177-1.676-.173 0-.352.015-.52.033-.12-.426-.2-.865-.264-1.31" transform="translate(-27 -87) translate(27.62 87.924)"/>
                <path d="M22.628 14.722c.253-.066.52-.102.797-.102.947 0 1.786.419 2.298 1.055l-.1.134c-.386-.262-.841-.412-1.355-.412-.444 0-.851.116-1.204.316-.169-.318-.301-.654-.436-.991M23.473 16.411c.372-.296.858-.476 1.39-.476.216 0 .419.027.615.082-.036.057-.056.113-.088.168-.55.07-1.016.518-1.271 1.134-.227-.28-.448-.601-.646-.908M21.899 8.881l-.009-.86c.773-.072 1.271-.12 2.054-.161 1.589 1.183 2.934 3.536 2.934 6.28 0 .205.004.398-.009.599-.054.027-.11.056-.162.086-.078-3.235-2.29-5.771-4.808-5.944M32.375 12.449c-.065.445-.146.884-.267 1.31-.168-.018-.346-.033-.518-.033-1.39 0-2.594.682-3.176 1.676l-.129-.125c.437-1.587 2.147-2.796 4.09-2.828" transform="translate(-27 -87) translate(27.62 87.924)"/>
                <path d="M31.76 14.722c-.135.337-.268.673-.437.99-.351-.2-.76-.315-1.203-.315-.514 0-.97.15-1.353.412l-.103-.134c.512-.636 1.35-1.055 2.3-1.055.275 0 .542.036.795.102M30.915 16.411c-.197.307-.418.627-.645.908-.257-.616-.722-1.064-1.273-1.134-.031-.055-.052-.11-.086-.168.196-.055.399-.082.614-.082.531 0 1.02.18 1.39.476M32.489 8.881c-2.52.173-4.73 2.708-4.808 5.944-.051-.03-.108-.059-.162-.086-.013-.2-.01-.394-.01-.599 0-2.744 1.346-5.097 2.935-6.28.782.04 1.28.089 2.055.16l-.01.861zM27.185 19.899c-.236-.132-.47-.27-.696-.419 0 0-.068-2.037-1.09-2.468 0 0 .475-1.415 1.79-1.997 1.315.582 1.8 1.997 1.8 1.997-1.022.431-1.092 2.468-1.092 2.468-.224.148-.456.287-.695.419h-.017zm-.437-3.285c0 .233.21.426.47.426.258 0 .468-.193.468-.426 0-.233-.21-.424-.468-.424-.26 0-.47.19-.47.424zM26.68 3.998c0 .283.228.513.515.513.283 0 .513-.23.513-.513 0-.285-.23-.517-.513-.517-.287 0-.515.232-.515.517m.514-1.143c.066-.713.84-1.062 1.304-.943.396.105.908.476.643 1.134 0 0-.218-.378-.589-.321-.544.082-.627 1.202.589 1.328 1.011.105 1.412-.63.908-.84-.157-.064-.337.11-.337.11-.139-.39.462-.864.994-.502.32.221.295.783.098 1.134.197.014.462-.168.6-.405 0 0 .176-.193.322-.253.264-.108.478-.079.727.055-.614.52-.973 1.403-1.13 2.06-.853-.044-2.602-.17-4.128-.174-1.528.004-3.276.13-4.13.173-.157-.656-.516-1.54-1.132-2.059.251-.135.465-.163.728-.055.148.06.322.253.322.253.14.237.405.42.6.405-.195-.351-.221-.913.099-1.134.53-.362 1.131.113.992.503 0 0-.18-.175-.335-.11-.503.21-.103.944.908.839 1.216-.126 1.133-1.246.588-1.328-.372-.057-.588.32-.588.32-.266-.657.246-1.028.645-1.133.462-.12 1.236.23 1.302.943" transform="translate(-27 -87) translate(27.62 87.924)"/>
                <path d="M26.572 1.003L27.194 0 27.817 1.003 27.194 2.06zM14.696 8.607c.323-2.63-1.3-3.707-1.745-4.662-.671-1.441.377-2.475 1.465-2.494-.643.641-.883 1.353-.766 2.28.154 1.214 1.99 2.393 1.046 4.876M12.677 15.162c.35.007 1.086-.446 1.299-.613-.714-.535-1.205-1.358-1.248-1.873-.135-1.544.847-1.717 1.839-3.78-.376 1.937-1.73 2.084-1.46 3.646.147.856.853 1.604 1.834 2.007 0 0-.931.695-1.68 1.102.664.917.751 2.717 1.497 3.278 0 0 .07.615.054.72-.345-.285-.974-.493-1.23-.525v-.354s-.306-.186-.339-.203c.267-1.024-.248-2.272-.694-3.168l.128-.237zM9.479 11.093c1.062-.32.33-3.805 2.159-3.349.934.232.939 1.606.642 2.602-.336 1.136-1.51 2.684-.691 3.014.33.134.618-.063.829-.488-.122.622-.655 1.087-1.105.948-.613-.186-.744-1.082-.592-2.178.107-.777.673-1.797.292-2.17-.387-.375-.658 1.961-1.534 1.62M27.192 14.611c-.064.021-.028.018-.089.045-.007-.515-.013-.973-.013-1.498 0-1.958-.446-3.764-1.17-5.161 0 0 1.124-.872 1.28-1.47.157.598 1.277 1.47 1.277 1.47-.72 1.397-1.166 3.203-1.166 5.161 0 .525-.005.983-.013 1.498-.061-.027-.04-.024-.106-.045M26.444 14.989c-.055.039-.11.08-.164.123-.249-2.013-2.004-3.668-4.37-3.72.002-.023-.003-1.327-.003-1.327 2.607.07 4.445 2.27 4.537 4.924M27.943 14.989c.092-2.654 1.932-4.855 4.54-4.924l-.005 1.328c-2.365.05-4.121 1.706-4.372 3.719-.051-.043-.107-.084-.163-.123M39.691 8.607c-.942-2.483.894-3.662 1.048-4.875.117-.928-.125-1.64-.766-2.28 1.089.018 2.136 1.052 1.465 2.493-.446.955-2.068 2.031-1.747 4.662M41.71 15.162l.129.237c-.446.896-.96 2.144-.694 3.168-.034.017-.34.203-.34.203v.354c-.255.032-.885.24-1.23.526-.014-.106.056-.721.056-.721.745-.56.832-2.36 1.495-3.278-.745-.407-1.68-1.102-1.68-1.102.983-.402 1.688-1.151 1.836-2.007.268-1.562-1.084-1.71-1.462-3.646.994 2.063 1.976 2.236 1.841 3.78-.045.515-.535 1.338-1.249 1.873.213.167.95.62 1.299.613M44.91 11.093c-.877.34-1.149-1.996-1.535-1.62-.38.372.185 1.392.292 2.169.15 1.096.022 1.992-.592 2.178-.449.14-.982-.326-1.105-.948.213.425.5.622.83.488.817-.33-.356-1.878-.693-3.014-.296-.996-.292-2.37.645-2.602 1.827-.456 1.094 3.03 2.157 3.349" transform="translate(-27 -87) translate(27.62 87.924)"/>
                <path d="M29.824 19.521c.134-.128.408-.405.536-.538l3.602.001c.09-.261.257-.774.262-1.005l.188-.236c.712-.22 2.008-1.289 2.053-1.526-.31-.868-.665-3.408.734-4.454-.84.966.463 3.105 2.86 4.047-.82-.147-1.58-.445-2.19-.87 0 0-.442.843-.534 1.794l-.193.172c-.762.132-1.767 1.026-1.959 1.472l.122.606 2.609.002v.535h-8.09zm-12.636-7.758c1.4 1.046 1.046 3.586.733 4.454.047.237 1.344 1.307 2.053 1.526l.19.236c.006.23.17.738.262 1l3.61.005c.118.126.243.25.368.371l.212.166h-7.894v-.545l2.362.003.122-.6c-.192-.447-1.197-1.34-1.96-1.473l-.194-.172c-.09-.95-.534-1.793-.534-1.793-.61.424-1.369.722-2.188.869 2.396-.942 3.703-3.081 2.858-4.047zm18.845-3.51c-.236 1.141.335 2.243 1.423 3.21-.142 0-.353.024-.425 0-.485-.347-1.227-1.525-1.748-2.937-.56.125-.708-.08-.876-.1-.017.454-.816 1.62-1.046 1.949v.461c0 4.426-2.495 8.263-6.165 10.175-3.67-1.912-6.17-5.75-6.17-10.175l.002-.461c-.232-.328-1.03-1.495-1.05-1.948-.167.02-.313.224-.874.1-.519 1.411-1.263 2.59-1.747 2.937-.072.023-.282 0-.425 0 1.087-.968 1.657-2.07 1.416-3.216 1.15.057 1.218-.102 1.403-.182l.406.029c.06.164.696 1.494.871 1.86V7.248l.24-.024-.149-.108-.777-.616s-.33.317-.4.524c-.015.042.2.243.298.318-.006.014-.339-.137-.343-.126-.007.025-.409-.298-.892-.298-.364-.337-.675-.494-.933-.545-.104-.494-1.207-1.82-1.577-2.023-.418-.225-.635-.328-.907-.402.624-.04 1.147-.465 1.147-.465l.918.196c.152-.069.234-.156.292-.313.114-.32-.292-.61-.652-.779-.31-.146-.624-.194-.911-.257-.213-.387-.428-.588-.831-.763-.32-.14-.539-.164-.885-.132L14.274.368l1.018.844c.239-.026.382-.016.615.043.505.124.582.6 1.056.812.345.155.593.091.936.254.28.133.435.235.66.45-.18.135-.366.408-.414.574-.063.223.12.366.075.522-.05.17-.068.182-.15.273l-1.34-.347-.294.194s1.36.847 1.79 1.916c.225.22.333.202.5.292 0 0 .751-.476 1.306-.698.124-.034.342-.034.452.01.144.046 1.096 1.134 1.666 1.636 1.336-.107 2.684-.174 4.043-.197-.153.157-.303.267-.45.38-1.462.03-2.986.133-4.354.26l.003 3.234c0 4.21 2.343 7.876 5.792 9.768 3.447-1.892 5.811-5.558 5.811-9.768L33 7.587c-1.383-.132-2.915-.24-4.393-.273-.15-.123-.26-.211-.41-.368 1.357.023 2.704.09 4.04.197.571-.502 1.521-1.59 1.667-1.636.108-.044.329-.044.451-.01.557.222 1.308.698 1.308.698.165-.09.274-.073.497-.292.433-1.07 1.794-1.916 1.794-1.916l-.297-.194-1.34.347c-.082-.091-.1-.103-.149-.273-.045-.156.14-.3.075-.522-.05-.166-.235-.44-.415-.573.225-.216.38-.318.663-.451.34-.165.59-.097.935-.254.47-.215.551-.686 1.054-.812.235-.06.376-.068.615-.043l1.02-.844-.392 1.066c-.347-.03-.564-.009-.885.132-.403.177-.62.376-.832.763-.286.063-.6.11-.913.257-.356.17-.765.46-.65.779.057.157.141.242.294.313l.915-.196s.524.425 1.149.465c-.274.074-.49.177-.906.402-.372.202-1.475 1.529-1.578 2.023-.26.051-.57.208-.933.545-.484 0-.886.323-.893.298-.005-.01-.336.14-.341.126.096-.075.31-.276.296-.318-.068-.207-.399-.524-.399-.524l-.779.616-.146.108.238.024v2.709c.177-.367.809-1.697.87-1.861l.406-.029c.187.08.256.239 1.397.187z" transform="translate(-27 -87) translate(27.62 87.924)"/>
            </g>
        </g>
    </g>
</svg>
