<svg xmlns="http://www.w3.org/2000/svg" width="118" height="76" viewBox="0 0 72 25">
    <g fill="none" fill-rule="evenodd">
        <g fill="#030000">
            <g>
                <path d="M12.615 2.924c0 .604-.49 1.095-1.093 1.095-.606 0-1.096-.49-1.096-1.095 0-.603.49-1.092 1.096-1.092.604 0 1.093.49 1.093 1.092M43.6 2.924c0 .604-.49 1.095-1.093 1.095-.606 0-1.094-.49-1.094-1.095 0-.603.488-1.092 1.094-1.092.604 0 1.093.49 1.093 1.092M12.394 13.181c0 .718.44.671 1.285.671v.39H9.698v-.39c.928 0 1.243.081 1.243-1.008V7.851c0-.798-.966-1.048-.966-1.048V6.51l2.165-.75h.254v7.421zM43.38 13.181c0 .718.438.671 1.281.671v.39h-3.98v-.39c.927 0 1.242.081 1.242-1.008V7.851c0-.798-.964-1.048-.964-1.048V6.51l2.163-.75h.258v7.421zM20.298 6.005V7H17.49v4.775c-.016 1.561.724 1.74 1.047 1.786.331.05.871.016 1.476-.555l.252.283c-.833.862-1.54 1.232-2.46 1.232-1.374 0-1.839-.644-1.806-2.439V7h-1.187v-.328c.77-.55 1.825-1.322 2.414-2.601h.28v1.934h2.792zM22.078 8.802c-.565-.014-.212-.82-.164-.916.37-.725 2.034-1.948 3.393-2.024.676-.035 1.528-.087 2.158.754.339.453.442.642.442 1.766v2.892c0 1.729.126 2.095.364 2.22.581.308 1-.216 1-.216l.197.27c-.63.65-1.278 1-1.82 1-.847 0-1.171-.71-1.177-1.417 0 0-1.372 1.417-2.729 1.417-1.36 0-2.25-.698-2.25-1.755 0-1.347 1.172-1.875 2.567-2.388.478-.174 1.469-.527 2.391-.818v-.934c0-.603.053-.958-.33-1.392-.294-.348-1.005-.577-1.502-.56-.659.018-1.364.42-1.432.89-.051.345-.066.64-.166.773-.088.115-.368.454-.942.438zm4.375 1.297c-.363.122-.861.276-1.477.494-1.394.493-2.008.988-2.008 1.872 0 .777.755 1.273 1.481 1.255.451-.01.754-.09 2.001-1.066l.003-2.555zM36.72 2.153c.011-.885-.969-.869-.969-.869v-.257L37.982 0h.246l.016 12.36c0 .697-.116 1.122.682 1.126l.55-.004-.003.29-2.282.7-.399-.007-.031-1.255h-.114c-1.001 1.098-2.1 1.324-3.021 1.324-2.073 0-3.303-1.935-3.303-4.127 0-2.56 2.255-4.678 4.44-4.678.618 0 1.39.048 1.957.346V2.153zm.02 5.725c-.078-1.295-1.058-1.572-2.15-1.561-1.645.014-2.68 1.493-2.68 3.491 0 2.05 1.12 3.78 3.213 3.669.635-.034 1.477-.541 1.616-.981V7.878zM48.57 12.749c0 1.155.086 1.064 1.307 1.064v.427h-4.019v-.406c.954 0 1.213.012 1.213-.828V7.873c-.049-.644-1.104-.932-1.104-.932v-.28l2.375-.916h.222V7.12c1.216-.8 1.893-1.412 3.27-1.412 1.423 0 2.203.745 2.203 3.045 0 2.724.005 3.793 0 4.594-.002.557 1.32.483 1.32.483l.003.412h-4.085v-.437c.356 0 .938.033 1.14-.17.072-.074.108-.23.108-.528V8.743c-.005-1.858-.767-2.017-1.644-2.053-.856-.037-1.63.501-2.308.879v5.18zM62.945 8.93c-.035.09-.08.108-.125.108h-5.276c0 .19-.317 3.866 2.412 4.36 1.126.2 2.284-.507 2.887-1.265l.252.273c-.637.933-1.951 2.106-3.447 2.106-2.458 0-3.609-1.97-3.567-4.347.038-2.172 1.308-4.467 3.808-4.467 2.576 0 3.142 2.121 3.117 2.82 0 0 0 .266-.061.412zm-1.89-.451c.179 0 .288-.187.31-.324.19-1.207-.608-1.921-1.605-1.921-.676 0-1.767.298-2.19 2.245h3.485zM64.907 11.608c.248 1.229.993 2.338 2.252 2.338.82 0 1.51-.444 1.548-1.252.014-.294.046-.797-.502-1.273-1.297-1.122-3.396-1.022-3.551-3.27-.086-1.27 1-2.484 2.886-2.484.704 0 1.58.208 2.123.534l.12 1.82h-.436c-.295-1.46-1.103-1.823-1.924-1.823-.645 0-1.552.363-1.552 1.203 0 2.25 4.357 1.668 4.357 4.451 0 1.616-1.623 2.61-3.006 2.61-1.617 0-2.477-.632-2.477-.632l-.208-2.146.37-.076zM8.131 7.969c-.092.106-.328.119-.42.027-.224-.832-.817-1.923-2.557-1.923-1.675 0-3.361 1.185-3.361 3.887 0 2.808 1.752 4.18 3.453 4.18 1.66 0 2.385-1.109 2.753-1.965.12-.12.33-.067.397.052-.093.884-.449 1.754-.633 2.005-.158.026-.316.076-.46.116-.291.092-1.2.318-2.057.318-1.305 0-2.425-.264-3.374-.884C.803 13.082 0 11.884 0 10.157c0-1.542.686-2.74 1.66-3.493.976-.739 2.307-1.12 3.638-1.12.752 0 1.66.133 2.28.291.16.038.251.053.37.078.027.303.051 1.082.183 2.056M12.449 21.988l-.268.725c-.107.287-.143.437.1.529v.016h-.943v-.016c.297-.15.387-.437.498-.731l.859-2.143c.071-.184.167-.398-.078-.476v-.016h.813L14.5 22.51c.118.294.21.58.503.73v.017h-1.054v-.016c.254-.114.213-.168.072-.529l-.278-.725h-1.293zm.642-1.676l-.51 1.295h1.014l-.504-1.295zM18.033 19.876c.67 0 1.176.323 1.176.898 0 .592-.548.968-1.129.968-.129 0-.258-.015-.376-.071.444-.026.918-.3.918-.792 0-.453-.316-.633-.727-.633-.123 0-.242.011-.36.032v2.316c0 .287-.005.494.268.648v.016h-1.024v-.016c.263-.093.233-.473.233-.704v-1.936c0-.234.03-.608-.227-.71v-.016h1.248zM21.626 21.988l-.267.725c-.108.287-.144.437.102.529v.016h-.944v-.016c.297-.15.384-.437.496-.731l.86-2.143c.072-.184.169-.398-.078-.476v-.016h.812l1.069 2.635c.118.294.21.58.505.73v.017h-1.055v-.016c.253-.114.21-.168.073-.529l-.278-.725h-1.295zm.641-1.676l-.509 1.295h1.015l-.506-1.295zM27.156 19.876c.688 0 1.062.358 1.062.828 0 .45-.396.806-.817.903l.739.931c.217.267.54.534.833.72h-.472c-.272 0-.443-.066-.594-.256l-.628-.778-.474-.725c.413-.062.89-.25.89-.736 0-.368-.32-.584-.663-.568-.117.004-.233.02-.35.04v2.303c0 .236-.031.611.233.704v.016h-.983v-.016c.264-.093.227-.473.227-.704v-1.936c0-.237.037-.614-.227-.71v-.016h1.224zM31.831 22.588c0 .293-.006.493.268.653v.015h-1.02v-.015c.26-.097.229-.472.229-.703v-2.292h-.454c-.222 0-.454.056-.612.205h-.014l.178-.61h.018c.06.024.125.024.194.035h2.046c.086 0 .168-.007.236-.034h.015l-.165.61h-.014c-.068-.18-.274-.206-.444-.206h-.46v2.342zM34.754 20.735c.066-.072.274-.294.274-.398 0-.038-.031-.044-.063-.05-.14-.021-.252-.108-.252-.263 0-.164.134-.293.291-.293.193 0 .33.156.33.345 0 .2-.128.4-.245.556-.036.045-.114.164-.191.164-.03 0-.062-.011-.093-.02l-.05-.041zM38.222 21.608v.93c0 .23-.03.606.227.703v.017h-.977v-.017c.258-.097.227-.472.227-.703v-1.942c0-.231.035-.606-.227-.704v-.016h.977v.016c-.257.098-.227.473-.227.709v.637h1.855V20.6c0-.236.038-.611-.225-.709v-.016h.98v.016c-.262.098-.23.473-.23.704v1.942c0 .23-.032.606.23.703v.017h-.98v-.017c.263-.097.225-.472.225-.703v-.93h-1.855zM46.429 21.531c0 1.049-.867 1.808-1.89 1.808-1.017 0-1.876-.73-1.876-1.782 0-.977.847-1.795 1.926-1.768 1.08-.005 1.84.815 1.84 1.742m-3.18-.02c0 .719.51 1.457 1.315 1.457.78 0 1.28-.569 1.28-1.334 0-.752-.478-1.475-1.29-1.475-.796 0-1.305.575-1.305 1.353M49.507 22.588c0 .293-.004.493.268.653v.015h-1.017v-.015c.257-.097.226-.472.226-.703v-2.292h-.455c-.219 0-.45.056-.608.205h-.017l.181-.61h.014c.064.024.13.024.196.035h2.044c.088 0 .172-.007.238-.034h.015l-.165.61h-.015c-.066-.18-.271-.206-.442-.206h-.463v2.342zM52.972 22.825l.653.062c.338.03.691-.075.949-.304h.016l-.232.675h-2.141v-.017c.26-.092.23-.472.23-.703v-1.937c0-.236.03-.613-.23-.71v-.015h1.644c.087 0 .176.009.241-.025h.016v.6h-.016c-.16-.185-.37-.205-.605-.205-.18 0-.36.005-.525.035v.957h.61c.083 0 .166 0 .227-.031h.015v.543h-.015c-.083-.148-.298-.142-.458-.142h-.38v1.217zM57.89 22.886c.348.021.651-.095.909-.312h.015l-.267.682h-2.109v-.014c.259-.092.229-.474.229-.704V20.6c0-.236.03-.612-.229-.708v-.016h.978v.016c-.262.096-.226.476-.226.708v2.241l.7.045z" transform="translate(-106 -168) translate(106.488 168.418)"/>
            </g>
        </g>
    </g>
</svg>
