<svg xmlns="http://www.w3.org/2000/svg" width="147" height="47" viewBox="0 0 147 19">
    <g fill="none" fill-rule="evenodd">
        <g fill="#030000">
            <g>
                <path d="M7.33 15.809c.635.057 2.594.259 4.585.259 2.452-.03 3.98-.348 5.626-1.415.49-.316 1.037-.778 1.325-1.037.404-.347 1.184-1.04 1.847-1.615.461-.606 1.558-2.019 2.25-2.856.604-.751 1.902-2.164 2.939-3.058-1.555.607-3.66.693-5.16.607-.55-.029-1.185-.145-1.385-.088-.546.201-1.326.809-2.135 1.76-1.212 1.443-1.76 2.624-3.258 4.037-2.106 1.934-4.76 3-6.634 3.375v.03zm3.517-8.568c.06-.055.202 0 .319.088.202.116.575.46.575.982.03 1.268-1.729 2.016-3.603 2.016-1.816-.029-3.229-1.065-3.057-2.624.2-2.104 2.74-3.319 5.708-3.23 1.472.028 3.261.347 4.788.606 3.924.664 9.117 1.558 10.843.547.234-.202.724-.607 1.387-1.125 1.671-1.27 4.038-2.856 6.344-2.856 2.338 0 3.722 1.472 3.548 3.058-.028.376-.201.635-.288.606-.057-.028.058-.23.087-.606.085-1.239-1.268-2.309-3.432-2.309-2.799 0-4.414 1.013-5.943 2.395-.75.723-1.615 1.675-2.307 2.482-.806.952-1.7 2.048-2.566 3.258-1.27 1.73-2.537 3.518-3.2 4.5l.029.028c.692-.576 1.642-1.414 2.653-2.162 1.008-.75 2.278-1.56 3.142-1.56.606 0 .951.29.894.781-.086.52-.692 1.184-1.152 1.76-.463.548-.78.979-.95 1.266-.202.35-.233.55-.117.636.145.116.46 0 .692-.115.344-.17.718-.373 1.384-.894.49-.375 1.066-.894 1.381-1.182.234-.201.32-.232.379-.173.057.06-.03.173-.234.375-.259.258-1.124 1.037-1.73 1.501-.576.43-1.699 1.154-2.593 1.154-.578 0-.893-.262-.865-.752.029-.635.664-1.355 1.21-2.016.433-.524.865-.983 1.21-1.418.117-.142.174-.316.032-.404-.146-.086-.464.033-.75.176-.52.26-1.329.75-2.25 1.472-1.27.98-1.963 1.64-3.23 2.623-.26.202-.434.26-.75.26-.404 0-.578-.058-.376-.462.288-.548.692-1.21 1.182-1.933.231-.347.519-.721.866-1.152l-.028-.03c-.29.29-.722.694-1.038.981-.318.288-.922.81-1.413 1.152-1.647 1.155-3.436 1.674-6.118 1.674-2.221 0-4.584-.26-5.621-.402-.808.171-2.28.288-3.087.316-1.04.029-2.885.029-2.8-.492.118-.575 1.271-.72 2.396-.72 1.21 0 3.231.23 4.3.375.979-.173 2.708-.866 3.918-1.874 1.645-1.383 2.338-2.597 3.952-4.297 1.413-1.529 2.828-2.54 4.385-2.998V6.49c-.953-.116-2.252-.345-3.866-.635-1.527-.257-3.113-.635-4.642-.691-2.568-.146-4.816.751-5.048 2.625-.146 1.298 1.155 2.22 2.741 2.275 1.758.034 2.94-.69 3.028-1.814.028-.29-.031-.606-.2-.836l-.12-.174z" transform="translate(-109 -104) translate(109.37 104.752)"/>
                <path d="M31.352 13.585c.718-.49 1.154-1.094 1.182-1.498.029-.26-.087-.402-.347-.402s-.69.288-1.267.835c-.464.432-1.184 1.355-1.53 1.933.576-.145 1.354-.463 1.962-.868m.978 1.443c.549-.373 1.212-.894 1.762-1.383.174-.146.26-.172.316-.117.057.088-.057.233-.23.376-.377.345-1.3 1.096-1.818 1.443-1.21.807-2.277 1.183-3.257 1.183-1.068 0-1.56-.405-1.529-1.157.029-.575.287-1.093.863-1.788l-.029-.026c-.085.086-.401.374-.575.518-.145.117-.23.146-.29.086-.057-.086.06-.202.176-.316.373-.348.633-.55 1.065-.865.319-.231.865-.578 1.413-.866.837-.43 1.702-.81 2.483-.81h.028c.635 0 .863.405.834.781-.057.751-.98 1.327-1.845 1.76-.836.402-1.816.751-2.48.923-.114.23-.174.492-.174.663 0 .433.231.663.666.663.374 0 1.353-.202 2.62-1.068M53.587 6.491c.288-1.327-.635-1.93-2.164-1.905-.433 0-1.182.146-1.527.291.228.404.43 1.068.488 1.586.06.461 0 .751-.087.72-.056-.028-.028-.173-.116-.577-.113-.576-.43-1.237-.69-1.586-1.528.577-3.26 1.702-4.5 2.83 1.01.746 2.625 1.065 4.182 1.065 2.107 0 4.095-1.01 4.414-2.424m-9.921-.95c0 .546.202 1.124.575 1.614 1.558-1.04 3.463-1.93 5.077-2.392-.897-.98-2.107-1.56-3.317-1.56-1.241 0-2.335.894-2.335 2.338m6.114-.895c.401-.117 1.008-.233 1.529-.261 1.816-.112 3.662.404 3.343 2.166-.316 1.788-3.343 2.654-5.536 2.654-1.615 0-3.317-.376-4.356-1.154-2.19 1.958-3.748 4.586-3.748 6.46 0 1.673 1.04 2.334 2.48 2.334 1.701 0 3.056-.749 4.181-1.5.748-.518 1.443-1.122 1.788-1.44.404-.374.549-.491.635-.405.057.057-.086.233-.23.376-.693.634-1.445 1.295-2.077 1.73-1.184.838-2.654 1.556-4.357 1.644-2.391.086-4.066-.778-4.152-2.914-.085-2.537 2.336-5.276 4.73-7.007-.404-.519-.722-1.154-.722-1.817 0-1.615 1.386-2.682 2.944-2.682 1.384 0 2.768.691 3.548 1.816" transform="translate(-109 -104) translate(109.37 104.752)"/>
                <path d="M60.333 13.585c.951-.49 1.182-1.122 1.182-1.526 0-.203-.085-.348-.345-.348-.259 0-.691.262-1.27.78-.518.49-1.093 1.125-1.355 1.47.319.029 1.153-.057 1.788-.376m2.71.06c.175-.146.263-.172.32-.117.057.088-.031.202-.233.376-.374.345-1.18 1.04-1.7 1.384-1.21.808-2.364 1.242-3.346 1.242-1.066 0-1.587-.462-1.587-1.183 0-.319.146-.78.405-1.213-.202-.028-.49-.086-.778-.23-.578-.288-.894-.865-.865-1.384-.317.174-.866.604-1.213.894-.835.72-1.789 1.614-2.913 2.71-.202.203-.433.26-.75.26-.401 0-.603-.057-.373-.461.2-.373.806-1.325 1.268-1.933.316-.431.837-1.095 1.153-1.499.202-.259.26-.404.202-.492-.085-.114-.26-.057-.432.03-.345.174-.778.49-1.125.778-.376.317-.837.72-1.24 1.097-.287.259-.404.345-.492.259-.057-.086.088-.23.436-.547.344-.318.98-.922 1.498-1.327.78-.604 1.355-.954 1.961-.954.548 0 .721.32.721.638 0 .373-.316.834-.604 1.239-.233.316-.637.836-.868 1.153l.06.06c.316-.32 1.096-1.068 1.757-1.618.461-.372.925-.748 1.415-1.067.43-.287.72-.373.866-.405.258-.054.518-.028.635.032.085.057.199.287-.117.46-.837.462-1.067.78-1.096 1.04-.028.288.029.606.432.806.174.088.493.174.635.174.376-.49 1.125-1.21 2.02-1.703.834-.459 1.787-.837 2.566-.837.606 0 .893.404.863.78-.056.751-.95 1.412-1.844 1.76-.922.347-1.788.433-2.307.433-.347.49-.375.922-.375 1.124 0 .405.23.664.664.664.635 0 1.47-.29 2.622-1.04.55-.373 1.3-.98 1.76-1.383" transform="translate(-109 -104) translate(109.37 104.752)"/>
                <path d="M63.881 16.241c.576 0 1.296-.463 1.929-1.557.52-.837.982-2.511 1.358-2.942v-.03c-.29.286-.866.722-1.385 1.095-.404.288-.864.576-1.098.693-.114.059-.228.116-.288.03-.028-.087 0-.147.145-.233.288-.171.75-.458 1.213-.806.46-.347.92-.694 1.5-1.212-.403-.288-.637-.72-.693-1.126-.086-.604 0-2.45 2.998-3.027 1.531-.287 4.414-.028 5.596-.23.665-.633 1.472-1.01 1.904-1.01.288 0 .347.115.347.173-.319.751-.982 1.182-1.357 1.387-.693.746-2.854 3.229-3.43 3.98.661-.033 2.076-.033 2.536-.033.287 0 .432.06.403.175-.057.143-.202.143-.518.143-.635 0-1.99 0-2.654.031-.23.256-1.44 2.017-1.933 2.683-.316.805-.923 1.498-1.41 1.902-.205.174-.55.376-.84.376h-.028c-.231 0-.376 0-.029-.664.404-.751 1.3-2.107 1.962-3.143.203-.55.057-.694.174-.98.114-.29.402-.464.808-.49.778-1.07 3.028-3.55 3.805-4.271-1.267.23-3.633.116-4.872.348-2.885.574-3.116 2.275-3.059 2.767.029.32.115.635.431.894.12-.114.233-.316.52-.549.317-.26.635-.316.838-.316.664 0 .228.404-.145.606-.26.145-.547.288-.693.432-.23.231-.201.46-.201.779.028.808.085 1.557-.257 2.366-.177.401-.493.806-.925 1.182-.778.663-1.614.865-2.48.865-1.53 0-1.846-.923-1.73-1.73.115-.836.776-1.53 1.47-1.502.405.031.604.319.548.635-.058.29-.26.521-.636.723-.287.143-.632.462-.663.865-.029.46.319.721.84.721M92.776 6.491c.29-1.327-.634-1.93-2.163-1.905-.433 0-1.18.146-1.527.291.23.404.432 1.068.49 1.586.057.461 0 .751-.086.72-.057-.028-.031-.173-.116-.577-.115-.576-.433-1.237-.693-1.586-1.528.577-3.26 1.702-4.499 2.83 1.008.746 2.623 1.065 4.18 1.065 2.108 0 4.096-1.01 4.414-2.424m-9.921-.95c0 .546.203 1.124.576 1.614 1.558-1.04 3.462-1.93 5.076-2.392-.893-.98-2.106-1.56-3.317-1.56-1.238 0-2.335.894-2.335 2.338m6.114-.895c.405-.117 1.009-.233 1.53-.261 1.816-.112 3.662.404 3.343 2.166-.317 1.788-3.344 2.654-5.536 2.654-1.615 0-3.317-.376-4.354-1.154-2.193 1.958-3.75 4.586-3.75 6.46 0 1.673 1.038 2.334 2.48 2.334 1.7 0 3.058-.749 4.18-1.5.752-.518 1.444-1.122 1.788-1.44.405-.374.55-.491.638-.405.054.057-.088.233-.233.376-.692.634-1.441 1.295-2.076 1.73-1.182.838-2.654 1.556-4.354 1.644-2.395.086-4.067-.778-4.152-2.914C78.385 11.8 80.808 9.06 83.2 7.33c-.404-.519-.723-1.154-.723-1.817 0-1.615 1.39-2.682 2.944-2.682 1.384 0 2.769.691 3.548 1.816" transform="translate(-109 -104) translate(109.37 104.752)"/>
                <path d="M89.083 13.846c-.201.174-.316.231-.376.174-.056-.088.089-.233.203-.347.202-.202.607-.518.897-.72.373-.26.777-.519 1.383-.837.835-.433 1.73-.752 2.392-.778.203 0 .433 0 .433.115 0 .059-.085.059-.318.175-.692.314-1.268.806-2.074 1.584-.837.837-1.617 1.96-1.674 2.537-.029.29.085.49.405.49.634 0 1.785-.777 2.681-1.757.029-.29.143-.724.52-1.213.315-.43.72-.664.922-.75.088-.201.088-.52.088-.663 0-.316-.117-.403-.029-.463.114-.055.288.06.404.173.23.231.402.578.345 1.01-.088.693-.749 1.53-1.645 2.339.116.054.435.026.549 0 .26-.06.578-.203.98-.49.376-.262.606-.464.923-.752.261-.23.404-.373.489-.29.088.088-.085.262-.373.521-.26.23-.55.49-.923.749-.46.316-.808.464-1.096.518-.259.06-.607.06-.78-.054-.75.575-2.104 1.413-3.288 1.413-.895 0-1.442-.434-1.414-1.27.03-.577.376-1.27.923-1.844l-.028-.033c-.2.173-.317.29-.519.463" transform="translate(-109 -104) translate(109.37 104.752)"/>
                <path d="M97.504 12.722c-.43.376-.866.78-1.182 1.068-.173.142-.26.171-.318.085-.027-.085.059-.171.145-.26.116-.113 1.124-1.007 1.845-1.614.404-.518 1.848-2.366 3.548-4.328.98-1.124 2.338-2.451 3.289-3.172.894-.692 1.383-.863 1.756-.894.291-.029.408.088.436.202-1.443.663-3.664 3.317-4.875 4.787-1.933 2.338-3.144 4.154-4.01 5.425-.172.258-.403.634-.52.92-.114.287-.231.606-.028.78.202.145.634-.029.893-.174.26-.143.752-.46 1.156-.777.52-.405 1.04-.838 1.442-1.214.347-.316 1.039-.948 1.671-1.555.404-.518 1.558-2.02 2.281-2.856 1.99-2.363 3.662-3.923 5.883-5.712 1.788-1.44 4.815-3.371 7.21-3.431 2.047-.058 3.634 1.153 3.634 2.623 0 .752-.345 1.33-.664 1.674-.173.173-.315.26-.347.202-.028-.055.088-.117.23-.29.32-.374.436-.863.436-1.325 0-1.355-1.21-2.277-3.605-2.218-2.683.055-5.106 1.7-6.547 3.055-1.241 1.183-3.146 3.201-4.79 5.278-1.067 1.326-2.739 3.75-3.519 5.02-.173.287-.373.663-.49.92-.145.32-.228.665-.055.78.201.145.633-.029.893-.174.375-.202.78-.49 1.182-.806.52-.404.894-.72 1.27-1.066.116-.119.344-.32.432-.235.057.062-.028.176-.202.35-.348.345-1.068.98-1.757 1.5-.58.431-1.646 1.154-2.597 1.154-.578 0-.923-.26-.894-.78.028-.692.777-1.82 1.643-2.914l-.029-.028c-.46.402-.922.834-1.212 1.096-.345.317-1.094.982-1.729 1.472-.606.459-1.646 1.154-2.597 1.154h-.029c-.546 0-.896-.26-.865-.78.028-.402.23-.894.549-1.416.286-.489.664-1.036 1.066-1.526h-.03z" transform="translate(-109 -104) translate(109.37 104.752)"/>
                <path d="M109.185 13.585c.72-.49 1.15-1.094 1.181-1.498.029-.26-.087-.402-.349-.402-.257 0-.69.288-1.268.835-.459.432-1.181 1.355-1.526 1.933.578-.145 1.353-.463 1.962-.868m.98 1.443c.547-.373 1.212-.894 1.759-1.383.174-.146.26-.172.316-.117.058.088-.056.233-.233.376-.371.345-1.295 1.096-1.814 1.443-1.21.807-2.278 1.183-3.258 1.183-1.068 0-1.557-.405-1.529-1.157.029-.575.288-1.093.866-1.788l-.032-.026c-.085.086-.401.374-.575.518-.145.117-.23.146-.287.086-.06-.086.057-.202.17-.316.376-.348.636-.55 1.069-.865.318-.231.864-.578 1.41-.866.839-.43 1.704-.81 2.485-.81h.026c.637 0 .868.405.84.781-.06.751-.983 1.327-1.848 1.76-.837.402-1.817.751-2.48.923-.115.23-.174.492-.174.663 0 .433.23.663.663.663.376 0 1.355-.202 2.626-1.068" transform="translate(-109 -104) translate(109.37 104.752)"/>
                <path d="M113.106 16.53c-1.068 0-1.586-.434-1.53-1.211.06-.578.377-1.184.838-1.734l-.03-.026c-.086.086-.317.287-.488.43-.174.146-.32.233-.376.174-.06-.085.057-.2.174-.317.373-.344.633-.549 1.065-.865.318-.23.894-.607 1.384-.866.982-.52 1.902-.894 2.654-.778.663.115.894.548.777 1.097-.114.547-.604.983-.98.983-.489 0-.489-.405-.23-.84.319-.547.433-.894.086-.952-.316-.056-.978.374-1.787 1.214-.78.777-1.529 1.874-1.617 2.565-.057.433.203.663.666.663.374 0 1.385-.173 2.652-1.038.55-.373 1.27-.98 1.731-1.384.174-.143.26-.174.316-.115.06.086-.057.203-.23.374-.376.347-1.182 1.037-1.7 1.386-1.009.69-2.366 1.24-3.347 1.24h-.028z" transform="translate(-109 -104) translate(109.37 104.752)"/>
                <path d="M118.267 13.818c-.203.172-.289.202-.348.143-.057-.057 0-.172.202-.345.783-.692 1.558-1.384 2.107-1.876-.375 0-.692.029-1.036.029-.203 0-.347 0-.316-.143.028-.114.316-.143.774-.174.376-.028.694-.028.809-.028.894-1.097 2.048-2.364 2.711-3 .518-.517 1.21-1.183 1.817-1.183.288 0 .404.088.433.173-.348.319-1.094 1.125-1.76 1.876-.664.75-1.182 1.382-1.76 2.134.666-.029 1.182-.029 1.645-.029.232 0 .434.029.405.171-.031.174-.29.148-.52.148-.633 0-1.095 0-1.76.026-.576.694-1.558 2.164-2.077 3.172-.174.319-.259.72-.028.837.173.086.49 0 .723-.117.344-.17.834-.49 1.296-.862.519-.405 1.008-.866 1.355-1.154.143-.114.316-.29.405-.202.057.06 0 .142-.202.345-.317.318-1.154 1.068-1.76 1.53-.519.403-1.558 1.183-2.652 1.183-.666 0-.896-.376-.868-.808.057-.723.723-1.76 1.557-2.857-.458.376-.805.695-1.152 1.01" transform="translate(-109 -104) translate(109.37 104.752)"/>
                <path d="M129.34 7.502c.377 0 .548.316.203.75-.345.46-1.065.78-1.355.78-.144-.176-.172-.607-.029-.983.173-.432.604-.547 1.153-.547h.029zm-5.276 5.507c-.433.346-.751.607-1.039.867-.23.201-.345.287-.433.23-.057-.057 0-.174.318-.46.317-.291 1.356-1.155 2.048-1.616.749-.521 1.125-.637 1.672-.637.607 0 .663.088.316.463-.518.576-.98 1.125-1.556 1.846-.489.606-.836 1.125-1.01 1.415-.171.316-.202.517-.085.632.142.117.404.057.692-.086.287-.142.777-.463 1.27-.865.603-.49.863-.72 1.325-1.153.261-.234.375-.347.462-.26.087.086-.23.373-.318.461-.345.348-1.065.98-1.643 1.442-.578.461-1.558 1.184-2.511 1.184-.604 0-.864-.288-.864-.751 0-.376.202-.752.433-1.097.576-.892 1.703-2.076 2.162-2.48-.203.088-.807.521-1.239.865z" transform="translate(-109 -104) translate(109.37 104.752)"/>
                <path d="M129.022 16.241c.607 0 1.703-.78 2.626-1.672.663-.637 1.065-1.272 1.298-1.673.145-.231.288-.694.26-.923-.03-.433-.463-.52-.866-.347-.664.316-1.356.894-2.08 1.586-.862.837-1.612 1.959-1.669 2.537-.028.29.086.492.403.492h.028zm3.808-1.327c.261-.06.577-.201.982-.49.373-.26.604-.461.922-.751.26-.23.402-.376.49-.29.088.088-.088.261-.376.52-.26.232-.547.49-.92.752-.461.314-.811.462-1.098.516-.26.06-.576.06-.78-.054-.98.749-2.103 1.412-3.287 1.412h-.029c-.865 0-1.44-.461-1.384-1.27.029-.575.376-1.27.92-1.842l-.026-.034c-.202.176-.316.29-.518.464-.202.171-.319.23-.376.171-.057-.086.088-.23.203-.345.201-.202.606-.52.894-.72.373-.26.777-.519 1.383-.837.838-.433 1.7-.69 2.396-.779.287-.03.95-.087 1.355.231.257.2.404.576.347 1.012-.09.689-.78 1.555-1.645 2.334.113.055.43.027.547 0z" transform="translate(-109 -104) translate(109.37 104.752)"/>
                <path d="M139.923 15.692c.03-.635.663-1.356 1.213-2.017.433-.52.865-1.01 1.212-1.414.115-.145.174-.32.029-.405-.145-.085-.463.031-.75.174-.52.26-1.328.749-2.25 1.47-1.27.982-1.96 1.645-3.23 2.625-.26.202-.433.26-.75.26-.404 0-.606-.058-.377-.463.204-.373.81-1.326 1.27-1.933.316-.43.837-1.094 1.155-1.498.202-.259.26-.405.202-.492-.086-.112-.262-.057-.433.031-.347.171-.78.49-1.124.777-.376.317-.838.721-1.242 1.097-.287.26-.404.347-.49.26-.057-.087.086-.231.433-.55.345-.316.982-.921 1.498-1.324.78-.605 1.358-.955 1.962-.955.55 0 .723.32.723.638 0 .345-.233.72-.606 1.236-.433.578-1.04 1.358-1.358 1.82l.031.028c.692-.575 1.643-1.413 2.654-2.162 1.008-.751 2.276-1.56 3.144-1.56.603 0 .95.288.891.78-.085.522-.69 1.183-1.153 1.76-.462.55-.809 1.037-.95 1.27-.232.373-.232.547-.116.633.143.116.46 0 .693-.114.347-.174.75-.403 1.38-.894.494-.377 1.071-.894 1.387-1.185.231-.202.317-.228.374-.171.06.06-.029.171-.228.373-.26.262-1.125 1.04-1.731 1.5-.576.434-1.704 1.157-2.595 1.157-.55 0-.897-.263-.868-.752" transform="translate(-109 -104) translate(109.37 104.752)"/>
            </g>
        </g>
    </g>
</svg>
