<svg xmlns="http://www.w3.org/2000/svg" width="62" height="76" viewBox="0 0 42 23">
    <g fill="none" fill-rule="evenodd">
        <g fill="#030000">
            <g>
                <path d="M13.417 21.675L13.417 20.016 11.674 20.016 11.674 21.675 11.153 21.675 11.153 18.031 11.674 18.031 11.674 19.557 13.417 19.557 13.417 18.031 13.94 18.031 13.94 21.675zM16.498 21.277c.38 0 .674-.137.886-.408.21-.272.315-.61.315-1.017 0-.398-.108-.735-.32-1.01-.213-.276-.505-.413-.88-.413-.374 0-.67.135-.883.408-.21.273-.319.612-.319 1.015 0 .413.106.754.317 1.022.211.27.507.403.884.403m0 .461c-.538 0-.965-.172-1.28-.515-.316-.343-.473-.803-.473-1.37 0-.567.161-1.023.483-1.367.324-.344.747-.517 1.27-.517.517 0 .94.172 1.265.513.325.341.489.799.489 1.37 0 .568-.157 1.028-.473 1.37-.316.344-.742.516-1.28.516M19.751 21.675L19.751 18.491 18.621 18.491 18.621 18.031 21.405 18.031 21.405 18.491 20.275 18.491 20.275 21.675zM24.031 21.675L21.993 21.675 21.993 18.031 24.031 18.031 24.031 18.491 22.511 18.491 22.511 19.557 23.898 19.557 23.898 20.016 22.511 20.016 22.511 21.215 24.031 21.215zM26.946 21.675L24.898 21.675 24.898 18.031 25.421 18.031 25.421 21.215 26.946 21.215zM28.16 21.738c-.256 0-.517-.051-.787-.152l.051-.485c.283.118.535.176.757.176.198 0 .366-.053.507-.16.14-.106.209-.247.209-.421 0-.161-.055-.294-.164-.397-.111-.102-.312-.218-.603-.352-.282-.128-.486-.264-.612-.414-.126-.147-.187-.339-.187-.573 0-.299.107-.54.322-.721.217-.179.5-.269.848-.269.278 0 .537.043.775.13l-.072.48c-.238-.1-.467-.152-.686-.152-.187 0-.337.041-.457.123-.118.08-.177.203-.177.363 0 .14.052.252.16.34.11.089.3.196.57.32.294.14.504.29.637.455.133.166.2.378.2.634 0 .345-.122.61-.367.796-.247.186-.554.279-.925.279M34.444 7.037L40.604 15.79 37.313 15.79 32.758 9.308 27.989 15.79 25.555 15.79 31.599 7.654 26.465.278 29.699.278 33.295 5.411 37.06.278 39.483.278zM10.665 2.151L10.665.331 2.634.331 0 .331 0 2.151 0 7.305 0 9.126 0 15.751 2.634 15.751 2.634 8.507 8.873 8.507 8.873 6.684 2.634 6.684 2.634 2.151zM21.51 12.314c.015-.066.036-.165.05-.268.23-1.155-.571-.364-1.158-.155-.077.017-.158.032-.241.046-.381.066-.802.1-1.22.072-.68-.049-1.396-.225-2.041-.563.043.09.072.146.089.17.102.15.17.238.212.297.071.092.149.196.06.314-.15.202-.76.082-1.142-.07-.283-.111-.542-.243-.743-.35.116.184.286.415.521.65.147.145.33.3.476.425.287.242.346.293.332.408l-.01.094-.086.044c-.263.127-1.007-.143-1.38-.294.135.261.432.687.782.98l.108.088-.06.128c-.063.126-.187.096-.286.073-.146-.036-.495-.12-.95-.133h-.018c-.173 0-.478.061-.773.131.387.246.797.45 1.23.603 2.738.983 4.49-.235 4.883-.541.98-.762 1.278-1.755 1.366-2.15" transform="translate(-304 -226) translate(304.866 226.274)"/>
                <path d="M21.847.564c-4.132-1.6-8.957.287-10.594 4.62-1.326 3.506-.075 7.128 2.4 8.959.369-.101.895-.226 1.182-.219.208.005.397.026.556.05-.36-.42-.69-.962-.554-1.178.018-.028.114-.162.316-.067.356.162.657.263.884.32-.128-.108-.266-.23-.386-.347-.42-.423-.86-1.078-.797-1.292l.024-.08.08-.037c.105-.043.188.002.472.15.209.113.498.267.815.392.226.088.431.13.576.145-.032-.047-.072-.1-.116-.167-.061-.09-.167-.319-.316-.68-.92-.66-1.591-1.722-1.591-3.29 0-2.47 1.846-4.765 4.957-4.765 2.81 0 5.02 2.046 5.02 5.104 0 3.189-1.752 4.651-2.604 5.215l-.162.104c-.18.125-.486.368-.77.736-.066.1-.13.19-.192.277 0 .002-.004.004-.005.007h.001c-.394.534-.755.86-1.163 1.194-.133.128-.285.327.015.333 1.907-.248 5.033-1.503 6.44-5.132 1.572-4.06-.355-8.752-4.488-10.352" transform="translate(-304 -226) translate(304.866 226.274)"/>
            </g>
        </g>
    </g>
</svg>
