<svg xmlns="http://www.w3.org/2000/svg" width="58" height="76" viewBox="0 0 36 36">
    <g fill="none" fill-rule="evenodd">
        <g fill="#030000">
            <path d="M223.992 182.652c1.1-.816 2.135-1.568 3.141-2.358.13-.102.137-.41.133-.621-.024-1.994-.115-3.986-.08-5.976.037-2.033.243-4.057.893-6.004.31-.917.726-1.773 1.435-2.458.849-.82 1.875-1.195 3.001-.859.902.271 1.758.722 2.588 1.181.524.29.58.893.254 1.35-.294.414-.838.494-1.335.216-.5-.281-.987-.6-1.517-.803-.84-.321-1.434-.108-1.948.628-.713 1.018-.976 2.205-1.163 3.398-.44 2.816-.384 5.653-.267 8.487.004.089.036.178.059.281.968-.331 1.9-.668 2.84-.966 1.9-.599 3.862-.787 5.84-.855.734-.025 1.188.342 1.208.936.02.564-.443.966-1.166.98-2.789.064-5.48.565-8.027 1.754-.452.212-.608.458-.545.963.308 2.434.584 4.87.848 7.306.033.287.018.687-.153.86-.221.222-.622.38-.94.372-.438-.012-.697-.38-.751-.821-.277-2.186-.54-4.373-.81-6.557-.023-.184-.042-.365-.086-.73-.784.678-1.43 1.292-2.136 1.827-.675.512-.773 1.062-.545 1.867.55 1.938.943 3.924.809 5.952-.055.823-.218 1.684-.542 2.436-.523 1.23-1.591 1.704-2.909 1.592-1.217-.103-2.088-.711-2.527-1.866-.498-1.304-.389-2.638-.121-3.97.394-1.972 1.231-3.742 2.559-5.26.287-.326.351-.63.253-1.041-.16-.688-.273-1.387-.418-2.157-.325.487-.593.94-.912 1.348-.606.774-1.288 1.47-2.238 1.833-1.704.653-3.35-.235-3.622-2.035-.108-.702.016-1.44.045-2.164.011-.28.052-.56-.04-.92-.347.307-.687.626-1.043.92-1.045.868-2.03 1.827-3.162 2.563-1.949 1.27-3.971.633-5.05-1.449-.709-1.372-.975-2.86-1.109-4.372-.341-3.813-.106-7.618.175-11.425.078-1.03.165-2.063.271-3.091.079-.768.462-1.136 1.062-1.073.6.06.872.478.818 1.272-.185 2.85-.422 5.696-.547 8.549-.112 2.526-.132 5.066.442 7.55.164.717.46 1.43.838 2.058.487.81 1.195.987 1.962.436 1.146-.825 2.196-1.782 3.287-2.684.472-.39.916-.823 1.42-1.166 1.162-.782 2.362-.285 2.556 1.112.103.744-.019 1.521-.04 2.284-.012.399-.088.807-.03 1.198.104.7.628.97 1.21.571.526-.36 1.033-.81 1.404-1.322.976-1.349 1.384-2.928 1.655-4.548.126-.75.799-1.145 1.38-.769.25.163.47.522.523.824.279 1.565.496 3.14.738 4.709.035.222.082.443.132.707m-.94 4.254c-.14.084-.2.1-.231.142-.092.12-.179.249-.259.379-.74 1.234-1.21 2.566-1.343 3.996-.057.617-.018 1.267.114 1.872.159.724.776 1.006 1.474.776.557-.187.748-.693.767-1.181.044-1.105.053-2.216-.037-3.314-.072-.882-.311-1.748-.485-2.67" transform="translate(-204 -161)"/>
        </g>
    </g>
</svg>
