<svg xmlns="http://www.w3.org/2000/svg" width="110" height="76" viewBox="0 0 67 48">
    <g fill="none" fill-rule="evenodd">
        <g fill="#030000">
            <g>
                <path d="M27.685 12.468c1.912.031 3.596 1.24 4.026 2.831l-.128.125c-.573-.998-1.756-1.679-3.124-1.679-.17 0-.348.016-.512.034-.118-.429-.198-.866-.262-1.311" transform="translate(-281 -87) translate(281.78 87.912)"/>
                <path d="M28.29 14.742c.25-.066.513-.102.785-.102.932 0 1.76.419 2.263 1.055-.035.047-.07.093-.1.136-.38-.262-.826-.414-1.335-.414-.436 0-.835.116-1.182.32-.168-.32-.299-.657-.43-.995M29.121 16.435c.365-.296.845-.478 1.369-.478.212 0 .412.027.606.084-.036.057-.057.113-.085.166-.542.07-1.003.52-1.253 1.137-.226-.283-.443-.6-.637-.91M27.572 8.894l-.009-.86c.762-.074 1.252-.122 2.024-.163 1.562 1.185 2.887 3.542 2.887 6.29 0 .204.003.4-.01.6-.053.025-.108.056-.158.084-.079-3.24-2.255-5.777-4.734-5.951M37.888 12.468c-.066.445-.144.882-.263 1.311-.165-.018-.341-.034-.51-.034-1.369 0-2.554.681-3.128 1.68l-.127-.126c.432-1.591 2.114-2.8 4.028-2.831" transform="translate(-281 -87) translate(281.78 87.912)"/>
                <path d="M37.282 14.742c-.132.338-.263.675-.43.994-.345-.203-.748-.32-1.185-.32-.507 0-.957.153-1.333.415l-.101-.136c.504-.636 1.329-1.055 2.264-1.055.272 0 .536.036.785.102M36.448 16.435c-.192.308-.41.626-.632.91-.255-.618-.714-1.069-1.255-1.138-.03-.053-.052-.109-.085-.166.191-.057.392-.084.605-.084.523 0 1.004.182 1.367.478M37.999 8.894c-2.48.174-4.658 2.71-4.734 5.951-.052-.028-.107-.059-.162-.084-.01-.2-.007-.396-.007-.6 0-2.748 1.325-5.105 2.89-6.29.77.04 1.26.089 2.024.162l-.011.86zM32.776 19.926c-.232-.132-.462-.27-.684-.418 0 0-.067-2.041-1.074-2.473 0 0 .469-1.417 1.764-2 1.293.583 1.77 2 1.77 2-1.005.432-1.075 2.473-1.075 2.473-.221.147-.447.286-.683.418h-.018zm-.43-3.29c0 .236.206.426.463.426.255 0 .461-.19.461-.426 0-.233-.206-.424-.461-.424-.257 0-.463.19-.463.424zM32.28 4.005c0 .282.224.514.506.514.278 0 .506-.232.506-.514 0-.287-.228-.516-.506-.516-.282 0-.507.23-.507.516m.507-1.144c.062-.713.825-1.064 1.28-.943.394.104.896.476.633 1.132 0 0-.212-.379-.577-.32-.536.083-.618 1.202.577 1.33.997.104 1.395-.628.897-.84-.153-.065-.33.11-.33.11-.138-.39.455-.865.979-.502.315.218.289.784.096 1.133.193.016.455-.166.592-.405 0 0 .171-.191.318-.251.258-.109.466-.08.714.053-.606.519-.957 1.404-1.114 2.06-.84-.04-2.56-.169-4.065-.172-1.505.003-3.225.132-4.065.173-.156-.657-.508-1.542-1.114-2.061.245-.135.457-.162.716-.053.144.06.317.25.317.25.137.24.4.422.591.406-.191-.35-.22-.915.097-1.133.522-.363 1.114.111.975.502 0 0-.175-.175-.328-.11-.495.212-.1.944.895.84 1.198-.128 1.113-1.247.577-1.33-.365-.059-.577.32-.577.32-.262-.656.242-1.028.632-1.132.458-.12 1.22.23 1.284.943" transform="translate(-281 -87) translate(281.78 87.912)"/>
                <path d="M32.172 1.008L32.786 0 33.401 1.008 32.786 2.065zM20.482 8.62c.318-2.634-1.281-3.713-1.72-4.667-.66-1.442.371-2.48 1.443-2.5-.632.643-.87 1.355-.752 2.285.149 1.215 1.958 2.397 1.03 4.881M18.493 15.184c.346.007 1.07-.445 1.28-.617-.704-.535-1.187-1.36-1.23-1.873-.132-1.545.833-1.718 1.813-3.786-.372 1.94-1.704 2.09-1.438 3.652.144.856.84 1.606 1.805 2.007 0 0-.918.697-1.654 1.106.653.919.738 2.72 1.474 3.282 0 0 .068.617.054.722-.341-.285-.96-.495-1.213-.526v-.355s-.299-.185-.333-.203c.262-1.027-.244-2.276-.684-3.172l.126-.237zM15.346 11.108c1.044-.318.325-3.81 2.125-3.352.919.233.925 1.609.632 2.606-.332 1.136-1.486 2.687-.681 3.016.325.134.608-.062.817-.488-.12.624-.645 1.089-1.088.95-.604-.189-.732-1.084-.583-2.182.106-.776.664-1.798.288-2.17-.382-.378-.648 1.96-1.51 1.62M32.784 14.633c-.065.02-.029.016-.088.045-.008-.517-.014-.976-.014-1.502 0-1.962-.439-3.765-1.15-5.167 0 0 1.104-.874 1.26-1.471.154.597 1.257 1.47 1.257 1.47-.711 1.403-1.15 3.206-1.15 5.168 0 .526-.005.985-.012 1.502-.06-.029-.038-.026-.103-.045M32.048 15.011c-.056.04-.109.08-.163.123-.246-2.017-1.972-3.673-4.302-3.725.004-.023-.004-1.33-.004-1.33 2.567.07 4.377 2.275 4.469 4.932M33.522 15.011c.091-2.657 1.903-4.862 4.47-4.932l-.004 1.33c-2.33.052-4.058 1.708-4.304 3.725-.052-.043-.107-.084-.162-.123M45.09 8.62c-.93-2.485.882-3.667 1.03-4.882.117-.93-.12-1.642-.753-2.285 1.073.02 2.103 1.058 1.443 2.5-.437.954-2.037 2.033-1.72 4.666M47.078 15.184l.128.237c-.442.896-.946 2.145-.686 3.172-.032.018-.332.203-.332.203v.355c-.25.03-.873.24-1.212.526-.014-.105.055-.722.055-.722.734-.561.819-2.363 1.472-3.282-.734-.41-1.653-1.106-1.653-1.106.966-.4 1.66-1.151 1.807-2.007.264-1.563-1.067-1.713-1.44-3.652.978 2.068 1.945 2.24 1.813 3.786-.045.514-.527 1.338-1.229 1.873.21.172.932.624 1.277.617M50.226 11.108c-.861.34-1.129-1.998-1.509-1.62-.374.372.182 1.394.287 2.17.149 1.098.024 1.993-.583 2.182-.443.139-.969-.326-1.087-.95.208.426.49.622.816.488.807-.329-.35-1.88-.682-3.016-.29-.997-.287-2.373.635-2.606 1.8-.457 1.078 3.034 2.123 3.352" transform="translate(-281 -87) translate(281.78 87.912)"/>
                <path d="M35.374 19.548c.133-.13.405-.406.53-.54l3.546.004c.088-.264.253-.775.258-1.007l.185-.238c.7-.218 1.975-1.29 2.022-1.527-.307-.869-.657-3.412.723-4.46-.83.968.453 3.108 2.814 4.053-.807-.148-1.555-.448-2.158-.87 0 0-.433.843-.524 1.795l-.19.173c-.75.135-1.738 1.024-1.927 1.475l.118.606 2.57.002v.534h-7.967zm-12.44-7.768c1.378 1.048 1.031 3.591.723 4.46.046.238 1.322 1.31 2.02 1.527l.186.238c.007.23.17.738.26 1.002l3.553.005c.116.127.239.25.363.37l.207.166h-7.77v-.545l2.327.004.12-.601c-.191-.45-1.18-1.34-1.93-1.475l-.191-.173c-.09-.952-.525-1.795-.525-1.795-.6.422-1.35.722-2.156.87 2.358-.945 3.646-3.085 2.814-4.053zM41.49 8.265c-.23 1.145.327 2.247 1.4 3.215-.139 0-.347.023-.417 0-.479-.35-1.21-1.527-1.723-2.94-.55.124-.695-.08-.861-.099-.016.45-.802 1.62-1.03 1.95v.463c0 4.43-2.456 8.274-6.07 10.185-3.614-1.911-6.074-5.755-6.074-10.185l.001-.463c-.226-.33-1.014-1.5-1.032-1.95-.166.02-.31.223-.862.098-.512 1.414-1.243 2.592-1.719 2.94-.073.024-.277 0-.418 0 1.071-.967 1.632-2.07 1.393-3.218 1.13.057 1.198-.1 1.382-.181l.399.028c.06.164.684 1.493.857 1.86v-2.71l.235-.023-.144-.107-.767-.62s-.324.319-.393.524c-.014.044.197.247.292.322-.003.01-.331-.138-.336-.128-.008.025-.401-.3-.878-.3-.358-.337-.665-.493-.92-.545-.101-.493-1.188-1.823-1.552-2.024-.412-.226-.623-.328-.892-.403.614-.042 1.129-.465 1.129-.465l.904.195c.15-.069.232-.155.287-.313.112-.32-.287-.611-.64-.78-.308-.15-.616-.193-.898-.258-.209-.384-.423-.588-.82-.764-.316-.138-.529-.163-.87-.13L20.065.37l1.002.843c.237-.026.378-.013.608.045.497.125.573.6 1.04.812.34.155.583.092.92.255.277.132.428.236.65.45-.176.135-.359.408-.407.577-.063.22.119.364.073.52-.05.17-.068.182-.146.273l-1.32-.347-.291.195s1.34.847 1.764 1.917c.22.222.33.203.491.294 0 0 .74-.476 1.286-.7.121-.034.339-.034.444.012.142.044 1.08 1.135 1.641 1.64 1.314-.111 2.642-.177 3.978-.2-.15.156-.297.265-.44.38-1.44.032-2.943.133-4.286.261l.003 3.237c0 4.217 2.307 7.887 5.7 9.777 3.395-1.89 5.725-5.56 5.725-9.777l.002-3.237c-1.36-.132-2.87-.24-4.325-.273-.149-.122-.256-.212-.403-.368 1.336.023 2.664.089 3.979.2.561-.505 1.499-1.596 1.641-1.64.106-.046.323-.046.444-.011.545.223 1.287.699 1.287.699.162-.091.27-.073.488-.294.428-1.07 1.766-1.917 1.766-1.917l-.292-.195-1.32.347c-.079-.09-.097-.103-.146-.273-.043-.156.138-.3.075-.52-.049-.17-.233-.442-.409-.576.22-.217.374-.319.653-.45.334-.164.58-.099.92-.256.462-.215.542-.686 1.038-.812.23-.058.371-.07.606-.045l1.003-.843-.387 1.068c-.342-.03-.553-.01-.871.13-.396.178-.611.38-.818.764-.283.065-.59.109-.899.259-.35.168-.753.46-.64.779.058.158.14.244.29.313l.9-.195s.517.423 1.132.465c-.271.075-.484.177-.894.403-.363.2-1.449 1.53-1.552 2.024-.255.052-.561.208-.92.545-.475 0-.87.325-.876.3-.006-.01-.333.139-.337.128.094-.075.304-.278.292-.322-.07-.205-.394-.524-.394-.524l-.766.62-.145.107.236.023v2.71c.172-.367.795-1.696.855-1.86l.4-.028c.185.082.253.238 1.376.185zM2.694 43.366c-.205-.214-.531-.337-.826-.337-.299 0-.679.117-.679.486 0 .733 1.81.722 1.81 1.712 0 .571-.59 1.108-1.41 1.108-.321 0-.64-.05-.94-.16l-.153-.67c.31.272.741.443 1.151.443.3 0 .752-.182.752-.556 0-.834-1.808-.684-1.808-1.818 0-.675.677-.93 1.318-.93.264 0 .531.037.785.118v.604zM5.064 45.798l.668.065c.346.034.71-.079.974-.316l-.222.7H4.29c.27-.11.24-.506.24-.746v-2.017c0-.246.03-.635-.24-.739l1.683-.014c.09 0 .178.01.248-.028l.016.625c-.179-.192-.394-.213-.637-.213-.183 0-.368.005-.536.037v.994h.625c.084 0 .17 0 .232-.032l.016.567c-.1-.153-.32-.148-.485-.148h-.388v1.265zM9.154 42.73c.704 0 1.09.374 1.09.86 0 .471-.405.84-.837.943l.756.966c.22.28.553.558.853.749h-.484c-.28 0-.453-.068-.61-.267l-.641-.806-.485-.755c.42-.064.91-.263.91-.765 0-.386-.326-.608-.678-.594-.122.005-.237.021-.357.043v2.395c0 .246-.032.636.235.733l-1.003.016c.267-.113.23-.509.23-.749v-2.016c0-.245.037-.635-.23-.738l1.251-.015zM13.922 43.697c.14-.38.321-.82-.006-.951l.785-.014-1.389 3.676c-.367-.246-.488-.289-.641-.711l-.793-2.187c-.1-.273-.179-.583-.41-.764l.766-.014-.005.063c0 .118.1.378.142.496l.836 2.326.715-1.92zM16.025 43.484c0-.247.038-.637-.232-.738l1-.015c-.264.116-.231.511-.231.753v2.015c0 .24-.033.633.231.734l-1 .014c.264-.111.232-.507.232-.748v-2.015zM20.768 43.392c-.289-.187-.626-.304-.973-.304-.726 0-1.23.54-1.23 1.317 0 .784.525 1.485 1.335 1.485.393 0 .79-.143 1.12-.338l-.252.623c-.248.115-.52.158-.795.158-1.241 0-2.009-.706-2.009-1.85 0-1.106.768-1.84 1.846-1.84.322 0 .648.06.958.134v.615zM22.903 45.798l.666.065c.348.034.711-.079.973-.316l-.22.7h-2.193c.268-.11.235-.506.235-.746v-2.017c0-.246.033-.635-.235-.739l1.683-.014c.089 0 .178.01.245-.028l.017.625c-.179-.192-.394-.213-.636-.213-.184 0-.367.005-.535.037v.994h.623c.086 0 .17 0 .232-.032l.016.567c-.1-.153-.32-.148-.485-.148h-.386v1.265zM26.492 45.825c.127.027.253.038.384.038.784 0 1.482-.417 1.482-1.34 0-.938-.515-1.408-1.394-1.408-.156 0-.313.02-.472.058v2.652zm-.536-2.363c0-.244.038-.637-.23-.717l1.287-.014c1.2 0 1.946.661 1.946 1.725 0 1.054-.795 1.792-1.971 1.792h-1.262c.262-.198.23-.455.23-.769v-2.017zM33.827 42.73c.703 0 1.086.374 1.086.86 0 .471-.404.84-.835.943l.757.966c.221.28.552.558.852.749h-.485c-.278 0-.45-.068-.609-.267l-.642-.806-.483-.755c.421-.064.911-.263.911-.765 0-.386-.327-.608-.68-.594-.12.005-.236.021-.358.043v2.395c0 .246-.03.636.237.733l-1.003.016c.267-.113.232-.509.232-.749v-2.016c0-.245.035-.635-.232-.738l1.252-.015zM37.097 45.798l.669.065c.345.034.709-.079.972-.316l-.22.7h-2.193c.267-.11.235-.506.235-.746v-2.017c0-.246.032-.635-.235-.739l1.681-.014c.089 0 .18.01.247-.028l.017.625c-.179-.192-.394-.213-.636-.213-.186 0-.368.005-.537.037v.994h.625c.084 0 .17 0 .233-.032l.014.567c-.098-.153-.32-.148-.484-.148h-.388v1.265zM41.982 43.366c-.205-.214-.533-.337-.825-.337-.299 0-.679.117-.679.486 0 .733 1.809.722 1.809 1.712 0 .571-.59 1.108-1.41 1.108-.32 0-.641-.05-.941-.16l-.151-.67c.31.272.741.443 1.151.443.299 0 .752-.182.752-.556 0-.834-1.809-.684-1.809-1.818 0-.675.677-.93 1.321-.93.262 0 .527.037.782.118v.604zM43.784 43.484c0-.247.038-.637-.23-.738l.999-.015c-.263.116-.232.511-.232.753v2.015c0 .24-.03.633.232.734l-.998.014c.262-.111.23-.507.23-.748v-2.015zM46.577 45.825c.125.027.25.038.383.038.785 0 1.483-.417 1.483-1.34 0-.938-.515-1.408-1.394-1.408-.158 0-.315.02-.472.058v2.652zm-.538-2.363c0-.244.037-.637-.23-.717l1.288-.014c1.198 0 1.945.661 1.945 1.725 0 1.054-.793 1.792-1.972 1.792h-1.262c.262-.198.23-.455.23-.769v-2.017zM51.08 45.798l.67.065c.347.034.71-.079.973-.316l-.224.7h-2.192c.271-.11.239-.506.239-.746v-2.017c0-.246.032-.635-.239-.739l1.685-.014c.089 0 .178.01.245-.028l.017.625c-.18-.192-.394-.213-.637-.213-.185 0-.368.005-.536.037v.994h.623c.086 0 .172 0 .234-.032l.016.567c-.1-.153-.32-.148-.483-.148h-.39v1.265zM54.545 45.552c0 .3-.003.516.275.681l-.932.015c.278-.18.278-.396.278-.696V43.42c0-.3 0-.513-.273-.674l.768-.013c.022.067.043.093.08.137l.074.106 1.924 2.472V43.42c0-.3.004-.513-.274-.674l.925-.013c-.273.174-.273.388-.273.687v3.001c-.374-.128-.536-.304-.768-.611l-1.804-2.326v2.07zM61.3 43.392c-.288-.187-.623-.304-.971-.304-.725 0-1.23.54-1.23 1.317 0 .784.526 1.485 1.335 1.485.394 0 .79-.143 1.12-.338l-.254.623c-.246.115-.518.158-.79.158-1.243 0-2.01-.706-2.01-1.85 0-1.106.767-1.84 1.845-1.84.32 0 .648.06.955.134v.615zM63.437 45.798l.667.065c.348.034.71-.079.973-.316l-.221.7h-2.192c.267-.11.237-.506.237-.746v-2.017c0-.246.03-.635-.237-.739l1.682-.014c.09 0 .179.01.246-.028l.016.625c-.178-.192-.394-.213-.636-.213-.183 0-.367.005-.535.037v.994h.624c.086 0 .17 0 .232-.032l.016.567c-.1-.153-.321-.148-.483-.148h-.389v1.265zM5.347 26.532c-.499-.52-1.292-.819-2.008-.819-.729 0-1.65.285-1.65 1.184 0 1.783 4.4 1.756 4.4 4.164 0 1.392-1.431 2.693-3.43 2.693-.78 0-1.559-.116-2.288-.39L0 31.736c.754.663 1.802 1.082 2.8 1.082.731 0 1.831-.444 1.831-1.354 0-2.029-4.4-1.663-4.4-4.424 0-1.64 1.648-2.264 3.211-2.264.638 0 1.29.092 1.905.285v1.47zM8.916 29.122c0 1.82 1.265 3.696 3.273 3.696 1.945 0 3.187-1.444 3.187-3.383 0-1.901-1.19-3.736-3.211-3.736-1.984 0-3.25 1.459-3.25 3.423m7.919.051c0 2.654-2.162 4.581-4.707 4.581-2.533 0-4.67-1.846-4.67-4.515 0-2.474 2.11-4.541 4.798-4.477 2.686-.013 4.579 2.068 4.579 4.411M25.8 25.805c.104-.275.193-.533.193-.808l2.214-.014v.04c-.308.09-.4.467-.4.768l.847 6.39c.077.61.141.961.65 1.325v.039h-2.466v-.039c.448-.142.524-.533.524-.977l-.729-6.27-2.866 7.455c-.64-.494-.818-.844-1.126-1.574l-2.43-5.867-.728 5.595c-.104.793-.193 1.366.408 1.638v.041h-2.084v-.04c.536-.482.613-1.119.715-1.822l.73-5.452c.05-.364.19-.885-.395-1.21v-.04h2.239c0 .223.1.417.178.6l2.402 5.738 2.125-5.516zM32.349 32.453l1.627.155c.843.078 1.727-.195 2.367-.767h.04l-.576 1.704h-5.339v-.039c.654-.233.578-1.196.578-1.782v-4.905c0-.599.076-1.549-.578-1.795v-.04h4.096c.218 0 .434.026.6-.066h.038v1.523h-.037c-.397-.47-.922-.52-1.51-.52-.447 0-.896.014-1.306.093v2.418h1.523c.206 0 .409 0 .564-.079h.04v1.38h-.04c-.205-.376-.741-.365-1.14-.365h-.947v3.085zM40.769 24.983c1.714 0 2.648.911 2.648 2.096 0 1.146-.984 2.042-2.034 2.289l1.842 2.356c.538.677 1.345 1.355 2.072 1.821H44.12c-.676 0-1.098-.169-1.482-.65l-1.563-1.965-1.176-1.836c1.022-.156 2.213-.637 2.213-1.858 0-.938-.793-1.485-1.65-1.446-.294.015-.576.053-.87.104v5.83c0 .598-.075 1.548.576 1.782v.04h-2.444v-.04c.653-.234.564-1.196.564-1.782v-4.905c0-.599.089-1.55-.564-1.797v-.04h3.045zM50.999 26.532c-.499-.52-1.29-.819-2.007-.819-.729 0-1.65.285-1.65 1.184 0 1.783 4.4 1.756 4.4 4.164 0 1.392-1.431 2.693-3.429 2.693-.78 0-1.56-.116-2.29-.39l-.372-1.628c.757.663 1.804 1.082 2.802 1.082.73 0 1.831-.444 1.831-1.354 0-2.029-4.4-1.663-4.4-4.424 0-1.64 1.648-2.264 3.21-2.264.64 0 1.291.092 1.905.285v1.47zM54.482 32.453l1.623.155c.847.078 1.727-.195 2.367-.767h.04l-.577 1.704h-5.334v-.039c.652-.233.575-1.196.575-1.782v-4.905c0-.599.077-1.549-.575-1.795v-.04h4.092c.22 0 .437.026.603-.066h.039v1.523h-.039c-.396-.47-.922-.52-1.51-.52-.447 0-.895.014-1.304.093v2.418h1.523c.204 0 .408 0 .561-.079h.04v1.38h-.04c-.205-.376-.74-.365-1.137-.365h-.947v3.085zM62.874 31.854c0 .743-.013 1.25.665 1.652v.04h-2.534v-.04c.64-.246.564-1.196.564-1.782V25.92h-1.126c-.55 0-1.125.144-1.522.521h-.039l.447-1.55h.042c.15.067.317.067.484.092h5.09c.218 0 .424-.013.588-.091h.04l-.41 1.549h-.038c-.167-.455-.679-.52-1.1-.52h-1.151v5.933zM32.845 38.557C23.119 38.551.395 38.4.395 38.4v-.338s22.724-.134 32.45-.14c9.725.006 32.33.14 32.33.14v.338s-22.605.151-32.33.157" transform="translate(-281 -87) translate(281.78 87.912)"/>
            </g>
        </g>
    </g>
</svg>
