<svg xmlns="http://www.w3.org/2000/svg" width="108" height="76" viewBox="0 0 69 30">
    <g fill="none" fill-rule="evenodd">
        <g fill="#030000">
            <g>
                <path d="M18.736 23.539L19.259 23.539 19.259 25.49 21.855 25.49 21.855 23.539 22.377 23.539 22.377 28.213 21.855 28.213 21.855 25.974 19.259 25.974 19.259 28.213 18.736 28.213zM25.746 23.45c1.347 0 2.434 1.027 2.434 2.429 0 1.403-1.087 2.43-2.434 2.43-1.35 0-2.435-1.027-2.435-2.43 0-1.402 1.086-2.428 2.435-2.428m0 4.374c1.1 0 1.911-.832 1.911-1.946 0-1.112-.811-1.944-1.911-1.944s-1.918.832-1.918 1.944c0 1.114.818 1.946 1.918 1.946M29.77 24.021L28.496 24.021 28.496 23.538 31.567 23.538 31.567 24.021 30.293 24.021 30.293 28.214 29.77 28.214zM32.387 23.539L35.029 23.539 35.029 24.022 32.91 24.022 32.91 25.504 34.902 25.504 34.902 25.987 32.91 25.987 32.91 27.73 35.076 27.73 35.076 28.213 32.387 28.213zM36.069 23.539L36.592 23.539 36.592 27.73 38.516 27.73 38.516 28.213 36.069 28.213zM39.436 26.979c.208.504.576.846 1.175.846.85 0 .938-.584.938-.825 0-.557-.39-.751-1.046-1.04-.711-.316-1.228-.59-1.228-1.347 0-.67.543-1.162 1.282-1.162.596 0 .999.263 1.26.745l-.45.228c-.174-.328-.414-.49-.818-.49-.409 0-.75.276-.75.664 0 .504.389.665.952.92.858.382 1.32.69 1.32 1.475 0 .744-.508 1.315-1.467 1.315-.718 0-1.336-.35-1.617-1.12l.449-.21zM28.248 12.494c-.35 0-.7-.06-1.042-.027-.528.052-1.095.063-1.562.273-.643.291-1.208.753-1.83 1.157-.01-.029-.035-.072-.029-.11.033-.198.08-.398.114-.596.053-.308-.31-.811-.633-.874-.27-.054-.7.237-.75.552-.124.772-.506 1.356-1.155 1.787-.361.239-.69.525-1.05.765-.589.397-1.16.832-1.794 1.138-.506.245-1.109.285-1.646.479-.733.265-1.483.223-2.214.116-.456-.067-.894-.309-1.312-.525-.127-.067-.162-.308-.239-.472.14-.053.276-.128.42-.153.372-.061.751-.077 1.119-.153.554-.112 1.12-.21 1.647-.406.741-.277 1.47-.596 2.161-.975.46-.252.493-.532.138-.909-.271-.288-.638-.528-1.01-.67-.321-.125-.72-.157-1.062-.097-.408.071-.782.342-1.188.429-1.019.218-1.898.652-2.601 1.432-.098.109-.283.221-.41.204-.599-.08-1.21-.03-1.758-.456-.494-.384-1.038-.166-1.003.298.03.39.281.69.64.826.56.213 1.141.373 1.666.539.112.388.13.836.35 1.142.642.88 1.637 1.188 2.66 1.23 1.528.056 3.023-.18 4.371-.984.777-.463 1.626-.81 2.28-1.471.252-.254.565-.449.849-.671l.116.043c-.065.455-.141.909-.192 1.364-.038.34-.18.669.212.968.262.2.469.319.775.21.355-.125.51-.411.575-.761.055-.301.074-.613.164-.903.29-.924.887-1.632 1.628-2.228.066-.052.152-.076.23-.11.785-.314 1.618-.263 2.435-.318.524-.037.632-.11.621-.54-.01-.327-.294-.542-.691-.543zm-13.77 1.966l.711-.437.876-.327.658-.165.546.219-.109.273-.162.273-.658.328s-.22.055-.495.055c-.273 0-.71.054-.71.054s-.11 0-.439.111c-.33.109-.383.165-.547.165h-.384l.713-.549zM37.426 15.615c.155.317.314.572.41.85.44 1.273 1.692 1.628 2.632 1.252.518-.21 1.069-.308 1.522-.725.664-.608 1.432-1.1 2.142-1.662.243-.193.378-.241.492.113.103.314.204.656.406.902.929 1.126 2.146 1.83 3.568 2.085.89.163 1.816.165 2.726.157.893-.008 1.787-.101 2.674-.193.701-.073 1.395-.209 2.095-.3.863-.115 1.73-.213 2.595-.326.829-.107 1.655-.233 2.484-.34.817-.106 1.635-.218 2.457-.3.896-.087 1.797-.232 2.678.132.24.102.94-.298.993-.528.097-.4-.243-1.071-.712-1.06-.348.01-.693.115-1.043.153-.675.07-1.357.103-2.032.198-1.46.207-2.912.452-4.37.665-.827.119-1.66.202-2.485.313-.162.02-.309.136-.467.155-.784.095-1.57.174-2.357.248-.522.049-1.043.092-1.564.11-1.346.048-2.67-.012-3.996-.33-1.434-.34-2.315-1.196-2.756-2.534-.096-.292-.03-.727.131-.993.246-.407.372-.726.1-1.172-.269-.441-.634-.664-1.024-.503-.414.17-.547.583-.399 1.08.042.135 0 .364-.094.462-.435.449-.894.877-1.363 1.292-.412.368-.834.728-1.284 1.047-.256.182-.566.3-.863.404-.32.111-.654.177-.983.257-.479.116-.567-.264-.783-.556-.563-.777-.559-1.48.029-2.21.23-.282.114-.505-.012-.707-.102-.165-.31-.35-.482-.359-.216-.014-.54.076-.643.236-.29.452-.42 1.02-.747 1.438-.56.715-1.94 3.005-4.222 2.68-.738-.105-.912-1.366-1.041-2.013-.16-.816-.065-1.685-.049-2.53.021-.952.072-1.905.12-2.856.012-.267.163-.417.447-.443 1.528-.132 3.053-.296 4.584-.399 1.068-.073 2.141-.083 3.211-.078.794.004 1.585.106 2.378.122 1.146.022 2.293-.046 3.433.034.693.047 1.42-.11 2.082.237.191.097.384.235.588.26.225.028.58.024.667-.107.17-.256.503-.538.255-.934-.285-.455-.648-.641-1.229-.627-1.543.036-3.087-.026-4.63-.052-.956-.014-1.912-.065-2.867-.04-1.386.033-2.774.088-4.157.187-1.267.094-2.527.26-3.789.39-.207.02-.418.031-.623.008-.091-.01-.255-.124-.25-.177.04-.456.023-.945.196-1.347.157-.362.044-.589-.141-.808-.226-.265-.517-.127-.755.013-.1.055-.185.21-.194.327-.047.559-.047 1.124-.101 1.683-.013.149-.128.31-.239.424-.32.326-.341.607-.104 1.005.101.17.151.397.148.596-.013.923-.05 1.847-.088 2.77-.008.167-.086.333-.083.5.043 3.21.863 4.85 2.012 4.934 3.345.246 4.43-2.13 4.766-2.51M12.53.45c-.334.512-.727.91-.878 1.384-.24.755-.303 1.564-.474 2.343-.153.703-.36 1.396-.528 2.096-.125.52-.213 1.047-.338 1.569-.076.317-.196.627-.281.943-.218.809-.4 1.63-.647 2.43-.348 1.122-.73 2.233-1.117 3.342-.27.773-.528 1.555-.867 2.3-.391.87-.785 1.756-1.653 2.298-.49.304-1.464.15-1.816-.313-.374-.494-3.366-6.47-3.929-15.06-.02-.324.112-.732.498-1.031.07-.055.317-.13.357-.104.245.158.255.395.275.563C2.224 12.165 4.446 17.518 4.67 17.8c.161.201.285.204.515-.039.952-1.003 1.385-2.29 1.932-3.5.428-.95.612-2.011.923-3.015.228-.741.501-1.468.729-2.209.149-.48.238-.977.378-1.463.155-.538.361-1.06.504-1.6.138-.526.244-1.063.33-1.6.165-1.011.3-2.026.462-3.038.047-.295.116-.59.205-.877.118-.364.342-.561.756-.405.35.133.702.247 1.126.396" transform="translate(-29 -222) translate(29.503 222.38)"/>
            </g>
        </g>
    </g>
</svg>
