<svg width="22" height="22" viewBox="0 0 22 22" fill="none" xmlns="http://www.w3.org/2000/svg">
<path d="M21.1836 10.8362L12.1274 1.78468L11.5204 1.17765C11.382 1.04025 11.195 0.963135 11 0.963135C10.8051 0.963135 10.618 1.04025 10.4797 1.17765L0.816455 10.8362C0.674731 10.9774 0.562724 11.1455 0.487045 11.3307C0.411367 11.5159 0.373551 11.7143 0.37583 11.9144C0.385205 12.7394 1.07192 13.398 1.89692 13.398H2.89302V21.0316H19.1071V13.398H20.1243C20.525 13.398 20.9024 13.2409 21.186 12.9573C21.3256 12.8181 21.4363 12.6526 21.5115 12.4704C21.5867 12.2881 21.6251 12.0928 21.6243 11.8956C21.6243 11.4972 21.4672 11.1198 21.1836 10.8362ZM12.3125 19.3441H9.68755V14.5628H12.3125V19.3441ZM17.4196 11.7105V19.3441H13.8125V14.0003C13.8125 13.4823 13.393 13.0628 12.875 13.0628H9.12505C8.60708 13.0628 8.18755 13.4823 8.18755 14.0003V19.3441H4.58052V11.7105H2.33052L11.0024 3.04562L11.5438 3.58702L19.6719 11.7105H17.4196Z" fill="#9395A3"/>
</svg>
