<svg width="4" height="14" viewBox="0 0 4 14" fill="none" xmlns="http://www.w3.org/2000/svg">
<path d="M0.765625 2.06055C0.765625 2.38792 0.895675 2.70189 1.12716 2.93338C1.35866 3.16487 1.67262 3.29492 2 3.29492C2.32738 3.29492 2.64134 3.16487 2.87283 2.93338C3.10432 2.70189 3.23438 2.38792 3.23438 2.06055C3.23438 1.73317 3.10432 1.4192 2.87283 1.18771C2.64134 0.956222 2.32738 0.826172 2 0.826172C1.67262 0.826172 1.35866 0.956222 1.12716 1.18771C0.895675 1.4192 0.765625 1.73317 0.765625 2.06055ZM0.765625 6.98242C0.765625 7.3098 0.895675 7.62377 1.12716 7.85526C1.35865 8.08675 1.67262 8.2168 2 8.2168C2.32738 8.2168 2.64134 8.08675 2.87283 7.85526C3.10432 7.62377 3.23438 7.3098 3.23438 6.98242C3.23438 6.65505 3.10432 6.34108 2.87283 6.10959C2.64134 5.8781 2.32738 5.74805 2 5.74805C1.67262 5.74805 1.35866 5.8781 1.12716 6.10959C0.895675 6.34108 0.765625 6.65505 0.765625 6.98242ZM0.765625 11.9043C0.765625 12.2317 0.895675 12.5456 1.12716 12.7771C1.35866 13.0086 1.67262 13.1387 2 13.1387C2.32738 13.1387 2.64134 13.0086 2.87283 12.7771C3.10432 12.5456 3.23438 12.2317 3.23438 11.9043C3.23438 11.5769 3.10432 11.263 2.87283 11.0315C2.64134 10.8 2.32738 10.6699 2 10.6699C1.67262 10.6699 1.35866 10.8 1.12717 11.0315C0.895675 11.263 0.765625 11.5769 0.765625 11.9043Z" fill="#9395A3" stroke="#9395A3" stroke-width="0.5"/>
</svg>
