<svg width="16" height="18" viewBox="0 0 16 18" fill="none" xmlns="http://www.w3.org/2000/svg">
<path d="M2.39594 9L8.61625 1.05234C8.71234 0.930469 8.62563 0.75 8.46859 0.75H6.65688C6.54203 0.75 6.43188 0.803906 6.36156 0.892969L0.377969 8.53828C0.274341 8.67032 0.218018 8.83332 0.218018 9.00117C0.218018 9.16902 0.274341 9.33202 0.377969 9.46406L6.36156 17.107C6.43188 17.1984 6.54203 17.25 6.65688 17.25H8.46859C8.62563 17.25 8.71234 17.0695 8.61625 16.9477L2.39594 9ZM9.52094 9L15.7413 1.05234C15.8373 0.930469 15.7506 0.75 15.5936 0.75H13.7819C13.667 0.75 13.5569 0.803906 13.4866 0.892969L7.50297 8.53828C7.39934 8.67032 7.34302 8.83332 7.34302 9.00117C7.34302 9.16902 7.39934 9.33202 7.50297 9.46406L13.4866 17.107C13.5569 17.1984 13.667 17.25 13.7819 17.25H15.5936C15.7506 17.25 15.8373 17.0695 15.7413 16.9477L9.52094 9Z" fill="#9395A3"/>
</svg>
