<svg width="20" height="20" viewBox="0 0 20 20" fill="none" xmlns="http://www.w3.org/2000/svg">
<path d="M17.3175 14.4038C16.7308 13.8167 16.0454 13.3375 15.2925 12.9882C16.3542 12.1281 17.0316 10.8156 17.0316 9.34369C17.0316 6.74681 14.8659 4.61635 12.2691 4.65619C9.71202 4.69603 7.65187 6.77963 7.65187 9.34369C7.65187 10.8156 8.33155 12.1281 9.39093 12.9882C8.6379 13.3373 7.95238 13.8165 7.36593 14.4038C6.08624 15.6859 5.35968 17.3781 5.3128 19.1828C5.31218 19.2078 5.31657 19.2327 5.32571 19.2559C5.33485 19.2792 5.34856 19.3005 5.36604 19.3184C5.38351 19.3363 5.40439 19.3505 5.42745 19.3602C5.45051 19.3699 5.47528 19.3749 5.5003 19.3749H6.8128C6.91358 19.3749 6.99796 19.2953 7.0003 19.1945C7.04483 17.8351 7.59562 16.5624 8.56358 15.5968C9.05891 15.0989 9.64808 14.7041 10.297 14.4353C10.9459 14.1666 11.6417 14.0292 12.3441 14.0312C13.7714 14.0312 15.1144 14.5867 16.1245 15.5968C17.0901 16.5624 17.6409 17.8351 17.6878 19.1945C17.6901 19.2953 17.7745 19.3749 17.8753 19.3749H19.1878C19.2128 19.3749 19.2376 19.3699 19.2607 19.3602C19.2837 19.3505 19.3046 19.3363 19.3221 19.3184C19.3395 19.3005 19.3533 19.2792 19.3624 19.2559C19.3715 19.2327 19.3759 19.2078 19.3753 19.1828C19.3284 17.3781 18.6019 15.6859 17.3175 14.4038ZM12.3441 12.3437C11.5425 12.3437 10.7878 12.032 10.223 11.4648C9.93949 11.1835 9.71557 10.8481 9.56457 10.4784C9.41357 10.1088 9.33857 9.71249 9.34405 9.31322C9.35108 8.54447 9.65812 7.8015 10.1948 7.25072C10.7573 6.67416 11.5097 6.35306 12.3136 6.34369C13.1081 6.33666 13.8792 6.64603 14.4464 7.2015C15.0276 7.77103 15.3464 8.53275 15.3464 9.34369C15.3464 10.1453 15.0347 10.8976 14.4675 11.4648C14.1892 11.7444 13.8583 11.966 13.4938 12.1169C13.1293 12.2678 12.7385 12.3448 12.3441 12.3437ZM6.47296 9.96244C6.45187 9.75853 6.44015 9.55228 6.44015 9.34369C6.44015 8.97103 6.4753 8.60775 6.54093 8.25385C6.55733 8.16947 6.5128 8.08275 6.43546 8.0476C6.11671 7.90463 5.82374 7.70775 5.57062 7.45931C5.27235 7.17011 5.03764 6.82191 4.88147 6.43693C4.7253 6.05195 4.65109 5.63864 4.66358 5.22338C4.68468 4.47103 4.98702 3.75619 5.51437 3.21713C6.09327 2.62416 6.8714 2.30072 7.69874 2.3101C8.4464 2.31713 9.16827 2.60541 9.71437 3.11635C9.89952 3.28978 10.0589 3.48197 10.1925 3.68822C10.2394 3.76088 10.3308 3.79135 10.4105 3.76322C10.823 3.62025 11.2589 3.51947 11.7066 3.4726C11.8378 3.45853 11.9128 3.31791 11.8542 3.20072C11.0925 1.69369 9.53624 0.653065 7.73624 0.62494C5.13702 0.585096 2.9714 2.71556 2.9714 5.3101C2.9714 6.78197 3.64874 8.09447 4.71046 8.95463C3.96515 9.29916 3.27843 9.77494 2.68312 10.3703C1.39874 11.6523 0.672178 13.3445 0.625303 15.1515C0.624677 15.1765 0.629065 15.2014 0.638207 15.2247C0.647349 15.248 0.661061 15.2692 0.678535 15.2871C0.696009 15.305 0.716891 15.3193 0.73995 15.329C0.76301 15.3387 0.78778 15.3437 0.812803 15.3437H2.12765C2.22843 15.3437 2.3128 15.264 2.31515 15.1632C2.35968 13.8038 2.91046 12.5312 3.87843 11.5656C4.56749 10.8765 5.41124 10.3984 6.33233 10.1663C6.42374 10.1429 6.48468 10.0562 6.47296 9.96244Z" fill="#2507AB"/>
</svg>
