<svg width="18" height="20" viewBox="0 0 18 20" fill="none" xmlns="http://www.w3.org/2000/svg">
<path d="M17.1214 15.8969C16.6793 14.8496 16.0377 13.8984 15.2323 13.0961C14.4294 12.2915 13.4783 11.65 12.4316 11.207C12.4222 11.2023 12.4128 11.2 12.4034 11.1953C13.8636 10.1406 14.8128 8.42266 14.8128 6.48438C14.8128 3.27344 12.2112 0.671875 9.0003 0.671875C5.78937 0.671875 3.1878 3.27344 3.1878 6.48438C3.1878 8.42266 4.13702 10.1406 5.59718 11.1977C5.5878 11.2023 5.57843 11.2047 5.56905 11.2094C4.51905 11.6523 3.57687 12.2875 2.76827 13.0984C1.96368 13.9013 1.32219 14.8524 0.879209 15.8992C0.444027 16.924 0.209323 18.0228 0.187803 19.1359C0.187177 19.161 0.191565 19.1858 0.200707 19.2091C0.209849 19.2324 0.223561 19.2537 0.241035 19.2716C0.258509 19.2895 0.27939 19.3037 0.30245 19.3134C0.32551 19.3231 0.35028 19.3281 0.375303 19.3281H1.78155C1.88468 19.3281 1.96671 19.2461 1.96905 19.1453C2.01593 17.3359 2.74249 15.6414 4.02687 14.357C5.35577 13.0281 7.12062 12.2969 9.0003 12.2969C10.88 12.2969 12.6448 13.0281 13.9737 14.357C15.2581 15.6414 15.9847 17.3359 16.0316 19.1453C16.0339 19.2484 16.1159 19.3281 16.2191 19.3281H17.6253C17.6503 19.3281 17.6751 19.3231 17.6982 19.3134C17.7212 19.3037 17.7421 19.2895 17.7596 19.2716C17.777 19.2537 17.7908 19.2324 17.7999 19.2091C17.809 19.1858 17.8134 19.161 17.8128 19.1359C17.7894 18.0156 17.5573 16.9258 17.1214 15.8969ZM9.0003 10.5156C7.92452 10.5156 6.91202 10.0961 6.1503 9.33438C5.38858 8.57266 4.96905 7.56016 4.96905 6.48438C4.96905 5.40859 5.38858 4.39609 6.1503 3.63437C6.91202 2.87266 7.92452 2.45312 9.0003 2.45312C10.0761 2.45312 11.0886 2.87266 11.8503 3.63437C12.612 4.39609 13.0316 5.40859 13.0316 6.48438C13.0316 7.56016 12.612 8.57266 11.8503 9.33438C11.0886 10.0961 10.0761 10.5156 9.0003 10.5156Z" fill="#9395A3"/>
</svg>
