<svg width="25" height="25" viewBox="0 0 25 25" fill="none" xmlns="http://www.w3.org/2000/svg">
<path fill-rule="evenodd" clip-rule="evenodd" d="M3.03303 16.754C3.03303 16.7535 3.03259 16.7531 3.03259 16.7527H5.37936C6.83007 19.1746 9.47696 20.8016 12.5 20.8016C16.724 20.8016 20.214 17.6283 20.7291 13.5416H2.16694C2.13263 13.1989 2.11482 12.8514 2.11482 12.5C2.11482 6.76448 6.76448 2.11482 12.5 2.11482C15.8462 2.11482 18.8141 3.70366 20.7109 6.16205H23.2735C21.0996 2.47533 17.0897 0 12.5 0C5.59653 0 0 5.59609 0 12.5C0 13.9937 0.262778 15.4257 0.743598 16.754H3.03303Z" fill="#2407A8"/>
<path fill-rule="evenodd" clip-rule="evenodd" d="M21.9668 8.24614C21.9668 8.24658 21.9673 8.24701 21.9673 8.24745H19.6205C18.1698 5.82511 15.5229 4.19849 12.4999 4.19849C8.27585 4.19849 4.78633 7.37181 4.2712 11.4581H22.8329C22.8672 11.8008 22.885 12.1483 22.885 12.5001C22.885 18.2356 18.2354 22.8853 12.4999 22.8853C9.15366 22.8853 6.18622 21.2965 4.28901 18.8376H1.72681C3.90027 22.5248 7.91014 25.0001 12.4999 25.0001C19.4033 25.0001 24.9999 19.4036 24.9999 12.5001C24.9999 11.006 24.7371 9.57393 24.2563 8.24614H21.9668Z" fill="#FB338C"/>
</svg>
