<svg xmlns="http://www.w3.org/2000/svg" width="118" height="76" viewBox="0 0 72 27">
    <g fill="none" fill-rule="evenodd">
        <g fill="#030000">
            <g>
                <path d="M12.728 2.951c0 .61-.494 1.105-1.101 1.105-.612 0-1.107-.496-1.107-1.105 0-.61.495-1.102 1.107-1.102.607 0 1.101.493 1.101 1.102M43.994 2.951c0 .61-.495 1.105-1.103 1.105-.612 0-1.104-.496-1.104-1.105 0-.61.492-1.102 1.104-1.102.608 0 1.103.493 1.103 1.102M12.506 13.301c0 .724.444.676 1.297.676v.394H9.785v-.394c.937 0 1.254.082 1.254-1.015v-5.04c0-.806-.974-1.056-.974-1.056V6.57l2.185-.757h.256v7.49zM43.771 13.301c0 .724.442.676 1.294.676v.394h-4.016v-.394c.935 0 1.253.082 1.253-1.015v-5.04c0-.806-.974-1.056-.974-1.056V6.57l2.184-.757h.26v7.49zM20.482 6.06v1.004h-2.834v4.815c-.016 1.578.73 1.758 1.055 1.805.337.05.88.016 1.49-.561l.255.286c-.84.87-1.553 1.244-2.482 1.244-1.384 0-1.855-.65-1.823-2.462V7.064h-1.198v-.332c.777-.553 1.842-1.332 2.437-2.624h.283v1.951h2.817zM22.277 8.883c-.569-.016-.214-.83-.165-.927.374-.73 2.053-1.965 3.424-2.04.681-.035 1.541-.088 2.178.76.341.457.445.647.445 1.781v2.92c0 1.743.127 2.113.368 2.241.585.308 1.007-.22 1.007-.22l.2.272c-.634.657-1.289 1.011-1.835 1.011-.857 0-1.183-.719-1.189-1.433 0 0-1.384 1.433-2.754 1.433-1.372 0-2.27-.703-2.27-1.77 0-1.36 1.183-1.893 2.59-2.41.483-.177 1.483-.533 2.413-.827v-.942c0-.609.054-.967-.333-1.404-.295-.35-1.014-.583-1.515-.568-.665.02-1.376.425-1.445.9-.052.35-.067.644-.168.78-.088.115-.371.457-.95.443zm4.416 1.308c-.367.123-.868.278-1.49.497-1.408.499-2.027.998-2.027 1.89 0 .785.762 1.285 1.495 1.269.454-.012.76-.092 2.018-1.078l.004-2.578zM37.052 2.174c.011-.892-.977-.878-.977-.878v-.26L38.325 0h.248l.017 12.472c0 .703-.117 1.132.688 1.137l.555-.005-.002.294-2.304.706-.402-.007-.031-1.267h-.115c-1.011 1.109-2.12 1.336-3.05 1.336-2.091 0-3.332-1.954-3.332-4.162 0-2.585 2.276-4.722 4.48-4.722.623 0 1.402.048 1.975.349V2.174zm.02 5.776c-.08-1.306-1.068-1.586-2.17-1.575-1.66.013-2.705 1.506-2.705 3.523 0 2.067 1.13 3.812 3.243 3.7.64-.034 1.491-.545 1.633-.988V7.95zM49.01 12.865c0 1.165.084 1.073 1.317 1.073v.431h-4.055v-.41c.962 0 1.223.014 1.223-.837V7.945c-.049-.649-1.114-.94-1.114-.94V6.72l2.397-.922h.224v1.385c1.228-.807 1.91-1.421 3.298-1.421 1.439 0 2.224.75 2.224 3.07 0 2.75.008 3.827 0 4.634-.001.564 1.334.489 1.334.489l.004.416h-4.124v-.441c.36 0 .946.032 1.15-.171.073-.076.11-.232.11-.532V8.823c-.006-1.875-.775-2.037-1.658-2.073-.866-.037-1.645.507-2.33.887v5.228zM63.513 9.012c-.035.091-.08.107-.125.107H58.06c0 .193-.317 3.902 2.437 4.4 1.136.204 2.303-.513 2.913-1.276l.253.275c-.642.943-1.968 2.125-3.478 2.125-2.48 0-3.64-1.986-3.598-4.384.038-2.192 1.32-4.509 3.84-4.509 2.6 0 3.172 2.14 3.146 2.845 0 0 0 .268-.06.417zm-1.905-.456c.178 0 .29-.19.31-.327.192-1.216-.612-1.94-1.617-1.94-.684 0-1.784.303-2.211 2.267h3.518zM65.494 11.714c.248 1.239 1.002 2.358 2.27 2.358.83 0 1.525-.447 1.564-1.263.012-.295.046-.805-.507-1.286-1.308-1.13-3.428-1.031-3.583-3.298-.087-1.282 1.01-2.505 2.913-2.505.709 0 1.593.21 2.141.538l.12 1.835h-.438c-.299-1.474-1.114-1.838-1.943-1.838-.65 0-1.566.364-1.566 1.212 0 2.273 4.397 1.683 4.397 4.493 0 1.63-1.637 2.633-3.033 2.633-1.632 0-2.499-.638-2.499-.638l-.21-2.165.374-.076zM8.206 8.042c-.093.107-.332.12-.425.027-.226-.838-.825-1.942-2.58-1.942-1.69 0-3.392 1.198-3.392 3.923 0 2.833 1.768 4.217 3.484 4.217 1.676 0 2.407-1.118 2.78-1.982.12-.12.331-.066.4.053-.095.891-.454 1.769-.64 2.021-.16.027-.319.08-.464.12-.294.094-1.211.319-2.076.319-1.317 0-2.447-.266-3.404-.891C.81 13.203 0 11.992 0 10.249c0-1.555.692-2.765 1.676-3.524.983-.745 2.327-1.13 3.67-1.13.758 0 1.676.134 2.301.292.16.042.253.054.372.08.027.307.053 1.09.187 2.075M17.107 23.945c-.108-.01-.214.024-.295.093-.176.145-.365.254-.558.324-.226.08-.442.119-.66.119-.512 0-.998-.204-1.368-.573-.173-.168-.313-.373-.415-.608-.1-.238-.149-.478-.149-.732 0-.257.05-.503.15-.731.096-.226.237-.43.415-.61.174-.172.382-.313.621-.415.242-.1.497-.15.76-.15.421 0 .816.132 1.142.385.173.133.435.095.573-.083.132-.182.096-.432-.082-.57-.465-.36-1.03-.55-1.634-.55-.364 0-.725.072-1.07.215-.341.146-.638.345-.881.588-.253.245-.453.536-.596.864-.143.338-.214.694-.214 1.057 0 .373.071.728.214 1.051.145.338.342.63.588.87.246.245.538.443.87.587.339.147.701.221 1.076.221.321 0 .639-.057.945-.173.29-.108.558-.265.794-.461.084-.068.135-.165.145-.274.011-.11-.023-.217-.095-.3-.07-.083-.17-.134-.276-.144M23.885 22.594c0 .25-.048.5-.143.738-.106.243-.237.443-.403.61-.366.363-.845.565-1.353.565-.514 0-.998-.204-1.368-.573-.174-.168-.314-.373-.416-.608-.1-.239-.148-.478-.148-.732 0-.262.051-.507.155-.734.091-.224.23-.429.416-.607.18-.18.383-.316.62-.417.243-.098.498-.148.76-.148.512 0 .987.2 1.34.565.348.354.54.83.54 1.34m.04-1.913c-.508-.521-1.19-.81-1.92-.81-.37 0-.732.072-1.078.215-.333.143-.627.34-.875.588-.252.245-.451.535-.595.863-.146.333-.221.69-.221 1.058 0 .358.072.712.214 1.051.135.314.333.605.588.869.248.247.543.446.876.589.34.146.7.221 1.072.221.731 0 1.418-.287 1.933-.81.247-.246.44-.539.575-.869.138-.322.207-.676.207-1.051 0-.369-.069-.723-.207-1.05-.14-.335-.33-.626-.569-.864M30.772 19.978c-.23 0-.409.18-.409.41V23.7l-2.988-3.58c-.106-.13-.288-.181-.45-.124-.162.056-.27.211-.27.384v4.448c0 .23.179.408.408.408.23 0 .41-.179.41-.408v-3.32l2.984 3.59c.083.092.197.145.315.145.042 0 .09-.008.137-.024l.006-.002c.16-.068.266-.218.266-.383v-4.447c0-.226-.184-.41-.409-.41M38.254 19.978c-.23 0-.409.18-.409.41V23.7l-2.988-3.58c-.106-.13-.288-.181-.45-.124-.162.056-.27.21-.27.384v4.448c0 .23.18.408.408.408.23 0 .409-.179.409-.408v-3.32l2.984 3.59c.084.092.198.145.316.145.043 0 .09-.008.137-.024l.006-.002c.16-.068.265-.218.265-.383v-4.447c0-.226-.183-.41-.408-.41M44.641 24.4h-2.69v-1.414h2.314c.23 0 .41-.179.41-.408 0-.225-.184-.409-.41-.409H41.95v-1.393h2.626c.23 0 .408-.18.408-.409 0-.23-.179-.408-.408-.408h-3.034c-.226 0-.408.183-.408.408v4.442c0 .224.182.408.408.408h3.1c.228 0 .408-.18.408-.408 0-.23-.18-.409-.409-.409M51.26 23.956c-.108-.01-.214.024-.295.093-.176.143-.364.253-.558.323-.226.08-.442.12-.66.12-.511 0-.997-.204-1.368-.574-.172-.168-.313-.372-.414-.608-.101-.237-.15-.477-.15-.732 0-.257.05-.503.15-.731.097-.226.237-.43.415-.61.174-.173.383-.312.622-.416.24-.1.496-.15.759-.15.421 0 .816.134 1.142.386.173.133.435.096.573-.083.132-.181.096-.432-.082-.57-.466-.36-1.03-.549-1.633-.549-.365 0-.726.072-1.071.214-.341.147-.638.344-.881.588-.253.246-.453.536-.596.864-.143.338-.214.694-.214 1.057 0 .374.071.728.214 1.051.145.338.343.63.588.87.246.245.538.443.87.587.339.148.701.222 1.076.222.321 0 .64-.06.945-.175.29-.107.557-.262.795-.46.083-.068.134-.165.144-.274.011-.11-.023-.217-.094-.3-.072-.083-.17-.134-.277-.143M57.625 19.948H54.13c-.229 0-.408.18-.408.41 0 .228.18.408.408.408h1.343v4.038c0 .23.18.409.408.409.226 0 .409-.183.409-.409v-4.038h1.335c.23 0 .41-.18.41-.409 0-.23-.18-.409-.41-.409" transform="translate(-207 -224) translate(207.381 224.8)"/>
            </g>
        </g>
    </g>
</svg>
