<svg xmlns="http://www.w3.org/2000/svg" width="88" height="76" viewBox="0 0 57 22">
    <g fill="none" fill-rule="evenodd">
        <g fill="#030000">
            <g>
                <path d="M37.305 5.339c-.737.241-1.033.34-2.307.805V2.195h1.12c.886 0 2.625-.213 2.625 1.42 0 1.039-.594 1.448-1.438 1.724zm1.952 1.44c1.002-.516 1.877-1.419 1.877-2.999 0 0 .238-3.595-3.833-3.595h-4.685v11.87h2.382v-1.529h.003c0-.358-.115-2.204.9-2.662.407-.183.804-.312 1.19-.414l2.546 4.606h2.615l-2.995-5.278zM26.638 5.339c-.742.241-1.035.34-2.313.805V2.195h1.12c.888 0 2.629-.213 2.629 1.42 0 1.039-.598 1.448-1.436 1.724zm1.95 1.44c.998-.516 1.874-1.419 1.874-2.999 0 0 .237-3.595-3.836-3.595h-4.679v11.87h2.378v-1.529h.003c0-.358-.114-2.204.9-2.662.408-.183.804-.312 1.192-.414l2.547 4.606h2.611l-2.99-5.278zM15.246 7.507c-.584.212-.965.355-1.518.594l1.493-5.87h.063l1.178 4.681c-.3.234-.718.417-1.216.595zm1.58-7.322H13.62l-3.327 11.87h2.426l.251-.988c.14-.31.357-.575.732-.764.862-.436 1.704-.722 2.526-.986.242-.077.5-.193.757-.335l.797 3.073h2.431L16.825.185zM6.305 4.227c-.312.175-.682.325-1.094.47-1.052.362-1.537.538-2.83 1.05V.185H0v11.871h2.381V8.851c.024-.733.45-1.048.906-1.251 1.028-.465 2.028-.78 3.018-1.068v5.523h2.376V.185H6.305v4.042zM15.95 16.09c-.35 0-.527.25-.527.748v1.092h-1.937v-1.092c0-.499-.176-.749-.528-.749-.352 0-.526.25-.526.749v3.244c0 .499.174.747.526.747.352 0 .528-.248.528-.747v-1.178h1.937v1.178c0 .499.176.747.527.747.35 0 .527-.248.527-.747v-3.244c0-.499-.177-.749-.527-.749M26.846 16.148h-1.833c-.5 0-.749.164-.749.495 0 .324.25.487.749.487h.39v2.952c0 .499.176.747.527.747.35 0 .527-.248.527-.747V17.13h.389c.498 0 .747-.163.747-.487 0-.33-.25-.495-.747-.495M43.437 12.056L45.818 12.056 45.818.185 43.437.185zM49.757 3.39c0-.809.668-1.375 1.446-1.375.855 0 1.31.66 1.562 1.383l2.068-.917C54.355.954 53.004 0 51.281 0c-2.06 0-3.862 1.528-3.862 3.664 0 4.042 5.588 2.67 5.588 5.05 0 1.022-.781 1.512-1.712 1.512-1.031 0-1.553-.626-1.799-1.506l-2.267.841c.57 1.811 2.08 2.679 4.08 2.679 2.93 0 4.032-2.168 4.032-3.618 0-4.424-5.584-2.9-5.584-5.231M31.117 19.796h-.89v-.865h.741c.498 0 .747-.162.747-.487 0-.326-.25-.488-.747-.488h-.742v-.826h.859c.5 0 .747-.163.747-.488 0-.33-.248-.494-.747-.494h-1.183c-.148 0-.268.015-.361.043-.094.028-.167.073-.221.133-.054.06-.093.136-.114.23-.022.093-.033.206-.033.335v3.22c0 .125.011.23.033.314.021.086.06.152.114.205.054.053.127.088.22.11.094.022.21.033.348.033h1.229c.499 0 .75-.163.75-.487 0-.325-.251-.488-.75-.488M35.701 19.796h-.89v-2.958c0-.5-.177-.749-.526-.749-.352 0-.527.25-.527.749v3.27c0 .126.01.231.032.315.02.086.06.152.114.205.055.053.128.088.222.11.092.022.208.033.346.033h1.229c.5 0 .75-.163.75-.487 0-.325-.25-.488-.75-.488M39.823 17.93c-.13-.041-.247-.081-.351-.113-.104-.033-.192-.066-.264-.1-.07-.036-.127-.078-.165-.131-.038-.052-.057-.119-.057-.2 0-.114.043-.209.131-.285.09-.077.217-.114.38-.114.07 0 .142.008.212.027.071.016.144.034.213.055.07.02.137.036.205.054.065.018.132.027.198.027.151 0 .266-.04.35-.12.082-.08.123-.19.123-.328 0-.089-.029-.177-.088-.261-.058-.084-.141-.157-.254-.216-.11-.06-.242-.109-.4-.145-.155-.037-.329-.055-.518-.055-.256 0-.488.037-.694.11-.205.073-.382.177-.529.307-.147.134-.26.29-.34.467-.076.18-.116.37-.116.579 0 .18.028.34.079.474.05.135.132.253.24.354.108.102.245.192.41.27.165.078.358.15.58.215.124.039.238.076.337.111.1.035.185.076.252.123.07.048.124.103.16.168.039.066.055.144.055.235 0 .14-.05.251-.149.342-.099.088-.223.132-.37.132-.118 0-.23-.012-.336-.035-.105-.023-.205-.052-.298-.082-.093-.03-.182-.057-.263-.08-.083-.026-.158-.036-.229-.036-.165 0-.292.044-.383.134-.091.087-.136.2-.136.34 0 .095.037.187.11.276.074.09.178.168.312.237.135.07.293.126.475.166.181.043.382.062.598.062.277 0 .528-.039.749-.116.22-.08.409-.188.564-.327.156-.137.276-.303.359-.492.08-.188.123-.395.123-.62 0-.351-.105-.64-.313-.862-.207-.22-.528-.403-.962-.547M21.681 19.07c-.055.176-.131.326-.23.45-.1.122-.22.216-.36.283-.137.064-.29.097-.454.097-.164 0-.316-.033-.455-.097-.138-.067-.259-.16-.358-.284-.098-.123-.177-.273-.23-.449-.055-.174-.083-.372-.083-.594 0-.23.028-.436.083-.615.053-.18.132-.333.23-.458.1-.125.218-.221.355-.287.137-.063.29-.096.458-.096.17 0 .323.033.46.096.134.066.253.162.354.287.099.125.175.278.23.458.053.18.08.386.08.615 0 .222-.027.42-.08.594m1.067-1.608c-.112-.3-.268-.556-.469-.77-.202-.215-.441-.381-.718-.499-.279-.115-.585-.175-.924-.175-.338 0-.646.06-.923.175-.277.118-.516.284-.715.499-.199.214-.356.47-.465.77-.11.3-.166.633-.166 1 0 .364.055.699.163.998.108.302.263.56.461.774.2.215.438.382.716.498.278.117.587.176.929.176.343 0 .653-.059.933-.176.28-.116.519-.283.718-.498.2-.215.353-.472.464-.774.107-.3.16-.634.16-.998 0-.367-.054-.7-.164-1" transform="translate(-124 -228) translate(124.416 228.616)"/>
            </g>
        </g>
    </g>
</svg>
