<?xml version="1.0" encoding="UTF-8"?>
<!-- Generator: Adobe Illustrator 15.1.0, SVG Export Plug-In . SVG Version: 6.00 Build 0)  -->
<!DOCTYPE svg PUBLIC "-//W3C//DTD SVG 1.1//EN" "http://www.w3.org/Graphics/SVG/1.1/DTD/svg11.dtd">
<svg version="1.1" id="Layer_1" xmlns="http://www.w3.org/2000/svg" xmlns:xlink="http://www.w3.org/1999/xlink" x="0px" y="0px" width="663px" height="430px" viewBox="0 0 663 430" enable-background="new 0 0 663 430" xml:space="preserve">
<g>
	<path fill="#009D57" d="M301.647,322.976c152.946-16.043,272.056,0.58,349.854,22.52c0.557,0.061-160.104-24.212-342.991-0.907   c-174.364,21.575-297.188,77.308-296.871,76.104C62.109,384.739,148.938,344.651,301.647,322.976"/>
	<path fill="#EF3E33" d="M231.689,162.584c0-8.487,6.817-15.373,15.237-15.373c8.407,0,15.226,6.886,15.226,15.373   c0,8.512-6.815,15.396-15.226,15.396C238.507,177.98,231.689,171.097,231.689,162.584"/>
	<path fill="#004990" d="M567.862,290.616c-7.432-0.567-11.931-11.748-12.16-33.734c-0.244-22.622,5.13-34.643,12.229-34.643   c5.487,0,9.135,5.42,12.611,11.43l-0.047,44.881c-2.907,6.021-6.298,11.908-12.512,12.066H567.862z M580.544,298.317v5.953h13.688   v-129.54h-13.688v39.584l-0.05-0.057c-3.477-3.896-8.188-7.887-14.725-7.76c-13.782,0.238-23.918,17.167-24.031,49.62   c-0.103,30.521,8.434,50.104,24.031,50.269c6.682,0.058,11.729-4.158,14.725-8.113L580.544,298.317z"/>
	<path fill="#004990" d="M526.731,304.317v-66.205c-0.249-11.729-1.556-18.123-4.363-23.512c-2.646-5.33-7.778-8.17-13.088-8.17   c-3.547,0-7.728,1.739-10.781,4.204c-3.263,2.604-4.513,3.479-7.621,7.511l-0.07,0.068v-9.625h-13.702l0.068,95.729h13.634   l0.138-67.334c2.479-4.452,4.104-6.125,6.578-9.021c2.559-2.202,5.01-4.406,7.828-4.406c3.521,0,4.693,2.104,5.795,4.531   c1.229,3.17,1.763,7.795,1.763,15.092l0.067,61.139H526.731L526.731,304.317z"/>
	<polygon fill="#004990" points="407.948,304.294 407.948,289.56 372.548,289.56 372.548,174.766 358.809,174.766 358.865,304.294     "/>
	<path fill="#004990" d="M445.719,283.946c-2.386,4.307-6.09,7.512-9.112,7.59c-5.362,0.125-7.124-5.795-6.93-15.111   c0.249-11.965,7.043-18.281,16.042-21.247V283.946z M461.309,304.294v-3.229c-1.557-1.566-1.819-5.123-1.819-12.758v-44.916   c0-27.607-6.454-36.791-20.225-36.847c-14.463-0.069-20.339,14.043-21.565,28.279l13.861,1.92   c0.774-7.875,2.772-16.271,7.239-16.155c5.034,0.125,6.669,6.396,6.858,19.215v1.985c-22.803,5.56-29.962,18.985-30.041,37.496   c-0.057,17.2,6.639,27.075,18.167,27.075c5.594,0,10.567-3.454,12.844-6.592v0.318c0.25,1.646,0.5,2.441,1.306,4.204h13.375   V304.294z"/>
	<path fill="#004990" d="M327.303,283.946c-2.41,4.307-6.092,7.512-9.124,7.59c-5.363,0.125-7.125-5.795-6.921-15.111   c0.251-11.965,7.045-18.281,16.044-21.247L327.303,283.946L327.303,283.946z M342.892,304.294v-3.229   c-1.558-1.566-1.817-5.123-1.817-12.758v-44.916c0-27.607-6.466-36.791-20.249-36.847c-14.438-0.069-20.313,14.043-21.563,28.279   l13.885,1.92c0.772-7.875,2.749-16.271,7.248-16.155c5.023,0.125,6.637,6.396,6.84,19.215v1.985   c-22.775,5.56-29.979,18.985-30.04,37.496c-0.057,17.2,6.639,27.075,18.183,27.075c5.59,0,10.554-3.454,12.851-6.592v0.318   c0.238,1.646,0.488,2.441,1.283,4.204h13.381L342.892,304.294L342.892,304.294z"/>
	<path fill="#004990" d="M161.664,233.487c2.182-4.203,3.544-6.568,5.771-8.512c2.568-2.16,4.112-2.535,6.284-2.59   c3.192-0.104,6.26,2.248,8.531,7.771c2.297,6.01,3.296,14.293,3.296,26.438c0,14.236-1.479,22.293-3.499,27.102   c-2.137,4.01-4.591,6.814-8.375,6.814c-2.761,0-4.886-1.557-6.987-3.533c-1.885-2.406-3.064-3.295-5.021-7.59V233.487   L161.664,233.487z M147.915,344.651h13.749v-45.584l0.09,0.059c1.455,1.738,2.217,2.66,4.521,4.238   c3.204,2.236,5.521,2.828,8.862,3.031c7.795,0.479,14.612-5.279,18.203-12.713c3.908-8.031,6.248-20.838,6.248-37.395   c0-17.111-2.479-29.27-6.191-36.895c-4.531-9.261-10.95-12.907-17.293-12.907c-3.646,0-6.805,1.021-9.375,2.875   c-2.591,1.954-3.25,2.715-5.134,4.862h-0.057l0.058-5.636h-13.683L147.915,344.651L147.915,344.651z"/>
	<path fill="#004990" d="M116.727,283.946c-2.396,4.307-6.079,7.512-9.125,7.59c-5.359,0.125-7.11-5.795-6.919-15.111   c0.264-11.965,7.059-18.281,16.044-21.247V283.946z M132.316,304.294v-3.229c-1.557-1.566-1.806-5.123-1.806-12.758v-44.916   c0-27.607-6.479-36.791-20.249-36.847c-14.452-0.069-20.338,14.043-21.563,28.279l13.859,1.92   c0.796-7.875,2.773-16.271,7.25-16.155c5.033,0.125,6.658,6.396,6.863,19.215v1.985c-22.815,5.56-29.984,18.985-30.065,37.496   c-0.044,17.2,6.659,27.075,18.191,27.075c5.591,0,10.563-3.454,12.852-6.592v0.318c0.238,1.646,0.489,2.441,1.294,4.204h13.374   V304.294z"/>
	<path fill="#004990" d="M258.675,208.75h-7.442v14.704h7.442v56.023c0,23.262,8.271,26.396,17.146,27.387   c5.146,0.578,10.94-3.942,14.075-6.658l-3.521-14.684c-2.604,3.33-4.316,5.936-7.729,5.936c-4.86,0-6.359-5.965-6.359-22.271   v-45.731h13.851v-14.703h-13.85v-20.635h-13.611L258.675,208.75L258.675,208.75z"/>
	<path fill="#004990" d="M245.949,189.149c-10.564-1.25-16.771,12.94-27.042,54.209c-9.933,39.635-15.771,67.605-17.327,90.104   c-0.31,4.329,1.103,8.813,2.624,8.511c3.409-0.646,6.564-13.043,16.952-34.699c22.725-47.618,22.635-41.313,22.771-49.584   c0.046-2.375-0.864-3.76-1.784-3.577c-1.625-0.07-2.624,1.215-21.108,35.823C225.566,259.62,237.065,214.058,245.949,189.149"/>
	<path fill="#004990" d="M65.075,264.847c-2.864,11.125-7.33,26.701-18.249,26.701C35.69,291.548,25,279.481,25,239.792   c0-39.563,10.964-52.152,21.497-52.289c9.727-0.138,14.373,10.066,17.202,23.905l13.064-3.067   c-4.408-24.556-15.813-35.179-29.792-35.257c-9.909-0.057-18.771,5.806-24.85,16.181c-6.283,11.01-10.624,28.871-10.624,50.039   c0,23.28,4.249,40.541,11.021,51.743c5.863,9.703,15.124,15.101,24.282,15.101c14.281,0,27.008-15.601,31.324-37.448   L65.075,264.847z"/>
	<path fill="#231F20" d="M358.66,17.14v5.169h-4.563v4.352h4.563v28.36h5.468v-28.36h5.53v-4.352h-5.53   c0-3.568,0.172-5.783,0.501-6.647c0.33-0.875,1.339-1.318,3.03-1.318c0.238,0,0.479,0.012,0.738,0.023   c0.262,0.012,0.671,0.034,1.261,0.069V9.414c-0.476-0.046-0.904-0.08-1.261-0.092c-0.375-0.022-0.738-0.034-1.08-0.034   c-3.682,0-6.168,0.943-7.453,2.829C359.151,13.172,358.739,14.853,358.66,17.14 M335.471,21.195c-4.691,0-8.441,1.636-11.213,4.919   c-2.796,3.261-4.185,7.659-4.185,13.18c0,5.147,1.317,9.261,3.952,12.317c2.648,3.044,6.229,4.591,10.705,4.591   c5.385,0,9.361-1.738,11.918-5.193c2.56-3.454,3.841-7.828,3.841-13.124c0-5.477-1.438-9.635-4.352-12.453   C343.231,22.603,339.666,21.195,335.471,21.195 M335.256,51.439c-3.293,0-5.704-1.17-7.229-3.5   c-1.521-2.33-2.271-5.238-2.271-8.737c0-3.648,0.75-6.75,2.271-9.329c1.522-2.568,3.955-3.864,7.296-3.864   c3.749,0,6.408,1.512,7.941,4.545c0.977,1.92,1.455,4.42,1.455,7.477c0,3.397-0.659,6.476-2.011,9.249   C341.358,50.055,338.881,51.439,335.256,51.439 M284.069,55.019h5.534V36.114c0-2.329,0.737-4.397,2.227-6.192   c1.5-1.773,3.64-2.671,6.434-2.671c0.314,0,0.615,0,0.896,0.023c0.266,0.023,0.58,0.057,0.91,0.125v-5.841   c-0.602-0.057-1.021-0.091-1.261-0.114c-0.251-0.021-0.432-0.034-0.523-0.034c-2.19,0-4.125,0.784-5.795,2.386   c-1.682,1.579-2.734,2.931-3.169,4.034v-5.682h-5.25L284.069,55.019L284.069,55.019z M253.118,35.966   c0.103-2.83,1.012-5.159,2.715-6.988c1.706-1.83,3.816-2.75,6.329-2.75c3.513,0,6.011,1.341,7.534,3.989   c0.796,1.443,1.314,3.351,1.544,5.75L253.118,35.966L253.118,35.966z M262.516,21.411c-4.603,0-8.315,1.648-11.159,4.942   c-2.86,3.295-4.271,7.59-4.271,12.874c0,5.351,1.409,9.521,4.228,12.498c2.842,2.988,6.271,4.478,10.354,4.478   c1.658,0,3.146-0.171,4.477-0.5c2.456-0.579,4.514-1.682,6.184-3.317c1.001-0.932,1.896-2.159,2.715-3.636   c0.796-1.489,1.271-2.83,1.434-4.034h-5.441c-0.396,1.455-1.077,2.75-2.032,3.852c-1.704,1.908-4,2.875-6.854,2.875   c-3.059,0-5.33-1.011-6.796-3.034c-1.453-2.034-2.236-4.704-2.341-8.056h23.919c0-3.317-0.171-5.726-0.5-7.249   c-0.364-2.204-1.092-4.147-2.205-5.795c-1.137-1.749-2.783-3.158-4.954-4.261C267.083,21.956,264.832,21.411,262.516,21.411    M227.917,51.19c-3.979,0-6.691-1.807-8.146-5.432c-0.785-1.931-1.183-4.431-1.183-7.521c0-4.283,0.955-7.353,2.854-9.203   c1.896-1.864,4.104-2.807,6.624-2.807c2.907,0,5.104,1.137,6.592,3.409c1.487,2.284,2.227,5.136,2.227,8.601   c0,3.886-0.736,7.011-2.227,9.385C233.167,50.01,230.928,51.19,227.917,51.19 M213.522,55.019h5.104v-4.193   c1.169,1.568,2.261,2.716,3.294,3.432c1.717,1.204,3.842,1.806,6.353,1.806c4.479,0,7.979-1.715,10.5-5.146   c2.534-3.443,3.795-7.76,3.795-12.964c0-5.477-1.271-9.635-3.841-12.453c-2.557-2.807-5.886-4.204-9.998-4.204   c-1.965,0-3.795,0.398-5.478,1.238c-1.691,0.83-3.136,2.023-4.363,3.614V9.774h-5.362L213.522,55.019L213.522,55.019z    M161.619,55.019h5.521V37.59c0-4.239,0.84-7.17,2.559-8.783c1.716-1.614,3.601-2.421,5.701-2.421c2.284,0,3.854,0.773,4.691,2.308   c0.522,1.021,0.796,2.636,0.796,4.874V55.02h5.625V35.91c0-3.398,0.782-5.83,2.354-7.284c1.557-1.455,3.431-2.182,5.59-2.182   c1.592,0,2.909,0.41,4.021,1.228c1.09,0.818,1.639,2.33,1.639,4.511v22.838h5.727V33.137c0-2.909-0.42-5.215-1.283-6.931   c-1.602-3.204-4.601-4.795-9.011-4.795c-2.078,0-3.931,0.432-5.604,1.272c-1.646,0.852-3.102,2.16-4.327,3.92   c-0.729-1.431-1.544-2.521-2.454-3.261c-1.59-1.284-3.704-1.932-6.315-1.932c-2.317,0-4.387,0.625-6.205,1.875   c-1.064,0.739-2.249,1.92-3.563,3.534v-4.67h-5.455L161.619,55.019L161.619,55.019z M130.827,35.966   c0.091-2.83,1.001-5.159,2.705-6.988c1.702-1.83,3.816-2.75,6.34-2.75c3.5,0,6.012,1.341,7.512,3.989   c0.817,1.443,1.328,3.351,1.556,5.75L130.827,35.966L130.827,35.966z M140.212,21.411c-4.589,0-8.316,1.648-11.156,4.942   c-2.864,3.295-4.271,7.59-4.271,12.874c0,5.351,1.406,9.521,4.228,12.498c2.828,2.988,6.282,4.478,10.34,4.478   c1.668,0,3.169-0.171,4.486-0.5c2.454-0.579,4.521-1.682,6.192-3.317c0.977-0.932,1.887-2.159,2.69-3.636   c0.817-1.489,1.296-2.83,1.433-4.034h-5.433c-0.396,1.455-1.08,2.75-2.033,3.852c-1.706,1.908-3.977,2.875-6.84,2.875   c-3.08,0-5.341-1.011-6.794-3.034c-1.479-2.034-2.25-4.704-2.364-8.056h23.932c0-3.317-0.159-5.726-0.489-7.249   c-0.375-2.204-1.103-4.147-2.191-5.795c-1.146-1.749-2.815-3.158-4.985-4.261C144.781,21.956,142.531,21.411,140.212,21.411    M74.289,55.019h5.521V37.59c0-4.239,0.841-7.17,2.559-8.783c1.716-1.614,3.604-2.421,5.689-2.421c2.296,0,3.862,0.773,4.705,2.308   c0.522,1.021,0.796,2.636,0.796,4.874V55.02h5.611V35.91c0-3.398,0.797-5.83,2.341-7.284c1.567-1.455,3.431-2.182,5.613-2.182   c1.565,0,2.908,0.41,3.999,1.228c1.09,0.818,1.637,2.33,1.637,4.511v22.838h5.749V33.137c0-2.909-0.433-5.215-1.283-6.931   c-1.604-3.204-4.603-4.795-9.034-4.795c-2.065,0-3.931,0.432-5.59,1.272c-1.636,0.852-3.09,2.16-4.313,3.92   c-0.729-1.431-1.567-2.521-2.456-3.261c-1.59-1.284-3.714-1.932-6.338-1.932c-2.296,0-4.364,0.625-6.194,1.875   c-1.056,0.739-2.237,1.92-3.555,3.534v-4.67H74.29L74.289,55.019L74.289,55.019z M15.228,55.019h6.271l4.887-13.51h17.691   l4.689,13.51h6.705L39.113,9.924h-6.908L15.228,55.019z M28.182,36.545l7.215-19.918l6.94,19.918H28.182z"/>
</g>
</svg>