<svg xmlns="http://www.w3.org/2000/svg" width="81" height="76" viewBox="0 0 55 30">
    <g fill="none" fill-rule="evenodd">
        <g fill="#030000">
            <g>
                <path d="M30.581 27.895c0 .542-.194.816-.574.816-.383 0-.58-.274-.58-.816v-3.542c0-.542.197-.813.58-.813.38 0 .574.27.574.813v1.192h2.113v-1.192c0-.542.196-.813.575-.813.382 0 .578.27.578.813v3.542c0 .542-.196.816-.578.816-.379 0-.575-.274-.575-.816v-1.281h-2.113v1.28zM35.454 26.138c0 .248.029.465.09.654.06.189.144.355.25.488.11.139.242.238.394.31.149.072.316.105.495.105.18 0 .341-.033.498-.105.148-.072.28-.171.39-.31.108-.133.193-.3.25-.488.061-.19.089-.406.089-.654 0-.247-.028-.47-.09-.662-.056-.201-.141-.368-.25-.503-.108-.136-.236-.245-.39-.314-.145-.069-.313-.108-.497-.108-.185 0-.35.04-.502.108-.145.07-.276.178-.388.314-.105.135-.189.302-.249.503-.061.192-.09.415-.09.662m-1.248-.012c0-.4.061-.762.18-1.09.122-.325.29-.604.507-.843.22-.232.48-.413.783-.543.302-.129.64-.19 1.007-.19.373 0 .708.061 1.007.19.302.13.566.31.786.543.218.239.39.518.507.843.127.328.186.69.186 1.09 0 .4-.06.762-.184 1.094-.113.325-.28.608-.498.843-.221.231-.48.413-.786.545-.306.123-.642.186-1.018.186-.37 0-.712-.063-1.015-.186-.302-.132-.565-.314-.778-.545-.22-.235-.385-.518-.507-.843-.116-.332-.177-.693-.177-1.094M39.895 24.672c-.54 0-.815-.175-.815-.528 0-.364.275-.541.815-.541h2.003c.546 0 .818.177.818.541 0 .353-.272.528-.818.528h-.427v3.223c0 .542-.19.816-.572.816-.387 0-.575-.274-.575-.816v-3.223h-.429zM45.92 24.144c0 .353-.27.528-.81.528h-.937v.901h.805c.547 0 .817.18.817.535 0 .353-.27.527-.817.527h-.805v.95h.969c.545 0 .815.177.815.529 0 .358-.27.537-.815.537h-1.34c-.154 0-.277-.016-.381-.037-.104-.025-.184-.066-.24-.124-.062-.053-.1-.132-.122-.226-.029-.09-.042-.201-.042-.342v-3.51c0-.144.013-.268.042-.367.021-.099.06-.187.121-.25.057-.066.137-.117.24-.148.105-.033.234-.044.393-.044h1.297c.54 0 .81.177.81.541M46.917 23.54c.38 0 .574.271.574.813v3.231h.973c.542 0 .815.178.815.53 0 .358-.273.536-.815.536h-1.342c-.152 0-.28-.015-.378-.036-.105-.024-.183-.066-.24-.124-.064-.053-.107-.132-.129-.226-.023-.09-.035-.201-.035-.342v-3.569c0-.542.19-.813.577-.813M53.057 27.084c0 .245-.045.472-.136.678-.09.207-.22.385-.391.535-.17.158-.377.272-.617.353-.243.087-.52.129-.816.129-.239 0-.452-.018-.654-.063-.2-.045-.37-.105-.516-.183-.15-.078-.262-.16-.341-.258-.083-.097-.121-.197-.121-.3 0-.153.045-.279.148-.376.096-.097.235-.142.416-.142.08 0 .16.013.246.04.097.027.192.054.292.087.1.033.21.063.327.087.113.025.24.04.367.04.157 0 .291-.05.403-.142.106-.099.163-.226.163-.38 0-.095-.022-.177-.06-.252-.042-.069-.097-.13-.177-.184-.074-.052-.166-.096-.277-.136-.105-.036-.235-.077-.369-.12-.236-.07-.45-.148-.632-.232-.175-.088-.325-.184-.446-.295-.117-.115-.203-.241-.258-.389-.06-.148-.087-.316-.087-.52 0-.224.045-.434.128-.63.086-.192.207-.362.369-.506.162-.145.354-.257.577-.335.225-.084.48-.12.757-.12.205 0 .396.016.567.058.174.038.315.093.434.159.12.064.216.145.277.235.062.094.095.186.095.286 0 .15-.042.269-.133.356-.086.087-.217.132-.383.132-.07 0-.142-.009-.213-.033-.073-.016-.151-.033-.226-.058-.079-.02-.154-.041-.233-.063-.077-.015-.152-.02-.226-.02-.18 0-.32.035-.417.119-.096.084-.148.188-.148.31 0 .091.024.163.062.224.047.057.108.1.183.139.084.039.177.074.29.111.11.036.24.075.383.123.475.158.82.36 1.052.594.222.246.341.557.341.942" transform="translate(-197 -276) translate(197.06 276.97)"/>
                <path d="M32.59 17.365c-.538.548-1.173.805-1.973.805-.723 0-1.324-.257-1.895-.805-.561-.536-.82-1.189-.82-2.048 0-.81.256-1.439.792-1.982.545-.554 1.169-.806 1.961-.806.8 0 1.417.252 1.95.798.548.551.792 1.193.792 2.02 0 .816-.252 1.455-.808 2.018m3.03-6.95c-1.367-1.362-3.03-2.055-4.94-2.055-1.928 0-3.599.685-4.971 2.034-.355.351-.672.72-.934 1.11.77 1.133 1.16 2.42 1.16 3.855 0 1.935-.698 3.596-2.082 4.943-.082.071-.154.141-.233.21v4.861c0 1.178.966 2.143 2.147 2.143 1.176 0 2.14-.965 2.14-2.143V21.79c.843.352 1.744.533 2.688.533 1.946 0 3.63-.678 5.004-2.021 1.386-1.347 2.084-3.008 2.084-4.943 0-1.915-.697-3.578-2.063-4.945M8.971 17.365c-.544.548-1.17.805-1.975.805-.73 0-1.328-.257-1.897-.805-.562-.536-.82-1.189-.82-2.048 0-.81.251-1.439.793-1.982.546-.554 1.17-.806 1.962-.806.798 0 1.414.252 1.948.798.544.551.796 1.193.796 2.02 0 .816-.252 1.455-.807 2.018m3.992-5.769c-.27-.413-.593-.808-.965-1.182C10.63 9.053 8.971 8.36 7.064 8.36c-1.932 0-3.606.685-4.98 2.034C.707 11.752 0 13.4 0 15.296v10.077c0 1.178.966 2.143 2.142 2.143 1.178 0 2.14-.965 2.14-2.143V21.79c.846.352 1.744.533 2.693.533 1.942 0 3.623-.678 5.002-2.021.379-.364.702-.753.972-1.165-.712-1.097-1.079-2.38-1.079-3.841 0-1.367.37-2.608 1.093-3.7M42.412 11.493c-.098 0-.203-.004-.303-.018-.615-.079-1.16-.398-1.545-.894-.376-.5-.542-1.109-.458-1.724l.91-6.83C41.17.872 42.159 0 43.326 0c.1 0 .199.006.304.022 1.274.17 2.173 1.343 2 2.617l-.906 6.833c-.155 1.153-1.15 2.02-2.312 2.02" transform="translate(-197 -276) translate(197.06 276.97)"/>
                <path d="M20.847 17.365c-.549.548-1.175.805-1.982.805-.72 0-1.326-.257-1.895-.805-.561-.536-.818-1.189-.818-2.048 0-.81.251-1.439.796-1.982.541-.554 1.165-.806 1.96-.806.799 0 1.41.252 1.947.798.55.551.798 1.192.798 2.02 0 .816-.259 1.455-.806 2.018m3.017-6.95c-1.36-1.362-3.017-2.055-4.933-2.055-1.927 0-3.602.685-4.972 2.034-.391.379-.718.78-.996 1.202.728 1.11 1.1 2.37 1.1 3.763 0 1.411-.374 2.672-1.114 3.778.334.506.742.976 1.228 1.4 1.362 1.19 2.94 1.786 4.669 1.786 1.836 0 3.44-.606 4.773-1.81V15.295c0-1.406.385-2.68 1.154-3.791-.26-.385-.559-.747-.91-1.09M41.565 18.265c-.146 0-.296-.011-.459-.03-.74-.098-1.323-.442-1.833-1.083-.501-.63-.686-1.332-.565-2.211.109-.834.455-1.445 1.092-1.927.63-.492 1.306-.674 2.127-.563.815.106 1.414.454 1.886 1.08.485.642.656 1.338.542 2.19-.104.838-.463 1.46-1.104 1.964-.51.39-1.064.58-1.686.58" transform="translate(-197 -276) translate(197.06 276.97)"/>
            </g>
        </g>
    </g>
</svg>
