<svg xmlns="http://www.w3.org/2000/svg" width="178" height="76" viewBox="0 0 90 18">
    <g fill="none" fill-rule="evenodd">
        <g fill="#030000">
            <g>
                <path d="M35.371 16.032h-.178c-.04 0-.05-.007-.05-.048v-1.733h-2.265v1.733c0 .036-.005.048-.052.048h-.188c-.045 0-.05 0-.05-.06v-3.4c0-.064.011-.068.056-.068h.188c.035 0 .046.004.046.068v1.41h2.265v-1.404c0-.07.01-.074.05-.074h.184c.05 0 .057.004.057.074v3.406c0 .048 0 .048-.063.048" transform="translate(-266 -171) translate(266.397 171.768)"/>
                <path d="M35.193 12.53h.184l.028.002v3.477c0-.004-.034-.003-.034-.003h-.178l-.026-.003v-1.777h-2.311v1.758l-.003.02-.027.002h-.187-.027c.002 0 .002-.006.002-.006 0-.016-.002-.028-.002-.028v-3.4l.005-.04.027-.003H32.849v.003l.007.04v1.435h2.31v-1.43l.006-.047h.021zm0-.05c-.018 0-.044 0-.06.02l-.017.077v1.38h-2.212v-1.385c0-.063-.01-.091-.072-.091h-.188c-.064 0-.081.018-.081.09v3.401c0 .072.017.085.076.085h.187c.056 0 .078-.02.078-.073v-1.708h2.212v1.708c0 .06.027.073.077.073h.178c.065 0 .084-.007.084-.073v-3.407c0-.076-.01-.096-.078-.096h-.184zM38.881 12.693c-.872 0-1.546.717-1.546 1.585 0 .869.676 1.58 1.546 1.58s1.544-.711 1.544-1.58c0-.868-.67-1.585-1.544-1.585m0 3.426c-1.051 0-1.848-.822-1.848-1.841 0-1.02.797-1.845 1.848-1.845 1.048 0 1.846.826 1.846 1.845 0 1.02-.798 1.84-1.846 1.84" transform="translate(-266 -171) translate(266.397 171.768)"/>
                <path d="M37.06 14.278c0-.49.182-.949.522-1.288.339-.346.799-.533 1.299-.533.496 0 .96.187 1.296.533.34.34.526.797.526 1.288 0 1.018-.801 1.817-1.822 1.817-1.022 0-1.82-.8-1.82-1.817m.486-1.323c-.347.35-.536.822-.536 1.323 0 1.046.819 1.864 1.87 1.864 1.048 0 1.868-.818 1.868-1.864 0-.501-.188-.972-.533-1.323-.35-.353-.824-.548-1.335-.548-.512 0-.987.195-1.334.548" transform="translate(-266 -171) translate(266.397 171.768)"/>
                <path d="M37.36 14.278c0-.417.156-.807.437-1.101.286-.298.673-.46 1.084-.46.853 0 1.52.684 1.52 1.56 0 .86-.682 1.558-1.52 1.558s-1.522-.698-1.522-1.557m.402-1.135c-.29.302-.45.706-.45 1.135 0 .885.704 1.606 1.57 1.606.866 0 1.569-.72 1.569-1.606 0-.905-.69-1.611-1.57-1.611-.426 0-.825.17-1.119.476M44.438 12.767h-1.164v3.217c0 .042 0 .048-.036.048h-.202c-.047 0-.051 0-.051-.06v-3.205h-1.17c-.034 0-.039-.01-.039-.039v-.168c0-.051.005-.056.04-.056h2.628c.044 0 .044.005.044.056v.168c0 .03 0 .039-.05.039" transform="translate(-266 -171) translate(266.397 171.768)"/>
                <path d="M41.798 12.74l.006-.18.002-.03h2.657s-.003.011-.003.017V12.742l-.022-.001H43.25v3.243l-.004.026-.212-.003-.027-.002v-3.264h-1.194l-.016-.002zm.019-.26c-.058 0-.065.024-.065.08v.168c0 .047.016.061.062.061h1.145v3.183c0 .072.018.085.076.085h.203c.056 0 .062-.028.062-.073v-3.195h1.138c.056 0 .072-.012.072-.06v-.17c0-.053-.003-.078-.066-.078h-2.627zM48.259 16.032h-2.274c-.042 0-.05-.012-.05-.074V12.56c0-.05-.005-.055.026-.055h2.279c.044 0 .045.004.045.058v.13c0 .063-.01.075-.045.075h-2.012v1.339h1.992c.024 0 .03.012.03.074v.101c0 .075-.006.085-.03.085h-1.992v1.405h2.03c.054 0 .054 0 .054.068v.13c0 .063-.005.063-.053.063" transform="translate(-266 -171) translate(266.397 171.768)"/>
                <path d="M45.966 16.003l-.005-.045v-3.437l2.278.008h.02v.163c0 .049 0 .049-.02.049h-2.034v1.39h2.015l.006.049v.104l-.006.061-2.015-.003v1.455H48.289s-.004.008-.004.013c0 .015.003.03.003.03v.129l-.003.038h-2.3l-.019-.004zm-.005-3.522l-.038.011-.015.049.005 3.417c0 .058.002.098.072.098h2.274c.065 0 .078-.016.078-.087v-.13c0-.076-.007-.093-.078-.093H46.25v-1.354h1.97c.055 0 .055-.05.055-.108v-.104c0-.05 0-.097-.056-.097h-1.969V12.79h1.988c.062 0 .073-.035.073-.098v-.13l-.014-.065c-.013-.016-.035-.016-.059-.016h-2.278zM52.038 16.032h-2.054c-.032 0-.033-.007-.033-.042v-3.443c0-.032.001-.043.033-.043h.23c.027 0 .027.004.027.037v3.23h1.79c.044 0 .047 0 .047.046v.155c0 .053 0 .06-.04.06" transform="translate(-266 -171) translate(266.397 171.768)"/>
                <path d="M49.976 15.998v-3.469h.239v3.268h1.84l-.003.01c0 .007.003.01.003.01v.155l-.003.037c-.004-.003-.013-.002-.013-.002h-2.055l-.008-.001v-.008zm.008-3.517c-.015 0-.033.002-.046.016l-.013.05v3.443c0 .042.012.067.059.067h2.055c.061 0 .064-.028.064-.085v-.155c0-.062-.017-.07-.072-.07h-1.765V12.54c0-.03 0-.06-.051-.06h-.231zM54.72 16.118c-.683 0-1.184-.286-1.38-.773-.03-.08-.018-.08.02-.096l.195-.067c.048-.02.048-.006.056.027.147.41.552.654 1.087.654.667 0 1.007-.248 1.007-.688 0-.476-.363-.642-.965-.774l-.198-.04c-.662-.152-1.102-.392-1.102-.968 0-.572.437-.96 1.242-.96.703 0 1.094.363 1.244.783.017.047.017.063-.032.084l-.155.066c-.036.02-.048.013-.055-.014-.147-.4-.465-.665-1.011-.665-.673 0-.95.286-.95.67 0 .432.368.62.91.734.045.01.145.033.195.042.645.132 1.16.374 1.16.978 0 .68-.48 1.007-1.268 1.007" transform="translate(-266 -171) translate(266.397 171.768)"/>
                <path d="M54.698 15.89c.666 0 1.036-.256 1.036-.715 0-.487-.363-.66-.987-.796l-.201-.04c-.769-.178-1.08-.453-1.08-.946 0-.279.108-.511.311-.674.212-.172.523-.262.905-.262.6 0 1.047.28 1.221.767.01.038.01.038-.019.054l-.155.065c-.003.004-.024.012-.024.012-.164-.456-.52-.691-1.032-.691-.619 0-.977.25-.977.693 0 .494.47.66.931.758l.196.043c.533.107 1.141.318 1.141.953 0 .812-.678.984-1.244.984-.67 0-1.165-.278-1.356-.76l-.014-.053.018-.008.194-.066.026-.01.002.02c.148.42.564.671 1.108.671m-.954-3.21c-.217.174-.329.42-.329.714 0 .647.567.865 1.121.991l.199.043c.6.127.949.292.949.748 0 .434-.341.665-.986.665-.523 0-.921-.24-1.065-.64 0-.005-.03-.048-.03-.048l-.057.01-.192.064-.05.038c-.012.02-.004.043.014.088.196.502.71.79 1.402.79.837 0 1.295-.366 1.295-1.03 0-.67-.63-.888-1.182-1.005l-.196-.043c-.625-.132-.893-.34-.893-.707 0-.416.332-.647.929-.647.497 0 .83.22.985.651l.033.04.058-.01.154-.068c.061-.026.064-.06.048-.114-.184-.51-.646-.802-1.269-.802-.394 0-.717.094-.938.271M37.928 1.955c.038.028.116-.01.145-.032.603-.319 1.226-.856 1.898-1.23.03-.022.057-.038.083-.075.022-.03.033-.067.003-.089l-.715-.511c-.027-.022-.058-.041-.129.057-.853 1.193-.319.442-1.233 1.723-.066.099-.078.137-.052.157M19.35 6.685l2.495.002V5.9H19.35V3.888h4.666v-.785h-5.483v6.553h5.712V8.87H19.35V6.685zM83.677 8.87V6.685l2.498.002V5.9h-2.498V3.886l4.667.002v-.785h-5.481v6.553h5.712V8.87h-4.898zm-4.355-1.124l-.063.062c-.695.683-1.59 1.082-2.549 1.091-1.484-.004-2.785-.891-2.786-2.629 0-1.305 1.446-2.468 2.79-2.472.844 0 1.726.338 2.411.938l.073.063.492-.694-.061-.054c-.826-.682-1.831-1.109-2.883-1.109h-.036c-1.799.004-3.7 1.288-3.706 3.31 0 .01 0 .017.003.022.009 2.174 1.823 3.481 3.695 3.481h.011c1.153 0 2.315-.468 3.124-1.398l.057-.066-.063-.057-.509-.488zm-10.315.752L64.63 3.083h-.832v6.573h.85l.025-5.29 4.29 5.29h.883V3.083h-.838v5.415zM55.602 6.685l2.496.002V5.9h-2.496V3.886l4.668.002v-.785h-5.486v6.553H60.5V8.87h-4.898V6.685zm-9.507-.535V3.94h3.472c.708 0 .973.572.979 1.088v.027c-.003.547-.347 1.096-1.01 1.096h-3.44zm5.329-1.138c0-.99-.817-1.909-1.917-1.91H45.25v6.554h.845v-2.72h2.583l1.82 2.72h.932l-1.825-2.772c.964-.162 1.821-.628 1.819-1.872zM37 6.685l2.5.002V5.9H37V3.888h4.668v-.785h-5.483v6.553h5.712V8.87H37V6.685zm-9.373 2.97h.844V6.699h2.86V5.92h-2.86V3.886l4.618.002v-.785h-5.462v6.553zM9.892 6.15V3.94h3.468c.714 0 .98.577.984 1.09v.022c-.004.55-.353 1.1-1.013 1.1H9.892zm5.324-1.138c0-.99-.812-1.909-1.914-1.91H9.046v6.554h.846v-2.72h2.583l1.819 2.72h.928l-1.825-2.772c.969-.162 1.825-.628 1.82-1.872zM4.978 5.13c0 .25-.098.507-.233.692-.137.19-.315.3-.46.3H.845V3.908h3.32c.406-.005.804.598.813 1.197-.003.01 0 .019 0 .019v.006zm-.721-2.028H0v6.553h.846v-2.77h3.362c.946-.003 1.624-.867 1.645-1.774l-.089-.001h.089v-.038c-.005-.982-.783-1.959-1.596-1.97zM20.278 1.955c.038.028.112-.01.143-.032.603-.319 1.228-.856 1.899-1.23.028-.022.056-.038.082-.075.021-.03.035-.067.002-.089l-.713-.511c-.028-.022-.061-.043-.13.057-.85 1.193-.316.442-1.231 1.723-.069.099-.083.137-.052.157" transform="translate(-266 -171) translate(266.397 171.768)"/>
            </g>
        </g>
    </g>
</svg>
